<svg id="Capa_1" enable-background="new 0 0 509.987 509.987" height="512" viewBox="0 0 509.987 509.987" width="512" xmlns="http://www.w3.org/2000/svg"><g><g><path d="m463.364 401.223h-416.74c-10.001 0-18.108-8.107-18.108-18.108v-341.077h452.957v341.076c-.001 10.001-8.108 18.109-18.109 18.109z" fill="#f9f3f1"/><path d="m76.624 401.224h-30c-10 0-18.11-8.11-18.11-18.11v-341.08h30v341.08c0 10 8.11 18.11 18.11 18.11z" fill="#e1d3ce"/><path d="m491.706 64.296h-473.425c-5.777 0-10.46-4.683-10.46-10.46v-35.875c0-5.777 4.683-10.46 10.46-10.46h473.425c5.777 0 10.46 4.683 10.46 10.46v35.875c0 5.777-4.683 10.46-10.46 10.46z" fill="#ffe177"/><ellipse cx="254.994" cy="467.333" fill="#ffe177" rx="35.107" ry="35.155"/><path d="m163.833 240.763 58.307 8.077c5.37.744 8.841 6.063 7.374 11.283-8.944 31.826-38.297 54.713-72.069 54.713-41.064 0-74.854-33.837-74.854-74.958 0-32.578 21.208-61.196 51.436-71.192 5.136-1.698 10.59 1.554 11.57 6.874l10.68 57.976c.697 3.786 3.743 6.699 7.556 7.227z" fill="#8ac9fe"/><path d="m182.642 199.465-9.822-58.38c-.891-5.299 3.062-10.233 8.433-10.407.806-.026 1.613-.039 2.421-.039 41.064 0 74.854 33.837 74.854 74.958 0 1.276-.033 2.552-.098 3.825-.277 5.423-5.259 9.368-10.594 8.355l-58.054-11.02c-3.671-.697-6.52-3.606-7.14-7.292z" fill="#fe646f"/><path d="m48.284 64.294h-30c-5.78 0-10.46-4.68-10.46-10.46v-35.87c0-5.78 4.68-10.46 10.46-10.46h30c-5.78 0-10.46 4.68-10.46 10.46v35.87c0 5.78 4.68 10.46 10.46 10.46z" fill="#ffc344"/></g><g><path d="m481.472 236c-4.142 0-7.5 3.358-7.5 7.5v139.61c0 5.851-4.76 10.61-10.61 10.61h-416.74c-5.85 0-10.61-4.76-10.61-10.61v-228.61c0-4.142-3.358-7.5-7.5-7.5s-7.5 3.358-7.5 7.5v228.61c0 14.122 11.488 25.61 25.61 25.61h200.87v16.632c-19.926 3.56-35.104 21.023-35.104 41.98 0 23.52 19.113 42.655 42.606 42.655s42.606-19.135 42.606-42.655c0-20.958-15.18-38.422-35.108-41.98v-16.632h200.87c14.122 0 25.61-11.489 25.61-25.61v-139.61c0-4.142-3.358-7.5-7.5-7.5zm-198.872 231.332c0 15.249-12.384 27.655-27.606 27.655s-27.606-12.406-27.606-27.655c0-15.233 12.359-27.629 27.56-27.654.015 0 .029.002.044.002s.03-.002.046-.002c15.202.024 27.562 12.42 27.562 27.654z"/><path d="m491.706 0h-473.425c-9.903 0-17.959 8.057-17.959 17.96v35.875c0 9.903 8.057 17.959 17.959 17.959h2.73v48.706c0 4.142 3.358 7.5 7.5 7.5s7.5-3.358 7.5-7.5v-48.706h437.96v137.706c0 4.142 3.358 7.5 7.5 7.5s7.5-3.358 7.5-7.5v-137.706h2.734c9.903 0 17.959-8.057 17.959-17.959v-35.875c.002-9.903-8.055-17.96-17.958-17.96zm2.96 53.834c0 1.632-1.328 2.959-2.959 2.959h-473.426c-1.632 0-2.959-1.328-2.959-2.959v-35.874c0-1.632 1.328-2.96 2.959-2.96h473.425c1.632 0 2.959 1.328 2.959 2.96v35.874z"/><path d="m376.961 110.348h-84.817c-1.896 0-3.723.719-5.111 2.011l-19.416 18.079c-3.032 2.822-3.201 7.568-.378 10.6 2.822 3.031 7.568 3.201 10.6.378l17.256-16.067h74.366v40.255c0 4.142 3.358 7.5 7.5 7.5s7.5-3.358 7.5-7.5v-47.755c0-4.143-3.357-7.501-7.5-7.501z"/><path d="m439.297 192.213h-126.034c-4.142 0-7.5 3.358-7.5 7.5s3.358 7.5 7.5 7.5h126.034c4.142 0 7.5-3.358 7.5-7.5s-3.358-7.5-7.5-7.5z"/><path d="m163.652 232.177-10.68-57.976c-.861-4.676-3.703-8.749-7.796-11.172-4.083-2.418-9.006-2.953-13.505-1.463-33.842 11.191-56.581 42.663-56.581 78.313 0 21.889 8.602 42.558 24.221 58.199 15.622 15.644 36.267 24.259 58.133 24.259 36.726 0 69.331-24.749 79.289-60.183 1.287-4.579.532-9.486-2.073-13.464-2.601-3.974-6.79-6.626-11.492-7.277l-58.307-8.078c-.611-.085-1.097-.551-1.209-1.158zm58.459 24.727c.165.252.331.664.183 1.19-8.148 28.993-34.815 49.242-64.849 49.242-37.139 0-67.354-30.262-67.354-67.458 0-29.167 18.603-54.916 46.29-64.072.157-.051.304-.073.44-.073.296 0 .54.1.712.202.259.154.589.449.688.983l10.68 57.977c1.287 6.979 6.874 12.323 13.903 13.297l58.307 8.078c.532.074.837.385 1 .634z"/><path d="m183.673 123.139c-.889 0-1.778.015-2.663.043-4.696.152-9.102 2.332-12.088 5.981-3.011 3.68-4.286 8.479-3.498 13.167l9.822 58.379c1.135 6.749 6.415 12.14 13.137 13.416l58.054 11.021c1.019.193 2.044.288 3.063.288 3.651 0 7.23-1.218 10.147-3.511 3.743-2.942 6.029-7.358 6.272-12.119.071-1.397.107-2.813.107-4.207 0-21.889-8.602-42.558-24.221-58.199-15.62-15.644-36.266-24.259-58.132-24.259zm67.267 85.901c-.028.559-.321.901-.561 1.089-.231.183-.618.38-1.144.28l-58.055-11.021c-.584-.111-1.044-.58-1.143-1.167l-9.822-58.38c-.096-.573.155-.983.314-1.177.255-.312.58-.477.968-.489.725-.024 1.45-.036 2.175-.036 37.139 0 67.354 30.262 67.354 67.458.002 1.141-.028 2.299-.086 3.443z"/><path d="m446.797 229.773c0-4.142-3.358-7.5-7.5-7.5h-126.034c-4.142 0-7.5 3.358-7.5 7.5s3.358 7.5 7.5 7.5h126.034c4.142 0 7.5-3.358 7.5-7.5z"/><path d="m313.263 252.333c-4.142 0-7.5 3.358-7.5 7.5s3.358 7.5 7.5 7.5h89.586c4.142 0 7.5-3.358 7.5-7.5s-3.358-7.5-7.5-7.5z"/></g></g></svg>