<svg id="Capa_1" enable-background="new 0 0 508.193 508.193" height="512" viewBox="0 0 508.193 508.193" width="512" xmlns="http://www.w3.org/2000/svg"><g><g><path d="m321.048 350.287-16.435 10.177c-5.048 3.126-11.673 1.568-14.799-3.48l-26.242-42.379c-3.126-5.048-1.568-11.673 3.48-14.799l16.435-10.177c5.048-3.126 11.673-1.568 14.799 3.48l26.242 42.379c3.126 5.047 1.567 11.673-3.48 14.799z" fill="#685e68"/><circle cx="219.379" cy="204.459" fill="#7a6d79" r="128.94"/><path d="m309.502 222.864c-.19.96-.41 1.91-.63 2.86-5.43 22.83-19.54 43.6-41.07 56.93-14.61 9.05-30.76 13.51-46.78 13.78-.42.01-.84.01-1.26.01-.53 0-1.07 0-1.61-.02-4.18-.05-8.34-.4-12.47-1.02-25.76-3.89-49.71-18.64-64.5-42.53-26.74-43.18-13.41-99.87 29.77-126.62 24.75-15.33 53.94-17.48 79.38-8.41.41.14.82.29 1.22.44 14.21 5.29 27.2 14.11 37.52 26.13.05.06.1.12.16.18 3.02 3.54 5.82 7.36 8.35 11.44 12.85 20.76 16.45 44.65 11.92 66.83z" fill="#8ac9fe"/><path d="m234.472 295.204c-9.6 1.6-19.32 1.63-28.79.2-25.76-3.89-49.71-18.64-64.5-42.53-26.74-43.18-13.41-99.87 29.77-126.62 19.69-12.19 42.17-16.05 63.35-12.55-11.5 1.9-22.83 6.03-33.35 12.55-43.18 26.75-56.51 83.44-29.77 126.62 14.56 23.52 37.99 38.17 63.29 42.33z" fill="#60b7ff"/><path d="m271.232 191.674 38.27 31.19c-.19.96-.41 1.91-.63 2.86-5.43 22.83-19.54 43.6-41.07 56.93-14.61 9.05-30.76 13.51-46.78 13.78-.42.01-.84.01-1.26.01-.54 0-1.08-.01-1.61-.02-4.14-.08-8.26-.43-12.34-1.04l44.33-51.42c3.61-4.19 3.06-10.5-1.21-14.01l-45.4-37.21c-4.16-3.4-4.81-9.51-1.46-13.71l48.26-61.19 2.37-3 .01-.01 24.18-30.65 16.33-20.69 29.47 24.47-31.62 53.51-1.84 3.12-20.34 34.44c-2.48 4.21-1.48 9.6 2.34 12.64z" fill="#6cf5c2"/><path d="m346.432 94.044c-3.91 1.73-21.52-8.9-37.89-20.94-16.08-11.81-30.98-25-30.52-29.18.92-8.43 70.77-39.19 77.61-34.18.15.11.29.25.43.43 6.06 7.88-2.04 80.53-9.63 83.87z" fill="#6cf5c2"/><path d="m411.85 474.533-36.48 22.59c-5.869 3.634-13.574 1.823-17.208-4.047l-73.275-118.333c-3.634-5.869-1.823-13.574 4.047-17.208l36.48-22.59c5.869-3.634 13.574-1.823 17.208 4.047l73.275 118.333c3.634 5.869 1.822 13.574-4.047 17.208z" fill="#bc7c63"/><path d="m384.892 491.234-9.52 5.89c-5.87 3.63-13.58 1.82-17.21-4.05l-73.28-118.33c-3.63-5.87-1.82-13.58 4.05-17.21l10.14-6.28c-1.6 3.64-1.43 7.97.82 11.61l75.88 122.54c2.07 3.36 5.49 5.39 9.12 5.83z" fill="#aa6a51"/><g fill="#05e39c"><path d="m311.412 78.594-4.52 5.77-24.18 30.92-.01.01-2.37 3.03-48.26 61.73c-3.35 4.23-2.7 10.4 1.46 13.83l45.4 37.53c4.27 3.55 4.82 9.91 1.21 14.14l-41.81 48.93c-5.74 1.21-11.53 1.85-17.31 1.95-.42.01-.84.01-1.26.01-.54 0-1.08-.01-1.61-.02-4.14-.08-8.26-.43-12.34-1.04l44.33-51.42c3.61-4.19 3.06-10.5-1.21-14.01l-45.4-37.21c-4.16-3.4-4.81-9.51-1.46-13.71l48.26-61.19 2.37-3 .01-.01 24.18-30.65 16.33-20.69z"/><path d="m357.912 35.434c-20.96 6.8-53.94 22.47-59.73 29.73-11.57-9.27-20.52-17.99-20.16-21.24.92-8.43 70.77-39.19 77.61-34.18.15.11.29.25.43.43 2.06 2.68 2.48 12.86 1.85 25.26z"/></g></g><g><path d="m291.504 371.622c-1.478-2.39-.74-5.534 1.649-7.011l36.743-22.753c1.153-.715 2.515-.938 3.835-.626 1.325.313 2.451 1.123 3.14 2.235l38.743 63.548c2.157 3.536 6.77 4.656 10.308 2.5 3.537-2.156 4.656-6.771 2.5-10.308l-38.773-63.596c-2.828-4.561-7.259-7.749-12.478-8.979-3.053-.719-6.157-.697-9.122-.009l-14.24-22.992c21.81-20.712 36.301-48.245 41.029-78.211 5.119-32.443-1.596-65.706-18.907-93.662-5.075-8.192-10.972-15.789-17.553-22.671l8.564-14.542c.248-.42.446-.856.604-1.299 10.205 5.901 15.678 7.32 18.862 7.32 1.848 0 2.928-.476 3.721-.825 2.94-1.295 9.825-4.326 14.584-47.891 4.761-43.58-1.308-48.027-3.9-49.926-2.592-1.899-8.661-6.345-48.773 11.319-40.115 17.665-40.932 25.144-41.281 28.337-.265 2.422-.783 7.319 14.403 20.843l-12.062 15.337c-41.197-17.601-87.957-14.184-126.253 9.534-31.196 19.315-53.002 49.621-61.402 85.334s-2.388 72.56 16.927 103.751c17.311 27.958 44.096 48.796 75.42 58.673 13.511 4.26 27.495 6.379 41.443 6.379 15.921 0 31.792-2.765 46.855-8.251l14.245 23c-5.307 6.457-6.226 15.834-1.586 23.336l19.75 31.895c1.419 2.292 3.873 3.553 6.384 3.553 1.347 0 2.711-.363 3.941-1.125 3.522-2.181 4.609-6.803 2.428-10.325zm-11.483-44.437c3.909-1.937 7.744-4.039 11.446-6.331 3.712-2.299 7.301-4.794 10.769-7.423l12.495 20.175-22.214 13.756zm38.063-300.214c15.904-7.004 27.481-10.686 32.975-11.737.652 5.556.629 17.704-1.257 34.979s-4.487 29.143-6.323 34.426c-5.137-2.213-15.647-8.307-29.664-18.579-14.018-10.272-22.995-18.457-26.652-22.689 4.485-3.343 15.018-9.397 30.921-16.4zm-13.135 51.189c3.729 2.732 7.131 5.133 10.255 7.258-.448.445-54.183 91.506-54.183 91.506-4.286 7.311-2.534 16.825 4.074 22.129l35.814 28.753c-5.864 20.286-18.853 37.445-36.938 48.641-13.047 8.078-27.979 12.426-43.143 12.726l33.894-39.431c3.041-3.543 4.493-8.055 4.089-12.704-.404-4.651-2.613-8.847-6.222-11.815l-44.716-36.764c-.926-.759-1.072-2.142-.304-3.109l89.166-113.379c2.5 1.939 5.217 3.993 8.214 6.189zm-13.414 81.094c9.726 15.709 14.009 33.731 12.481 51.81l-29.53-23.708c-.85-.683-1.075-1.906-.532-2.834l16.168-27.454c.479.723.957 1.448 1.413 2.186zm-144.756 89.63c-24.71-39.901-12.349-92.474 27.552-117.193 19.534-12.093 42.568-15.716 64.562-10.434l-43.093 54.794c-5.806 7.314-4.657 18.083 2.554 24l44.708 36.758c.599.493.769 1.103.806 1.527.037.423-.025 1.051-.524 1.634l-40.888 47.567c-23.091-4.62-43.223-18.536-55.677-38.653zm-31.654 19.598c-17.206-27.785-22.561-60.606-15.079-92.419s26.908-58.81 54.697-76.016c32.955-20.408 72.946-23.941 108.712-10.025l-14.512 18.452c-27.799-8.683-57.577-4.973-82.511 10.464-46.934 29.075-61.471 90.912-32.408 137.842 15.446 24.95 40.93 41.795 69.947 46.256.075.014.15.025.225.037.014.002.027.005.041.007 4.958.75 9.94 1.121 14.909 1.121 18.513 0 36.812-5.149 52.722-15 22.74-14.079 38.636-36.171 44.759-62.207 6.123-26.035 1.741-52.896-12.338-75.638-1.802-2.909-3.767-5.718-5.846-8.419l11.986-20.353c4.705 5.281 8.982 10.989 12.75 17.071 31.863 51.453 21.797 117.455-23.938 156.942-4.862 4.205-10.134 8.075-15.67 11.503-5.513 3.414-11.329 6.41-17.288 8.905-55.727 23.345-119.298 2.936-151.158-48.523z"/><path d="m423.443 454.786-15.973-25.802c-2.179-3.521-6.801-4.61-10.325-2.429-3.522 2.18-4.609 6.803-2.429 10.325l15.976 25.807c1.476 2.381.732 5.524-1.654 7.003l-36.735 22.748c-1.156.714-2.522.937-3.844.627-1.321-.311-2.441-1.118-3.146-2.258l-35.319-57.385c-2.171-3.527-6.79-4.628-10.318-2.456-3.527 2.171-4.627 6.791-2.456 10.318l35.327 57.398c3.793 6.133 10.375 9.511 17.109 9.511 3.605 0 7.254-.968 10.541-3l36.743-22.753c9.418-5.841 12.335-18.249 6.503-27.654z"/></g></g></svg>