<svg id="Capa_1" enable-background="new 0 0 507.204 507.204" height="512" viewBox="0 0 507.204 507.204" width="512" xmlns="http://www.w3.org/2000/svg"><g><g><path d="m398.851 375.465 36.318 19.428 19.184-48.923-78.37-145.752c-3.26-6.051-10.53-9.019-17.31-7.053l-115.58 33.456c-6.89 1.985-14.26-1.098-17.44-7.314l-5.85-11.438-10.57-20.65-80.62-157.518c-2.25-4.394-6.7-7.362-11.76-7.844l-95.06-9.038c-12.11-1.156-20.36 11.553-13.99 21.546l110.67 173.504 26.29 41.213 23.8 37.32 7.28 11.409c3.54 5.55 10.54 8.065 16.98 6.1l30.82-9.395 96.44-29.409c6.61-2.024 13.79.684 17.23 6.485l61.54 103.875" fill="#fe646f"/><path d="m487.833 481.875c-.01.01-.03.02-.04.03-5.03 2.85-25.9-5.92-49.21-18.43-35.3-18.95-76.18-46.47-76.11-55.23.05-6.96 26.19-25.39 54.79-41.89.28-.17.57-.33.86-.5 30.87-17.75 64.33-33.1 70.8-29.3 12.52 7.35 11.51 137.91-1.09 145.32z" fill="#fe646f"/><path d="m419.511 364.485-20.66 10.98-61.54-103.87c-3.44-5.81-10.62-8.51-17.23-6.49l-96.44 29.41-30.82 9.39c-6.44 1.97-13.44-.54-16.98-6.1l-7.28-11.4-23.8-37.32-26.29-41.22-110.67-173.5c-6.37-9.99 1.88-22.7 13.99-21.55l2.07.2 106.81 167.45 26.29 41.21 23.8 37.32 7.28 11.41c3.54 5.55 10.54 8.06 16.98 6.1l30.82-9.4 96.44-29.41c6.61-2.02 13.79.69 17.23 6.49l61.54 103.87z" fill="#fd4755"/><path d="m41.962 366.085h209.12v89h-209.12z" fill="#7a6d79"/><path d="m251.082 241.375v78.71h-209.12v-78.71c0-.767.03-1.534.1-2.29h208.92c.06.756.1 1.523.1 2.29z" fill="#7a6d79"/><g fill="#685e68"><path d="m267.792 325.052v37.76c0 4.76-3.86 8.62-8.62 8.62h-224.76c-4.76 0-8.62-3.86-8.62-8.62v-37.76c0-4.76 3.86-8.62 8.62-8.62h224.76c4.76 0 8.62 3.86 8.62 8.62z"/><path d="m267.792 459.052v33.76c0 4.76-3.86 8.62-8.62 8.62h-224.76c-4.76 0-8.62-3.86-8.62-8.62v-33.76c0-4.76 3.86-8.62 8.62-8.62h224.76c4.76 0 8.62 3.86 8.62 8.62z"/><path d="m267.792 198.052v34.76c0 4.76-3.86 8.62-8.62 8.62h-224.76c-4.76 0-8.62-3.86-8.62-8.62v-34.76c0-4.76 3.86-8.62 8.62-8.62h224.76c4.76 0 8.62 3.86 8.62 8.62z"/><path d="m72.061 239.085c-.07.76-.1 1.52-.1 2.29v78.71h-30v-78.71c0-.77.03-1.53.1-2.29z"/><path d="m41.961 366.085h30v89h-30z"/></g><path d="m64.411 241.435h-30c-4.76 0-8.62-3.86-8.62-8.62v-34.76c0-4.76 3.86-8.62 8.62-8.62h30c-4.76 0-8.62 3.86-8.62 8.62v34.76c0 4.76 3.86 8.62 8.62 8.62z" fill="#554e56"/><path d="m64.411 371.435h-30c-4.76 0-8.62-3.86-8.62-8.62v-37.76c0-4.76 3.86-8.62 8.62-8.62h30c-4.76 0-8.62 3.86-8.62 8.62v37.76c0 4.76 3.86 8.62 8.62 8.62z" fill="#554e56"/><path d="m64.411 501.435h-30c-4.76 0-8.62-3.86-8.62-8.62v-33.76c0-4.76 3.86-8.62 8.62-8.62h30c-4.76 0-8.62 3.86-8.62 8.62v33.76c0 4.76 3.86 8.62 8.62 8.62z" fill="#554e56"/><path d="m495.331 454.895c-1.67 14.54-4.18 25.03-7.5 26.98-.01.01-.03.02-.04.03-5.03 2.85-25.9-5.92-49.21-18.43-35.3-18.95-76.18-46.47-76.11-55.23.03-3.66 7.26-10.48 18.27-18.54 12.67 12.29 42.99 31.84 70.04 46.36 18.76 10.07 35.94 17.71 44.55 18.83z" fill="#fd4755"/></g><path d="m505.156 357.191c-2.357-21.527-5.92-27.748-10.543-30.466 0 0 0 0-.001 0-4.623-2.719-11.793-2.804-31.745 5.607-.961.405-1.948.831-2.946 1.268l-75.444-140.309c-4.927-9.144-15.864-13.641-25.997-10.696l-82.562 23.894v-9.237c0-10.048-8.175-18.223-18.224-18.223h-144.678l-96.999-152.062c-1.913-3-.685-5.67-.068-6.678 1.462-2.391 4.086-3.653 7.024-3.374l95.062 9.04c2.494.237 4.713 1.692 5.802 3.822l67.91 131.65c1.899 3.681 6.423 5.125 10.104 3.227 3.681-1.899 5.126-6.423 3.227-10.104l-67.897-131.626c-3.439-6.726-10.067-11.175-17.728-11.902l-95.061-9.04c-8.652-.822-16.783 3.195-21.239 10.48-4.281 6.999-4.197 15.646.217 22.57l91.853 143.997h-55.545c-10.048 0-18.224 8.175-18.224 18.223v28.851c0 9.005 6.573 16.486 15.168 17.947v64.285c-8.597 1.458-15.17 8.938-15.17 17.943v28.85c0 9.005 6.573 16.485 15.17 17.943v15.017c0 4.142 3.358 7.5 7.5 7.5s7.5-3.358 7.5-7.5v-14.74h194.12v66.681h-194.119v-17.94c0-4.142-3.358-7.5-7.5-7.5s-7.5 3.358-7.5 7.5v18.218c-8.596 1.46-15.168 8.941-15.168 17.946v28.851c0 10.048 8.175 18.224 18.224 18.224h218.015c10.049 0 18.224-8.175 18.224-18.224v-28.851c0-9.007-6.575-16.489-15.174-17.947v-67.233c8.597-1.458 15.17-8.938 15.17-17.943v-28.85c0-9.005-6.573-16.485-15.17-17.943v-20.083l63.421-19.341c3.305-1.007 6.911.312 8.587 3.141l58.72 99.109c-4.949 3.24-9.498 6.374-13.504 9.311-17.458 12.802-21.063 18.996-21.105 24.358-.042 5.363 3.467 11.614 20.728 24.688 10.63 8.052 25.137 17.573 40.85 26.808 15.712 9.235 31.086 17.278 43.29 22.647 12.803 5.633 20.325 7.637 25.305 7.637 2.729 0 4.693-.602 6.345-1.538 4.665-2.645 8.323-8.808 11.016-30.288 1.658-13.228 2.649-30.548 2.792-48.77.139-18.228-.582-35.567-2.033-48.825zm-468.701-159.939c0-1.777 1.446-3.223 3.224-3.223h218.015c1.777 0 3.224 1.446 3.224 3.223v19.006c-.002.065 0 .13 0 .195v9.65c0 1.777-1.446 3.224-3.224 3.224h-218.016c-1.777 0-3.224-1.446-3.224-3.224v-28.851zm224.462 289.851c0 1.777-1.446 3.224-3.224 3.224h-218.015c-1.777 0-3.224-1.446-3.224-3.224v-28.851c0-1.777 1.446-3.223 3.224-3.223h218.015c1.777 0 3.224 1.446 3.224 3.223zm-.004-131.974c0 1.775-1.444 3.22-3.22 3.22h-218.019c-1.775 0-3.22-1.444-3.22-3.22v-28.85c0-1.775 1.445-3.22 3.22-3.22h32.03c4.142 0 7.5-3.358 7.5-7.5s-3.358-7.5-7.5-7.5h-20.08v-63.732h194.12v63.732h-140.04c-4.142 0-7.5 3.358-7.5 7.5s3.358 7.5 7.5 7.5h151.99c1.775 0 3.22 1.444 3.22 3.22v28.85zm84.743-90.721c-5.24-8.849-15.882-12.896-25.871-9.843l-59.042 18.005v-28.52c8.599-1.458 15.174-8.94 15.174-17.947v-3.999l86.739-25.104c3.396-.986 7.019.444 8.611 3.399l75.033 139.544c-8.515 4.181-17.732 9.063-27.079 14.363-5.181 2.938-10.229 5.907-15.059 8.85zm146.53 141.477c-.285 36.712-3.758 59.319-6.49 65.639-6.827-.901-28.011-9.529-59.659-28.131-31.65-18.604-49.492-32.915-53.6-38.441 4.192-5.461 22.256-19.493 54.192-37.601 31.937-18.108 53.251-26.404 60.09-27.198 2.634 6.362 5.753 29.02 5.467 65.732z"/></g></svg>