<svg id="Capa_1" enable-background="new 0 0 510.272 510.272" height="512" viewBox="0 0 510.272 510.272" width="512" xmlns="http://www.w3.org/2000/svg"><g><g><path d="m443.445 430.635h-420.868c-8.531 0-15.447-6.916-15.447-15.447v-222.902c0-8.531 6.916-15.447 15.447-15.447h420.868c8.531 0 15.447 6.916 15.447 15.447v222.902c-.001 8.531-6.916 15.447-15.447 15.447z" fill="#f9f3f1"/><path d="m479.65 100.635-29.49 111.19-17.36 65.46-5.77 21.77c-2.14 8.04-10.82 12.7-19.39 10.41l-6.47-1.72c-8.58-2.29-13.8-10.66-11.67-18.69l5.7-21.51 17.37-65.46 29.56-111.46c2.13-8.04 10.81-12.7 19.38-10.41l6.47 1.73c8.58 2.28 13.81 10.65 11.67 18.69z" fill="#8ac9fe"/><path d="m311.668 249.071h-258.727c-6.298 0-11.404-5.106-11.404-11.404v-21.933c0-6.298 5.106-11.404 11.404-11.404h258.727c6.298 0 11.404 5.106 11.404 11.404v21.933c0 6.298-5.106 11.404-11.404 11.404z" fill="#fe646f"/><path d="m450.16 211.825-17.36 65.46-37.6-9.74 17.37-65.46z" fill="#fe646f"/><path d="m52.58 430.635h-30c-8.53 0-15.45-6.92-15.45-15.45v-222.9c0-8.53 6.92-15.45 15.45-15.45h30c-8.53 0-15.45 6.92-15.45 15.45v222.9c0 8.53 6.92 15.45 15.45 15.45z" fill="#e1d3ce"/></g><g><path d="m41.942 324.242h202.43c4.143 0 7.5-3.358 7.5-7.5s-3.357-7.5-7.5-7.5h-202.43c-4.143 0-7.5 3.358-7.5 7.5s3.358 7.5 7.5 7.5z"/><path d="m224.234 393.193c1.861 6.389 3.785 12.997 10.386 12.997 3.567 0 5.996 0 34.363-33.116 8.374 9.433 23.45 23.764 37.763 23.762.78 0 1.562-.043 2.337-.131 8.547-.977 15.441-6.706 21.525-11.76 11.14-9.256 13.138-9.153 17.544-4.62 16.464 16.934 36.541 11.185 44.854 5.779 3.474-2.258 4.484-6.919 2.227-10.392-2.257-3.474-6.879-4.474-10.351-2.217-1.429.895-14.288 8.396-25.976-3.626-8.27-8.507-16.479-8.295-21.911-6.618-5.966 1.842-11.054 6.069-15.974 10.157-4.689 3.896-9.539 7.925-13.643 8.394-8.344.96-24.237-14.316-32.348-24.934-1.377-1.807-3.499-2.893-5.77-2.952-2.266-.055-4.447.914-5.916 2.646-8.816 10.395-19.006 21.991-25.648 29.097-2.462-9.24-5.81-24.022-8.47-37.069-.67-3.285-3.438-5.727-6.781-5.98-3.363-.26-6.448 1.744-7.606 4.889l-18.402 50.018c-1.43 3.888.563 8.198 4.449 9.628.854.314 1.729.463 2.589.463 3.054 0 5.924-1.879 7.04-4.912l9.53-25.905c1.609 6.86 3.017 12.376 4.189 16.402z"/><path d="m41.942 290.504h202.43c4.143 0 7.5-3.358 7.5-7.5s-3.357-7.5-7.5-7.5h-202.43c-4.143 0-7.5 3.358-7.5 7.5s3.358 7.5 7.5 7.5z"/><path d="m53.347 257.081h259.052c10.424 0 18.904-8.48 18.904-18.904v-21.861c0-10.424-8.48-18.904-18.904-18.904h-259.052c-10.424 0-18.904 8.48-18.904 18.904v21.861c-.001 10.423 8.48 18.904 18.904 18.904zm-3.905-40.766c0-2.153 1.752-3.904 3.904-3.904h259.052c2.153 0 3.904 1.751 3.904 3.904v21.861c0 2.153-1.751 3.904-3.904 3.904h-259.051c-2.152 0-3.904-1.751-3.904-3.904v-21.861z"/><path d="m459.78 389.135c-4.143 0-7.5 3.358-7.5 7.5v17.77c0 4.384-3.566 7.95-7.95 7.95h-222.7c-4.143 0-7.5 3.358-7.5 7.5s3.357 7.5 7.5 7.5h222.7c12.655 0 22.95-10.295 22.95-22.95v-17.77c0-4.142-3.357-7.5-7.5-7.5z"/><path d="m505.005 128.44c-4.546-7.261-11.51-12.665-19.775-15.422l2.583-9.712c1.572-5.909.608-12.085-2.713-17.39-3.22-5.141-8.295-8.851-14.291-10.446l-6.478-1.723c-12.572-3.343-25.394 3.706-28.587 15.71l-21.146 79.507h-391.659c-12.648.001-22.939 10.296-22.939 22.951v222.49c0 12.655 10.291 22.95 22.939 22.95h164.69c4.143 0 7.5-3.358 7.5-7.5s-3.357-7.5-7.5-7.5h-164.69c-4.378 0-7.939-3.566-7.939-7.95v-222.49c0-4.383 3.562-7.95 7.939-7.95h387.67l-5.323 20.017c-.005.018-.012.035-.017.053s-.007.036-.012.055l-15.38 57.827c-.004.014-.01.027-.013.041s-.005.028-.009.042l-6.801 25.57c-2.755 10.362 2.554 21.076 12.138 25.967l-5.376 20.211c-1.064 4.003 1.317 8.111 5.32 9.176.646.172 1.294.254 1.933.254 3.316 0 6.351-2.217 7.243-5.574l5.284-19.865c1.101.15 2.203.228 3.301.228 3.913 0 7.762-.946 11.231-2.804 5.518-2.954 9.422-7.835 10.993-13.745l6.808-25.598c.001-.004.003-.008.005-.013.002-.007.003-.015.005-.022l10.34-38.878v125.729c0 4.142 3.357 7.5 7.5 7.5s7.5-3.358 7.5-7.5v-170.72c0-2.453-.384-4.842-1.136-7.135l15.218-57.218c4.574 1.731 8.403 4.803 10.925 8.831 2.84 4.548 3.684 9.76 2.376 14.677l-12.357 46.461c-1.064 4.003 1.317 8.111 5.32 9.176.646.172 1.294.254 1.933.254 3.316 0 6.351-2.217 7.243-5.574l12.357-46.461c2.385-8.971.912-18.374-4.153-26.487zm-84.378 169.122c-.492 1.85-1.762 3.403-3.576 4.375-1.982 1.062-4.349 1.31-6.658.695l-6.478-1.723c-4.576-1.217-7.431-5.472-6.364-9.485l4.884-18.363 23.076 6.138zm8.739-32.859-23.076-6.137 11.55-43.426 23.076 6.137zm15.405-57.923-23.076-6.137 28.545-107.329c.872-3.28 4.099-5.398 7.747-5.398.815 0 1.652.106 2.488.328l6.478 1.723c2.309.614 4.238 2.003 5.433 3.91 1.093 1.745 1.423 3.724.931 5.574z"/></g></g></svg>