<svg id="Capa_1" enable-background="new 0 0 507.42 507.42" height="512" viewBox="0 0 507.42 507.42" width="512" xmlns="http://www.w3.org/2000/svg"><g><g><path d="m448.783 454.287h-390.146c-10.153 0-18.383-8.23-18.383-18.383v-298.211c0-10.153 8.23-18.383 18.383-18.383h390.145c10.153 0 18.383 8.23 18.383 18.383v298.211c.001 10.153-8.23 18.383-18.382 18.383z" fill="#8ac9fe"/><path d="m88.64 454.29h-30c-10.16 0-18.39-8.23-18.39-18.39v-298.21c0-10.15 8.23-18.38 18.39-18.38h30c-10.16 0-18.39 8.23-18.39 18.38v298.21c0 10.16 8.23 18.39 18.39 18.39z" fill="#60b7ff"/><path d="m473.37 491.272h-439.32c-14.665 0-26.553-11.888-26.553-26.553v-2.899c0-14.665 11.888-26.553 26.553-26.553h439.32c14.665 0 26.553 11.888 26.553 26.553v2.899c.001 14.665-11.888 26.553-26.553 26.553z" fill="#685e68"/><path d="m364.71 326.71-221.91.77v-288.19c0-6.03 7.02-9.35 11.68-5.51l18.32 15.08.51.42 8.73 7.18c.75.62 1.58 1.06 2.46 1.32 2.82.86 6.03-.1 7.87-2.67l25.84-35.99c2.65-3.68 8.02-4 11.07-.65l28.19 30.89c2.93 3.21 8.01 3.08 10.78-.26l20.41-24.67c2.93-3.55 8.4-3.43 11.18.23l17.3 22.77c2.45 3.23 7.11 3.77 10.24 1.17l25.55-21.18c4.65-3.86 11.69-.55 11.69 5.49z" fill="#f9f3f1"/><path d="m64.05 491.27h-30c-14.67 0-26.55-11.89-26.55-26.55v-2.9c0-14.67 11.88-26.55 26.55-26.55h30c-14.67 0-26.55 11.88-26.55 26.55v2.9c0 14.66 11.88 26.55 26.55 26.55z" fill="#554e56"/><path d="m172.8 48.86v278.52l-30 .1v-288.19c0-6.03 7.02-9.35 11.68-5.51z" fill="#e1d3ce"/></g><g><path d="m474.69 427.804v-291.183c0-14.271-11.614-25.88-25.89-25.88h-76.679v-77.828c0-5.733-3.224-10.81-8.413-13.248-5.188-2.438-11.155-1.68-15.569 1.979l-25.261 20.946-17.066-22.467c-2.72-3.581-6.857-5.688-11.352-5.781-4.497-.083-8.717 1.84-11.583 5.305l-20.147 24.353-27.911-30.58c-2.989-3.275-7.24-5.007-11.669-4.745-4.426.259-8.448 2.474-11.034 6.076l-25.615 35.676-27.261-22.438c-4.419-3.636-10.377-4.378-15.552-1.936-5.175 2.443-8.389 7.515-8.389 13.237v71.45h-76.639c-14.271 0-25.88 11.61-25.88 25.88v39.59c0 4.142 3.358 7.5 7.5 7.5s7.5-3.358 7.5-7.5v-39.59c0-6 4.881-10.88 10.88-10.88h76.639v196.09h-4.793c-4.142 0-7.5 3.358-7.5 7.5s3.358 7.5 7.5 7.5h246.408c4.142 0 7.5-3.358 7.5-7.5s-3.358-7.5-7.5-7.5h-4.793v-196.09h76.679c6.005 0 10.89 4.881 10.89 10.88v291.15h-411.91v-217.56c0-4.142-3.358-7.5-7.5-7.5s-7.5 3.358-7.5 7.5v217.592c-18.188.672-32.78 15.67-32.78 34.019v2.9c0 18.775 15.275 34.05 34.05 34.05h339.66c4.142 0 7.5-3.358 7.5-7.5s-3.358-7.5-7.5-7.5h-339.66c-10.504 0-19.05-8.546-19.05-19.05v-2.9c0-10.504 8.546-19.05 19.05-19.05h439.32c10.504 0 19.05 8.546 19.05 19.05v2.9c0 10.504-8.546 19.05-19.05 19.05h-65.66c-4.142 0-7.5 3.358-7.5 7.5s3.358 7.5 7.5 7.5h65.66c18.775 0 34.05-15.275 34.05-34.05v-2.9c0-18.333-14.565-33.32-32.73-34.017zm-324.391-105.973v-281.774l26.967 22.197c3.115 2.564 7.195 3.733 11.196 3.214 4.001-.522 7.645-2.701 9.998-5.979l25.581-35.627 27.89 30.557c2.858 3.131 6.91 4.861 11.168 4.766 4.239-.103 8.22-2.036 10.923-5.303l20.121-24.322 17.02 22.405c2.401 3.162 6.041 5.234 9.985 5.688 3.94.451 7.958-.74 11.015-3.274l24.958-20.695v288.147z"/><path d="m310.244 242.806h-113.068c-4.142 0-7.5 3.358-7.5 7.5s3.358 7.5 7.5 7.5h113.068c4.142 0 7.5-3.358 7.5-7.5s-3.358-7.5-7.5-7.5z"/><path d="m310.244 278.507h-113.068c-4.142 0-7.5 3.358-7.5 7.5s3.358 7.5 7.5 7.5h113.068c4.142 0 7.5-3.358 7.5-7.5s-3.358-7.5-7.5-7.5z"/><path d="m211.861 208.87c1.268.83 2.692 1.227 4.102 1.227 2.445 0 4.842-1.194 6.281-3.392l71.727-109.536c2.269-3.465 1.299-8.114-2.166-10.383-3.466-2.27-8.114-1.3-10.383 2.166l-71.727 109.536c-2.268 3.464-1.299 8.113 2.166 10.382z"/><path d="m215.229 125.767c14.56 0 26.404-11.845 26.404-26.405s-11.845-26.405-26.404-26.405-26.405 11.845-26.405 26.405 11.845 26.405 26.405 26.405zm0-37.81c6.289 0 11.404 5.116 11.404 11.405s-5.116 11.405-11.404 11.405-11.405-5.116-11.405-11.405 5.116-11.405 11.405-11.405z"/><path d="m292.191 169.612c-14.56 0-26.404 11.845-26.404 26.404s11.845 26.405 26.404 26.405 26.405-11.845 26.405-26.405-11.846-26.404-26.405-26.404zm0 37.809c-6.289 0-11.404-5.116-11.404-11.405s5.116-11.404 11.404-11.404 11.405 5.116 11.405 11.404-5.117 11.405-11.405 11.405z"/></g></g></svg>