<svg id="Capa_1" enable-background="new 0 0 504.471 504.471" height="512" viewBox="0 0 504.471 504.471" width="512" xmlns="http://www.w3.org/2000/svg"><g><g><path d="m484 320.084-157.49 37.28-1.93.46-29.31 6.94-.03-130.02-.02-81.98 29.31-6.57v.17l31.25-7.01 88.76-19.91c8.03-.63 15.47 4.98 17.23 13.42l3.65 17.47 9.6 45.93 21.59 103.26c1.93 9.28-3.72 18.49-12.61 20.56z" fill="#8ac9fe"/><path d="m246.592 497.73h-194.835c-24.439 0-44.25-19.811-44.25-44.25v-303.123c0-24.439 19.811-44.25 44.25-44.25h194.835c24.439 0 44.25 19.811 44.25 44.25v303.123c0 24.439-19.812 44.25-44.25 44.25z" fill="#7a6d79"/><path d="m242.38 251.032h-187.096c-5.598 0-10.136-4.538-10.136-10.136v-44.196c0-5.598 4.538-10.136 10.136-10.136h187.096c5.598 0 10.136 4.538 10.136 10.136v44.196c0 5.598-4.538 10.136-10.136 10.136z" fill="#8ac9fe"/><path d="m211.24 141.234-125.31.14v-114.6c0-5.36 6.64-7.87 10.19-3.85l11.74 13.32c2.259 2.574 6.311 2.559 8.64.1l23.74-25.73c2.38-2.58 6.49-2.48 8.74.21l20.55 24.59c2.18 2.6 6.11 2.8 8.54.43l22.55-22.02c3.68-3.59 9.87-1 9.89 4.14z" fill="#f9f3f1"/><g fill="#433f43"><path d="m84.449 329.011h-30.695c-5.131 0-9.29-4.159-9.29-9.29v-18.553c0-5.131 4.159-9.29 9.29-9.29h30.695c5.131 0 9.29 4.159 9.29 9.29v18.553c0 5.13-4.159 9.29-9.29 9.29z"/><path d="m243.429 329.011h-30.695c-5.131 0-9.29-4.159-9.29-9.29v-18.553c0-5.131 4.159-9.29 9.29-9.29h30.695c5.131 0 9.29 4.159 9.29 9.29v18.553c0 5.13-4.159 9.29-9.29 9.29z"/><path d="m163.939 329.011h-30.695c-5.131 0-9.29-4.159-9.29-9.29v-18.553c0-5.131 4.159-9.29 9.29-9.29h30.695c5.131 0 9.29 4.159 9.29 9.29v18.553c0 5.13-4.159 9.29-9.29 9.29z"/><path d="m85.456 396.359h-30.695c-5.131 0-9.29-4.159-9.29-9.29v-18.553c0-5.131 4.159-9.29 9.29-9.29h30.695c5.131 0 9.29 4.159 9.29 9.29v18.553c0 5.13-4.159 9.29-9.29 9.29z"/></g><path d="m244.595 462.48h-30.695c-5.131 0-9.29-4.159-9.29-9.29v-80.119c0-5.131 4.159-9.29 9.29-9.29h30.695c5.131 0 9.29 4.159 9.29 9.29v80.119c0 5.131-4.159 9.29-9.29 9.29z" fill="#fe646f"/><path d="m165.529 396.359h-30.695c-5.131 0-9.29-4.159-9.29-9.29v-18.553c0-5.131 4.159-9.29 9.29-9.29h30.695c5.131 0 9.29 4.159 9.29 9.29v18.553c0 5.13-4.159 9.29-9.29 9.29z" fill="#433f43"/><path d="m84.449 463.707h-30.695c-5.131 0-9.29-4.159-9.29-9.29v-18.553c0-5.131 4.159-9.29 9.29-9.29h30.695c5.131 0 9.29 4.159 9.29 9.29v18.553c0 5.13-4.159 9.29-9.29 9.29z" fill="#433f43"/><path d="m164.522 463.707h-30.695c-5.131 0-9.29-4.159-9.29-9.29v-18.553c0-5.131 4.159-9.29 9.29-9.29h30.695c5.131 0 9.29 4.159 9.29 9.29v18.553c0 5.13-4.159 9.29-9.29 9.29z" fill="#433f43"/><path d="m474.13 196.284-149.58 32.15-1.33.29-27.98 6.02v-48.02l27.98-6.02 1.32-.28 139.85-30.07z" fill="#f9f3f1"/><path d="m81.76 497.734h-30c-24.44 0-44.25-19.82-44.25-44.25v-303.13c0-24.44 19.81-44.25 44.25-44.25h30c-24.44 0-44.25 19.81-44.25 44.25v303.13c0 24.43 19.81 44.25 44.25 44.25z" fill="#685e68"/><path d="m324.58 357.824-29.31 6.94-.03-130.02-.02-81.98 29.31-6.57v1.02l.01 33.21-9.3 23.81 9.31 24.2z" fill="#60b7ff"/><path d="m85.28 251.034h-30c-5.59 0-10.13-4.54-10.13-10.14v-44.19c0-5.6 4.54-10.14 10.13-10.14h30c-5.59 0-10.13 4.54-10.13 10.14v44.19c0 5.6 4.54 10.14 10.13 10.14z" fill="#60b7ff"/><path d="m115.93 36.874v104.47l-30 .03v-114.6c0-5.36 6.64-7.87 10.19-3.85l11.74 13.32c2.043 2.327 5.69 2.613 8.07.63z" fill="#e1d3ce"/><path d="m324.55 228.434-1.33.29-27.98 6.02v-48.02l29.3-6.3z" fill="#e1d3ce"/></g><g><path d="m260.014 240.894v-44.196c0-9.725-7.911-17.636-17.636-17.636h-187.097c-9.725 0-17.636 7.912-17.636 17.636v44.196c0 9.725 7.911 17.636 17.636 17.636h187.097c9.725 0 17.636-7.911 17.636-17.636zm-207.368 0v-44.196c0-1.454 1.183-2.636 2.636-2.636h187.097c1.453 0 2.636 1.183 2.636 2.636v44.196c0 1.453-1.183 2.636-2.636 2.636h-187.098c-1.453 0-2.635-1.183-2.635-2.636z"/><path d="m503.909 297.951-36.229-166.664c-1.397-6.451-5.223-11.96-10.773-15.514-5.553-3.555-12.162-4.724-18.548-3.305l-140.379 29.888c-2.988-25.713-24.888-45.742-51.39-45.742h-28.229l-.356-78.688c-.024-5.359-3.234-10.159-8.177-12.228-4.944-2.068-10.615-.987-14.45 2.756l-21.256 20.751-19.39-23.192c-2.458-2.94-6.064-4.679-9.895-4.773-3.826-.082-7.519 1.468-10.117 4.286l-22.472 24.362-10.51-11.923c-3.698-4.195-9.47-5.63-14.702-3.653s-8.613 6.869-8.613 12.462v69.84h-26.673c-28.535 0-51.75 23.215-51.75 51.75v70.37c0 4.142 3.358 7.5 7.5 7.5s7.5-3.358 7.5-7.5v-70.37c0-20.264 16.486-36.75 36.75-36.75h26.674v28.128h-9.086c-4.142 0-7.5 3.358-7.5 7.5s3.358 7.5 7.5 7.5h164.35c4.142 0 7.5-3.358 7.5-7.5s-3.358-7.5-7.5-7.5h-15.132l-.127-28.128h28.162c20.264 0 36.75 16.486 36.75 36.75v303.12c0 20.264-16.486 36.75-36.75 36.75h-38.85c-4.142 0-7.5 3.358-7.5 7.5s3.358 7.5 7.5 7.5h38.85c28.535 0 51.75-23.215 51.75-51.75v-81.946c.273-.031 186.746-42.125 186.746-42.125 13.255-2.962 21.7-16.177 18.822-29.462zm-410.485-158.208v-108.527l8.803 9.986c2.49 2.825 6.077 4.47 9.843 4.512 3.75.026 7.39-1.521 9.942-4.289l22.439-24.326 19.327 23.117c2.373 2.838 5.852 4.573 9.547 4.76 3.698.191 7.332-1.188 9.979-3.772l19.72-19.251.532 117.789h-110.132zm204.916 53.133 160.474-31.755 6.823 31.389-167.297 33.095zm143.207-65.751c2.523-.559 5.106-.106 7.272 1.281 2.163 1.385 3.655 3.535 4.202 6.061l2.607 11.993-157.288 31.125v-19.969zm40.251 185.653-183.458 41.43v-113.312l170.484-33.726 20.425 93.962c1.138 5.249-2.198 10.472-7.451 11.646z"/><path d="m36.961 319.718c0 9.258 7.532 16.791 16.791 16.791h30.695c9.258 0 16.791-7.532 16.791-16.791v-18.553c0-9.258-7.532-16.79-16.791-16.79h-30.696c-9.258 0-16.791 7.532-16.791 16.79v18.553zm15-18.553c0-.987.803-1.79 1.791-1.79h30.695c.987 0 1.791.803 1.791 1.79v18.553c0 .987-.803 1.791-1.791 1.791h-30.696c-.987 0-1.791-.803-1.791-1.791v-18.553z"/><path d="m212.731 336.509h30.695c9.258 0 16.79-7.532 16.79-16.791v-18.553c0-9.258-7.532-16.79-16.79-16.79h-30.695c-9.258 0-16.79 7.532-16.79 16.79v18.553c0 9.259 7.532 16.791 16.79 16.791zm-1.79-35.344c0-.987.803-1.79 1.79-1.79h30.695c.987 0 1.79.803 1.79 1.79v18.553c0 .987-.803 1.791-1.79 1.791h-30.695c-.987 0-1.79-.803-1.79-1.791z"/><path d="m133.241 284.375c-9.258 0-16.791 7.532-16.791 16.79v18.553c0 9.258 7.532 16.791 16.791 16.791h30.695c9.258 0 16.79-7.532 16.79-16.791v-18.553c0-9.258-7.532-16.79-16.79-16.79zm32.486 16.79v18.553c0 .987-.803 1.791-1.79 1.791h-30.695c-.987 0-1.791-.803-1.791-1.791v-18.553c0-.987.803-1.79 1.791-1.79h30.695c.986 0 1.79.803 1.79 1.79z"/><path d="m85.454 351.723h-30.696c-9.258 0-16.79 7.532-16.79 16.791v18.553c0 9.258 7.532 16.79 16.79 16.79h30.695c9.258 0 16.79-7.532 16.79-16.79v-18.553c.001-9.259-7.531-16.791-16.789-16.791zm1.79 35.343c0 .987-.803 1.79-1.79 1.79h-30.696c-.987 0-1.79-.803-1.79-1.79v-18.553c0-.987.803-1.791 1.79-1.791h30.695c.987 0 1.79.803 1.79 1.791v18.553z"/><path d="m213.897 469.978h30.695c9.258 0 16.79-7.532 16.79-16.79v-80.12c0-9.258-7.532-16.79-16.79-16.79h-30.695c-9.258 0-16.79 7.532-16.79 16.79v80.12c0 9.258 7.532 16.79 16.79 16.79zm-1.79-96.91c0-.987.803-1.79 1.79-1.79h30.695c.987 0 1.79.803 1.79 1.79v80.12c0 .987-.803 1.79-1.79 1.79h-30.695c-.987 0-1.79-.803-1.79-1.79z"/><path d="m165.526 351.723h-30.695c-9.258 0-16.791 7.532-16.791 16.791v18.553c0 9.258 7.532 16.79 16.791 16.79h30.695c9.258 0 16.791-7.532 16.791-16.79v-18.553c0-9.259-7.532-16.791-16.791-16.791zm1.791 35.343c0 .987-.803 1.79-1.791 1.79h-30.695c-.987 0-1.791-.803-1.791-1.79v-18.553c0-.987.803-1.791 1.791-1.791h30.695c.987 0 1.791.803 1.791 1.791z"/><path d="m36.961 454.414c0 9.258 7.532 16.791 16.791 16.791h30.695c9.258 0 16.791-7.532 16.791-16.791v-18.553c0-9.258-7.532-16.791-16.791-16.791h-30.696c-9.258 0-16.791 7.532-16.791 16.791v18.553zm15-18.553c0-.987.803-1.791 1.791-1.791h30.695c.987 0 1.791.803 1.791 1.791v18.553c0 .987-.803 1.791-1.791 1.791h-30.696c-.987 0-1.791-.803-1.791-1.791v-18.553z"/><path d="m164.519 419.071h-30.695c-9.258 0-16.791 7.532-16.791 16.791v18.553c0 9.258 7.532 16.791 16.791 16.791h30.695c9.258 0 16.791-7.532 16.791-16.791v-18.553c0-9.259-7.533-16.791-16.791-16.791zm1.791 35.343c0 .987-.803 1.791-1.791 1.791h-30.695c-.987 0-1.791-.803-1.791-1.791v-18.553c0-.987.803-1.791 1.791-1.791h30.695c.987 0 1.791.803 1.791 1.791z"/><path d="m173.74 488.234h-121.99c-20.264 0-36.75-16.486-36.75-36.75v-198.75c0-4.142-3.358-7.5-7.5-7.5s-7.5 3.358-7.5 7.5v198.75c0 28.535 23.215 51.75 51.75 51.75h121.99c4.142 0 7.5-3.358 7.5-7.5s-3.358-7.5-7.5-7.5z"/></g></g></svg>