<svg id="Capa_1" enable-background="new 0 0 506.042 506.042" height="512" viewBox="0 0 506.042 506.042" width="512" xmlns="http://www.w3.org/2000/svg"><g><g><path d="m392.009 498.543h-277.976c-16.016 0-29-12.984-29-29v-308.99c0-16.016 12.984-29 29-29h277.976c16.016 0 29 12.984 29 29v308.99c0 16.016-12.984 29-29 29z" fill="#8ac9fe"/><path d="m123.799 77.797h258.443v53.756h-258.443z" fill="#8ac9fe"/><path d="m409.444 77.797h-312.846c-8.1 0-14.667-6.566-14.667-14.667v-40.963c0-8.1 6.566-14.667 14.667-14.667h312.846c8.1 0 14.667 6.566 14.667 14.667v40.963c-.001 8.1-6.567 14.667-14.667 14.667z" fill="#bc7c63"/><path d="m144.031 498.542h-30c-16.01 0-29-12.98-29-29v-308.99c0-16.01 12.99-29 29-29h30c-16.01 0-29 12.99-29 29v308.99c0 16.019 12.99 29 29 29z" fill="#60b7ff"/><path d="m85.035 185.693h335.978v238.741h-335.978z" fill="#6cf5c2"/><path d="m126.601 77.802h-30c-8.1 0-14.67-6.57-14.67-14.67v-40.96c0-8.1 6.57-14.67 14.67-14.67h30c-8.1 0-14.67 6.57-14.67 14.67v40.96c0 8.1 6.57 14.67 14.67 14.67z" fill="#aa6a51"/><path d="m123.801 77.802h30v53.75h-30z" fill="#60b7ff"/><path d="m85.031 185.691h30v238.74h-30z" fill="#05e39c"/></g><g><path d="m409.444 85.297c12.223 0 22.167-9.944 22.167-22.167v-40.963c0-12.223-9.945-22.167-22.167-22.167h-312.846c-12.223 0-22.167 9.944-22.167 22.167v40.963c0 12.223 9.944 22.167 22.167 22.167h19.701v38.754h-2.269c-20.126 0-36.5 16.374-36.5 36.5v128.47c0 4.142 3.357 7.5 7.5 7.5s7.5-3.358 7.5-7.5v-95.828h320.98v22.828c0 4.142 3.357 7.5 7.5 7.5s7.5-3.358 7.5-7.5v-55.47c0-20.126-16.374-36.5-36.5-36.5h-2.269v-38.754zm-320.013-22.167v-40.963c0-3.952 3.215-7.167 7.167-7.167h312.846c3.952 0 7.167 3.215 7.167 7.167v40.963c0 3.952-3.215 7.167-7.167 7.167h-312.846c-3.952 0-7.167-3.215-7.167-7.167zm324.08 97.421v17.642h-320.98v-17.642c0-11.855 9.645-21.5 21.5-21.5h277.98c11.855 0 21.5 9.645 21.5 21.5zm-38.769-36.5h-243.443v-38.754h243.443z"/><path d="m428.511 250.021c0-4.142-3.357-7.5-7.5-7.5s-7.5 3.358-7.5 7.5v166.912h-320.98v-93.912c0-4.142-3.357-7.5-7.5-7.5s-7.5 3.358-7.5 7.5v146.52c0 20.126 16.374 36.5 36.5 36.5h277.98c20.126 0 36.5-16.374 36.5-36.5zm-36.5 241.021h-277.98c-11.855 0-21.5-9.645-21.5-21.5v-37.608h320.98v37.608c0 11.854-9.645 21.5-21.5 21.5z"/><path d="m253.024 225.563c-4.143 0-7.5 3.358-7.5 7.5v11.408c-18.014 3.495-31.5 17.205-31.5 33.55 0 16.305 13.499 30.05 31.5 33.551v39.398c-.367-.068-.734-.139-1.1-.221-6.721-1.496-12.228-4.929-15.506-9.668-2.356-3.406-7.026-4.256-10.436-1.901-3.406 2.357-4.257 7.029-1.9 10.435 5.435 7.855 14.165 13.458 24.584 15.776 1.454.324 2.908.561 4.357.748v10.925c0 4.142 3.357 7.5 7.5 7.5s7.5-3.358 7.5-7.5v-11.344c13.99-2.658 25.719-11.549 29.938-24.153 2.725-8.139 1.858-16.809-2.439-24.413-5.143-9.1-14.695-15.788-26.222-18.352-.144-.031-1.277-.266-1.277-.266v-39.376c4.704.865 9.008 2.732 12.466 5.501 3.233 2.589 7.953 2.068 10.542-1.166 2.59-3.233 2.068-7.953-1.165-10.542-6.071-4.863-13.671-7.961-21.843-8.98v-10.91c.001-4.142-3.357-7.5-7.499-7.5zm-24 52.458c0-8.292 6.867-15.383 16.5-18.163v36.32c-9.626-2.786-16.5-9.889-16.5-18.157zm45.94 46.514c1.542 2.729 3.015 7.072 1.273 12.271-2.129 6.36-8.223 11.199-15.714 13.399v-36.245c6.463 1.88 11.663 5.66 14.441 10.575z"/></g></g></svg>