<svg id="Capa_1" enable-background="new 0 0 511.463 511.463" height="512" viewBox="0 0 511.463 511.463" width="512" xmlns="http://www.w3.org/2000/svg"><g><g><path d="m226.018 352.194h17.823c40.806 0 73.886 33.08 73.886 73.886v61.957c0 4.808-3.898 8.706-8.706 8.706h-292.82c-4.808 0-8.706-3.898-8.706-8.706v-61.957c0-40.806 33.08-73.886 73.886-73.886h12.037" fill="#8ac9fe"/><circle cx="380.076" cy="348.902" fill="#ffe177" r="123.949"/><path d="m204.75 289.722v72.89l-72.99 1.73-17.56.42v-75.04z" fill="#ffcebf"/><path d="m382.533 288.677 17.898 36.265c.399.809 1.171 1.369 2.063 1.499l40.021 5.815c2.248.327 3.145 3.089 1.519 4.674l-28.96 28.229c-.646.63-.941 1.537-.788 2.426l6.836 39.859c.384 2.239-1.966 3.946-3.976 2.889l-35.796-18.819c-.798-.42-1.752-.42-2.55 0l-35.796 18.819c-2.01 1.057-4.36-.65-3.976-2.889l6.836-39.859c.152-.889-.142-1.796-.788-2.426l-28.96-28.229c-1.626-1.585-.729-4.348 1.519-4.674l40.021-5.815c.893-.13 1.664-.69 2.063-1.499l17.898-36.265c1.006-2.037 3.911-2.037 4.916 0z" fill="#ffc344"/><path d="m242.525 168.854v62.159c0 31.661-25.673 57.322-57.333 57.322h-58.048c-31.661 0-57.333-25.661-57.333-57.322v-70.035c0-.816.022-1.62.056-2.424v-46.792h172.893z" fill="#ffcebf"/><path d="m197.76 367.762-85 1 13.248 25.334 11.134 18.969c.642 1.093 1.815 1.765 3.082 1.765h31.548c1.118 0 2.172-.523 2.848-1.414z" fill="#fe646f"/><path d="m129.728 491.076 8.211-74.093c.136-1.226 1.172-2.153 2.405-2.153h31.039c1.232 0 2.267.925 2.405 2.15l8.324 74.093c.161 1.434-.961 2.69-2.405 2.69h-47.574c-1.442-.001-2.564-1.254-2.405-2.687z" fill="#fe646f"/><path d="m144.42 288.332h-17.28c-31.66 0-57.33-25.66-57.33-57.32v-70.03c0-.82.02-1.62.06-2.43v-46.79h30v47.17c-.04.81-.06 73.05-.06 73.05 0 27.5 19.07 50.52 44.61 56.35z" fill="#ffb09e"/><path d="m245.53 165.852c-.91 1.76-2.61 3-4.57 3.26-.7.09-1.48.17-2.33.2-6.03.3-15.2-1.36-18.07-13.31-4.4-18.33 7.38-27.87-18.07-29.76-22.19-1.65-88.93-12.13-108.51 7.99-1.79 1.84-3.18 3.93-4.11 6.32-.57 1.45-.98 3-1.18 4.68 0 0-1.71 15.71-16.03 13.89-.89-.12-1.81-.31-2.79-.56v-.01c-.23-.05-.47-.11-.71-.18-1.86-.54-3.38-1.92-4.04-3.73-7.18-19.78-31.97-133.26 1.78-136.32 6.02-.54 14.39-1.33 24.18-2.02 48.06-3.41 130.39-4.57 137.88 36.21.35 1.93 1.63 3.54 3.41 4.36 11.91 5.5 53.46 31.18 13.16 108.98z" fill="#bc7c63"/><path d="m144.2 289.722v74.33l-12.44.29-17.56.42v-75.04z" fill="#ffb09e"/><path d="m109.435 330.255-12.914 9.825c-2.21 1.681-3.454 4.339-3.331 7.112l2.256 50.789c.309 6.957 8.418 10.585 13.811 6.18l50.461-41.215 39.802-32.51c3.031-2.476 7.365-2.551 10.48-.181l12.914 9.825c2.21 1.681 3.454 4.339 3.331 7.112l-2.256 50.789c-.309 6.957-8.418 10.585-13.811 6.18l-90.263-73.725c-3.032-2.476-7.365-2.551-10.48-.181z" fill="#26a6fe"/><path d="m156.168 219.406h-36.54c-2.03 0-3.605 1.756-3.413 3.776 1.929 20.274 19.21 36.356 39.953 36.356s38.025-16.082 39.953-36.356c.192-2.021-1.384-3.776-3.413-3.776z" fill="#f2f2f2"/><path d="m37.5 426.602v62.39c0 3.36 1.87 6.28 4.63 7.75h-25.93c-4.81 0-8.7-3.9-8.7-8.71v-61.95c0-40.81 33.08-73.89 73.88-73.89h30c-40.8 0-73.88 33.32-73.88 74.41z" fill="#26a6fe"/><path d="m90.74 138.642c-.32.61-.61 1.25-.87 1.91-.57 1.45-.98 3-1.18 4.68 0 0-1.71 15.71-16.03 13.89-.89-.12-1.81-.31-2.79-.56v-.01c-.23-.05-.47-.11-.71-.18-1.86-.54-3.38-1.92-4.04-3.73-7.18-19.78-31.97-133.26 1.78-136.32 6.02-.54 14.39-1.33 24.18-2.02.79-.06 1.59-.11 2.4-.16-23.92 8.85-11.48 86.18-2.74 122.5z" fill="#aa6a51"/><path d="m395.08 471.952c-4.92.59-9.92.9-15 .9-68.46 0-123.95-55.49-123.95-123.95s55.49-123.95 123.95-123.95c5.08 0 10.08.31 15 .9-61.39 7.4-108.95 59.67-108.95 123.05s47.56 115.65 108.95 123.05z" fill="#ffd064"/></g><g><path d="m121.702 177.049v-9.127c0-4.142-3.358-7.5-7.5-7.5s-7.5 3.358-7.5 7.5v9.127c0 4.142 3.358 7.5 7.5 7.5s7.5-3.358 7.5-7.5z"/><path d="m199.492 177.049v-9.127c0-4.142-3.358-7.5-7.5-7.5s-7.5 3.358-7.5 7.5v9.127c0 4.142 3.358 7.5 7.5 7.5s7.5-3.358 7.5-7.5z"/><path d="m156.168 267.038c24.289 0 45.118-18.952 47.42-43.145.292-3.068-.729-6.135-2.8-8.413-2.065-2.271-5.01-3.574-8.079-3.574h-73.081c-3.069 0-6.014 1.303-8.079 3.574-2.072 2.278-3.092 5.345-2.8 8.413 2.301 24.194 23.13 43.145 47.419 43.145zm31.748-40.132c-3.457 14.404-16.624 25.132-31.748 25.132s-28.29-10.729-31.748-25.132z"/><path d="m473.024 255.953c-51.251-51.252-134.645-51.252-185.897 0-24.599 24.599-37.383 56.603-38.369 88.903-1.635-.097-15.149-.164-15.149-.164-.56-4.167-2.749-7.991-6.154-10.582l-12.915-9.825c-.731-.556-1.497-1.041-2.289-1.455v-32.916c19.975-9.177 34.623-28.215 37.328-51.279.483-4.114-2.461-7.84-6.575-8.322-4.118-.488-7.84 2.461-8.322 6.575-2.938 25.052-24.215 43.943-49.491 43.943h-58.05c-27.477 0-49.83-22.349-49.83-49.82v-64.404c3.765-.409 7.192-1.754 10.082-4.035 7.237-5.709 8.579-15.048 8.742-16.452 2.892-22.793 68.808-16.075 93.632-13.546 4.774.487 8.896.907 12.167 1.15 7.609.565 9.634 1.768 10.004 2.042.285.853.184 3.493.109 5.441-.16 4.167-.378 9.874 1.222 16.538 2.703 11.281 10.72 18.174 21.762 19.014v27.002c0 4.142 3.358 7.5 7.5 7.5s7.5-3.358 7.5-7.5v-31.5c0-.068-.008-.134-.01-.201.872-.795 1.626-1.708 2.169-2.756 17.371-33.539 22.239-62.04 14.47-84.712-7.17-20.924-23.207-30.721-30.473-34.209-11.02-53.955-124.759-43.635-167.706-39.738l-2.262.205c-6.815.619-12.533 4.276-16.536 10.577-8.005 12.598-9.682 37.104-4.986 72.835 3.667 27.901 10.148 54.048 13.375 62.935.847 2.334 2.34 4.347 4.238 5.877v67.939c0 28.602 18.632 52.92 44.392 61.5v30.596c-.62.352-14.721 11.002-14.721 11.002-3.407 2.591-5.596 6.416-6.155 10.582h-4.446c-44.873 0-81.38 36.511-81.38 81.39v2.68c0 4.142 3.358 7.5 7.5 7.5s7.5-3.358 7.5-7.5v-2.68c0-36.607 29.778-66.39 66.38-66.39h4.858l1.715 38.621c.27 6.069 3.882 11.382 9.428 13.863 5.546 2.482 11.915 1.636 16.62-2.208l8.535-6.971 7.897 13.452-8.45 71.191c-.064.543-.066 1.078-.016 1.601h-105.767c-.662 0-1.2-.543-1.2-1.21v-25.27c0-4.142-3.358-7.5-7.5-7.5s-7.5 3.358-7.5 7.5v25.27c0 8.938 7.267 16.21 16.2 16.21h292.82c8.938 0 16.21-7.272 16.21-16.21v-19.603c16.984 7.804 35.597 11.922 54.846 11.922 35.111 0 68.121-13.673 92.948-38.5 51.252-51.253 51.252-134.646 0-185.898zm-410.68-226.483c1.917-3.017 3.802-3.552 5.227-3.682 0 0 58.369-5.297 91.785-2.337 26.265 2.327 58.381 9.493 62.228 30.42.791 4.3 3.646 7.969 7.639 9.813 5.149 2.378 17.722 9.649 23.247 25.771 6.3 18.385 1.939 42.505-12.958 71.703-.544.252-1.27.53-1.783.686-7.051.15-8.949-3.739-9.874-7.597-1.118-4.657-.966-8.626-.819-12.465.205-5.338.417-10.859-3.538-15.598-3.679-4.409-9.796-6.628-20.454-7.419-3.065-.228-7.093-.638-11.757-1.113-13.137-1.339-30.303-3.089-47.173-3.089-30.434 0-59.887 5.699-62.875 29.788-.663 5.158-4.09 8.296-9.327 6.992-6.777-19.574-23.173-100.46-9.568-121.873zm156.029 316.579c.251.191.393.494.379.811l-2.255 50.788c-.008.178-.026.595-.57.838-.542.244-.866-.021-1.004-.133l-43.349-35.407 32.69-26.7c.347-.284.838-.292 1.195-.021zm-91.233-50.217h58.05c4.114 0 8.146-.385 12.061-1.122v28.26c-.861.47-1.692 1.018-2.476 1.658l-35.058 28.634-35.058-28.634c-.928-.758-1.924-1.385-2.958-1.905v-27.136c1.796.15 3.606.245 5.439.245zm-22.628 102.52c-.138.112-.462.377-1.004.133-.543-.243-.562-.66-.57-.837l-2.255-50.79c-.014-.316.127-.618.379-.81l12.914-9.825c.356-.271.847-.263 1.194.021l32.69 26.701zm55.205-25.723 22.49 18.369-12.385 16.332h-27.349l-8.18-13.935zm-14.877 49.701h22.055l8.051 66.912h-38.048zm165.39 65.702c0 .667-.543 1.21-1.21 1.21h-119.143c.05-.527.049-1.066-.017-1.613l-8.505-70.684 12.476-16.452 11.602 9.476c2.917 2.383 6.473 3.613 10.076 3.613 2.209 0 4.436-.462 6.543-1.406 5.546-2.481 9.159-7.794 9.428-13.864l1.715-38.621s14.196.075 15.959.214c2.49 29.904 15.141 59.113 37.972 81.944 7.082 7.082 14.831 13.252 23.103 18.46v27.723zm152.187-56.788c-21.994 21.994-51.237 34.107-82.342 34.107-20.729 0-40.627-5.386-58.108-15.485-.28-.192-.576-.361-.881-.514-8.416-4.962-16.263-11.018-23.353-18.108-45.403-45.404-45.403-119.28 0-164.684 22.705-22.704 52.519-34.052 82.342-34.052 29.816 0 59.643 11.354 82.342 34.052 45.404 45.404 45.404 119.28 0 164.684z"/><path d="m443.594 324.835-37.545-5.456-16.791-34.021c-1.738-3.521-5.256-5.708-9.183-5.708s-7.445 2.187-9.183 5.708l-16.791 34.021-37.545 5.456c-3.886.564-7.053 3.235-8.267 6.97s-.221 7.756 2.591 10.497l27.168 26.482-6.414 37.392c-.664 3.87.896 7.708 4.073 10.016 3.176 2.308 7.308 2.608 10.786.78l33.581-17.655 33.582 17.655c1.512.794 3.147 1.187 4.774 1.187 2.114 0 4.215-.663 6.009-1.967 3.177-2.308 4.738-6.146 4.074-10.016l-6.414-37.393 27.168-26.482c2.812-2.741 3.804-6.763 2.591-10.498-1.211-3.733-4.378-6.404-8.264-6.968zm-33.753 34.953c-2.415 2.353-3.516 5.741-2.946 9.065l5.206 30.354-27.261-14.333c-1.491-.783-3.127-1.175-4.763-1.175-1.637 0-3.273.392-4.766 1.176l-27.259 14.332 5.206-30.355c.569-3.322-.531-6.709-2.945-9.063l-22.054-21.498 30.475-4.428c3.336-.484 6.22-2.578 7.713-5.602l13.63-27.617 13.629 27.615c1.492 3.025 4.375 5.121 7.711 5.604l30.478 4.429z"/></g></g></svg>