<svg id="Capa_1" enable-background="new 0 0 507.792 507.792" height="512" viewBox="0 0 507.792 507.792" width="512" xmlns="http://www.w3.org/2000/svg"><g><path d="m499.194 110.877v169.876c0 6.364-5.159 11.524-11.524 11.524h-131.936v-201.65l38.57-39.53h35.43c38.41.25 69.46 26.92 69.46 59.78z" fill="#e1d3ce"/><path d="m425.178 51.102c-27.27 0-49.45 18.51-50.27 41.62-.02.44-.03.89-.03 1.33v391.64c-.39 6.2-5.54 11.1-11.83 11.1h-251.28c-4.88 0-9.07-2.94-10.89-7.15v-395.59c0-19.58 15.32-36.08 36.29-41.26 4.45-1.1 9.15-1.69 14.01-1.69z" fill="#f9f3f1"/><path d="m163.561 257.004-12.241 3.482c-5.711 1.624-11.657-1.688-13.281-7.399l-10.48-36.844c-1.624-5.711 1.688-11.657 7.399-13.281l12.241-3.482c5.711-1.624 11.657 1.688 13.281 7.399l10.48 36.844c1.624 5.711-1.688 11.657-7.399 13.281z" fill="#685e68"/><path d="m181.178 51.102c-4.86 0-9.56.59-14.01 1.69-20.97 5.18-36.29 21.68-36.29 41.26v395.59c1.82 4.21 6.01 7.15 10.89 7.15h-30c-4.88 0-9.07-2.94-10.89-7.15v-395.59c0-19.58 15.32-36.08 36.29-41.26 4.45-1.1 9.15-1.69 14.01-1.69z" fill="#e1d3ce"/><circle cx="116.734" cy="115.627" fill="#7a6d79" r="108.083"/><ellipse cx="117.184" cy="115.627" fill="#8ac9fe" rx="77.55" ry="77.099"/><path d="m207.981 378.09-30.706 8.734c-6.64 1.889-13.554-1.963-15.443-8.603l-30.812-108.33c-1.889-6.64 1.963-13.554 8.603-15.443l30.706-8.734c6.64-1.889 13.554 1.963 15.443 8.603l30.812 108.329c1.889 6.641-1.963 13.555-8.603 15.444z" fill="#bc7c63"/><path d="m131.134 191.477c-38.86 7.11-77.51-16.21-88.54-54.76-11.72-40.95 12.18-83.6 53.37-95.25 11.87-3.36 23.88-3.77 35.25-1.69-2.43.44-4.85 1-7.27 1.69-41.19 11.65-65.09 54.3-53.37 95.25 8.34 29.16 32.48 49.6 60.56 54.76z" fill="#60b7ff"/><path d="m190.438 383.082-13.16 3.74c-6.64 1.89-13.56-1.96-15.45-8.6l-30.81-108.33c-1.89-6.64 1.97-13.55 8.61-15.44l12.42-3.54c-4.11 3.01-6.14 8.36-4.66 13.54l31.16 109.55c1.55 5.46 6.5 9.03 11.89 9.08z" fill="#aa6a51"/><g><path d="m429.189 43.592c-.001 0-.001 0 0 0h-4.021c-.022 0-.044.001-.066.001h-217.963c-13.611-17.097-31.668-29.908-52.457-37.155-22.51-7.846-46.569-8.535-69.574-1.989-29.693 8.446-54.321 27.952-69.348 54.924s-18.65 58.179-10.205 87.872c11.8 41.492 45.887 72.898 87.813 81.58v16.468c0 4.142 3.358 7.5 7.5 7.5s7.5-3.358 7.5-7.5v-14.363c2.763.201 5.531.304 8.298.304 2.433 0 4.864-.083 7.291-.239l5.836 20.511c-5.574 4.976-8.135 12.896-5.988 20.438l30.811 108.332c2.5 8.784 10.531 14.526 19.24 14.526 1.806 0 3.643-.247 5.464-.765l30.717-8.732c2.515-.718 4.837-1.919 6.868-3.513h108.725c4.142 0 7.5-3.358 7.5-7.5s-3.358-7.5-7.5-7.5h-101.081c.072-2.062-.174-4.153-.755-6.202l-12.383-43.538h114.219c4.142 0 7.5-3.358 7.5-7.5s-3.358-7.5-7.5-7.5h-118.485l-14.147-49.741h132.63c4.142 0 7.5-3.358 7.5-7.5s-3.358-7.5-7.5-7.5h-148.694l-5.631-19.796c13.828-7.393 26.099-17.621 35.898-29.953h118.429c4.142 0 7.5-3.358 7.5-7.5s-3.358-7.5-7.5-7.5h-108.304c15.253-26.822 19.158-58.383 10.578-88.559-2.54-8.943-6.116-17.44-10.636-25.411h166.821c-10.33 9.119-16.721 21.643-16.721 35.449v248.25c0 4.142 3.358 7.5 7.5 7.5s7.5-3.358 7.5-7.5v-42.511h105.472c10.398 0 18.857-8.459 18.857-18.856v-170.05c0-37.1-34.77-67.282-77.508-67.282zm-271.7 180.185 4.688 16.484c-5.562 1.572-12.993 3.691-18.49 5.264l-4.691-16.489c3.141-.619 6.267-1.362 9.353-2.238 3.086-.877 6.139-1.891 9.14-3.021zm17.728 155.833c-2.651.755-5.418-.79-6.173-3.438l-30.811-108.333c-.693-2.432.563-5.02 2.868-5.984 3.145-.916 29.085-8.287 31.861-9.053 2.467-.406 4.901 1.131 5.594 3.563l30.809 108.326c.465 1.64.079 3.385-1.035 4.67-.647.738-1.457 1.249-2.4 1.518zm22.269-204.015c-9.952 13.418-23.179 24.205-38.268 31.202-4.798 2.24-9.834 4.114-14.966 5.571-5.149 1.462-10.421 2.521-15.683 3.149-8.822 1.068-17.77.943-26.595-.373-39.02-5.81-71.203-34.073-81.991-72.003-7.35-25.839-4.196-52.996 8.88-76.468 13.077-23.472 34.508-40.446 60.348-47.796 8.989-2.558 18.154-3.793 27.249-3.793 31.327 0 61.777 14.668 80.986 40.492 7.277 9.76 12.669 20.703 16.029 32.528 8.611 30.284 2.783 62.174-15.989 87.491zm294.211 105.329c0 2.126-1.73 3.856-3.857 3.856h-105.472v-190.738c0-19.528 19.162-35.417 42.73-35.449h.071c.01 0 .019-.001.029-.001h3.99s0 0 0 0c34.467 0 62.509 23.454 62.509 52.282z"/><path d="m93.588 34.254c-44.868 12.763-70.989 59.648-58.227 104.516 6.182 21.735 20.458 39.762 40.199 50.76 12.765 7.112 26.826 10.733 41.047 10.733 7.771 0 15.59-1.082 23.27-3.266 21.735-6.182 39.762-20.458 50.76-40.199 10.998-19.74 13.649-42.582 7.467-64.317-12.761-44.868-59.649-70.989-104.516-58.227zm83.945 115.244c-9.047 16.241-23.878 27.985-41.759 33.071-17.882 5.086-36.673 2.904-52.914-6.144s-27.985-23.878-33.071-41.759c-10.499-36.912 10.99-75.484 47.903-85.984 6.34-1.803 12.728-2.663 19.015-2.663 30.319 0 58.274 19.993 66.97 50.565 5.085 17.882 2.904 36.674-6.144 52.914z"/><path d="m374.408 366.792c-4.142 0-7.5 3.358-7.5 7.5v114.681c0 2.106-1.713 3.819-3.819 3.819h-251.361c-2.106 0-3.819-1.713-3.819-3.819v-209.681c0-4.142-3.358-7.5-7.5-7.5s-7.5 3.358-7.5 7.5v209.681c0 10.377 8.442 18.819 18.819 18.819h251.361c10.377 0 18.819-8.442 18.819-18.819v-114.681c0-4.142-3.357-7.5-7.5-7.5z"/></g></g></svg>