<svg id="Capa_1" enable-background="new 0 0 510.859 510.859" height="512" viewBox="0 0 510.859 510.859" width="512" xmlns="http://www.w3.org/2000/svg"><g><g><path d="m458.983 161.598 20.359 219.965c4.095 44.213-30.693 82.38-75.098 82.38h-264.671c-44.981 0-79.961-39.126-74.948-83.831l24.004-218.514z" fill="#bc7c63"/><path d="m465.738 161.598h-387.658c-20.778 0-37.621-16.844-37.621-37.621v-24.933h462.901v24.933c-.001 20.778-16.845 37.621-37.622 37.621z" fill="#ffe177"/><path d="m257.917 99.044c-.667-3.086-1.018-6.297-1.018-9.592 0-6.906 1.543-13.453 4.287-19.308 7.265-15.447 22.97-26.148 41.169-26.148 25.097 0 45.456 20.351 45.456 45.456 0 3.295-.35 6.506-1.018 9.592z" fill="#ffc344"/><path d="m261.187 70.144.243 29.285-64.107-.385c-.851-3.053-1.309-6.264-1.309-9.592 0-19.575 15.864-35.447 35.447-35.447 12.452 0 23.412 6.423 29.726 16.139" fill="#ffc344"/><path d="m169.57 463.94h-30c-44.98 0-79.96-39.12-74.94-83.83l24-218.51h30l-24 218.51c-5.02 44.71 29.96 83.83 74.94 83.83z" fill="#aa6a51"/><ellipse cx="102.182" cy="372.196" fill="#ffe177" rx="93.248" ry="93.765"/><ellipse cx="102.182" cy="372.196" fill="#ffc344" rx="55.447" ry="55.755"/><g fill="#ffd064"><path d="m108.08 161.6h-30c-20.78 0-37.62-16.84-37.62-37.62v-24.94h30v24.94c0 20.78 16.84 37.62 37.62 37.62z"/><path d="m117.19 464.75c-4.9.8-9.94 1.21-15.08 1.21-51.5-.04-93.22-42.05-93.18-93.84.04-51.78 41.83-93.73 93.33-93.69 5.08 0 10.06.42 14.92 1.21-44.34 7.21-78.21 45.86-78.25 92.48-.04 46.68 33.86 85.42 78.26 92.63z"/></g></g><g><path d="m503.359 91.54h-148.103c.027-.695.055-1.39.055-2.087 0-29.2-23.756-52.956-52.956-52.956-16.691 0-32.306 7.981-42.211 20.995-7.778-6.999-17.919-10.986-28.684-10.986-23.681 0-42.947 19.266-42.947 42.947 0 .697.037 1.392.071 2.087h-36.155c-4.142 0-7.5 3.358-7.5 7.5s3.358 7.5 7.5 7.5h343.43v17.44c0 16.608-13.512 30.12-30.12 30.12h-146.309c-4.143 0-7.5 3.358-7.5 7.5s3.357 7.5 7.5 7.5h132.712l19.729 213.152c1.76 18.979-4.594 37.942-17.431 52.025-12.839 14.084-31.137 22.163-50.201 22.163h-244.888c26.644-18.366 44.146-49.088 44.146-83.825 0-56.104-45.644-101.748-101.749-101.748-6.053 0-11.983.534-17.748 1.552l11.35-103.319h190.08c4.143 0 7.5-3.358 7.5-7.5s-3.357-7.5-7.5-7.5h-207.351c-16.608 0-30.12-13.512-30.12-30.12v-17.44h70.47c4.142 0 7.5-3.358 7.5-7.5s-3.358-7.5-7.5-7.5h-77.97c-4.142 0-7.5 3.358-7.5 7.5v24.94c0 24.879 20.241 45.12 45.12 45.12h2.181l-11.794 107.362c-39.809 13.819-68.466 51.699-68.466 96.152 0 56.104 45.644 101.749 101.748 101.749 9.339 0 18.385-1.271 26.982-3.638 3.575.465 7.211.715 10.839.715h264.67c23.273 0 45.612-9.862 61.286-27.058 15.674-17.194 23.43-40.344 21.281-63.514l-19.605-211.806c24.203-.776 43.657-20.694 43.657-45.083v-24.939c.001-4.143-3.356-7.5-7.499-7.5zm-201.004-40.043c20.929 0 37.956 17.027 37.956 37.956 0 .697-.02 1.393-.058 2.087h-75.796c-.038-.694-.058-1.39-.058-2.087 0-5.634 1.204-11.059 3.574-16.116 6.24-13.268 19.736-21.84 34.382-21.84zm-98.842 37.956c0-15.41 12.537-27.947 27.947-27.947 8.231 0 15.906 3.578 21.177 9.718-2.139 5.823-3.239 11.933-3.239 18.229 0 .697.028 1.392.055 2.087h-45.859c-.05-.694-.081-1.39-.081-2.087zm-188.513 283.161c0-47.833 38.915-86.748 86.748-86.748s86.749 38.915 86.749 86.748-38.915 86.749-86.749 86.749c-47.833 0-86.748-38.915-86.748-86.749z"/><path d="m102.231 308.942c-.018 0-.033 0-.05 0-16.802 0-32.602 6.572-44.489 18.506-11.889 11.937-18.444 27.811-18.457 44.699-.027 34.878 28.189 63.276 62.898 63.304h.05c16.802 0 32.602-6.572 44.489-18.506 11.889-11.937 18.444-27.811 18.457-44.699.027-34.878-28.189-63.276-62.898-63.304zm33.813 97.417c-9.053 9.089-21.077 14.092-33.862 14.092-.013 0-.026 0-.039 0-26.438-.021-47.93-21.685-47.91-48.292.01-12.897 5.012-25.016 14.084-34.125 9.053-9.089 21.077-14.092 33.862-14.092h.039c26.438.021 47.93 21.685 47.91 48.292-.009 12.897-5.011 25.016-14.084 34.125z"/></g></g></svg>