<svg id="Capa_1" enable-background="new 0 0 510.42 510.42" height="512" viewBox="0 0 510.42 510.42" width="512" xmlns="http://www.w3.org/2000/svg"><g><g><path d="m210.011 46.866 104.15-33.92c39.3-12.8 81.54 8.68 94.33 47.99l90.71 278.51c12.8 39.3-8.69 81.54-47.99 94.33l-113.36 36.93z" fill="#8ac9fe"/><path d="m280.88 46.865h-206.23c-36.86 0-66.75 29.89-66.75 66.75v322.28c0 36.86 29.89 66.75 66.75 66.75h206.23c24.11 0 45.23-12.78 56.97-31.94 0 0 0 0 0-.01 6.2-10.13 9.78-22.05 9.78-34.8v-322.28c0-36.86-29.88-66.75-66.75-66.75zm-103.11 112.12c-18.43 0-33.36-14.93-33.36-33.35 0-18.43 14.93-33.36 33.36-33.36 18.42 0 33.35 14.93 33.35 33.36 0 18.42-14.93 33.35-33.35 33.35z" fill="#f9f3f1"/><path d="m37.9 435.895v-322.28c0-36.86 29.89-66.75 66.75-66.75h-30c-36.86 0-66.75 29.89-66.75 66.75v322.28c0 36.86 29.89 66.75 66.75 66.75h30c-36.86 0-66.75-29.89-66.75-66.75z" fill="#e1d3ce"/></g><g><path d="m506.331 337.123-90.709-278.508c-6.806-20.917-21.351-37.928-40.955-47.901-19.604-9.972-41.919-11.711-62.829-4.9l-98.568 32.101h-139.02c-40.941 0-74.25 33.309-74.25 74.25v38.28c0 4.142 3.357 7.5 7.5 7.5s7.5-3.358 7.5-7.5v-38.28c0-32.67 26.579-59.25 59.25-59.25h206.23c32.671 0 59.25 26.58 59.25 59.25v280.28c0 4.142 3.357 7.5 7.5 7.5s7.5-3.358 7.5-7.5v-34.274l77.251-27.292c3.906-1.38 5.953-5.665 4.573-9.57-1.381-3.906-5.665-5.952-9.569-4.573l-72.255 25.527v-63.474l60.433-21.35c3.906-1.38 5.953-5.665 4.573-9.57-1.38-3.906-5.665-5.952-9.569-4.574l-55.437 19.585v-61.49l49.221-17.392c3.905-1.38 5.952-5.665 4.572-9.57-1.38-3.906-5.666-5.953-9.57-4.573l-44.223 15.626v-73.315c0-40.941-33.309-74.25-74.25-74.25h-18.772l54.774-17.839c17.104-5.57 35.352-4.148 51.384 4.007s27.927 22.067 33.493 39.174l90.71 278.51c5.569 17.102 4.146 35.35-4.011 51.383-8.157 16.032-22.067 27.927-39.172 33.494l-98.227 32c2.625-7.591 4.071-15.727 4.071-24.199v-8c0-4.142-3.357-7.5-7.5-7.5s-7.5 3.358-7.5 7.5v8c0 32.67-26.579 59.25-59.25 59.25h-206.23c-32.671 0-59.25-26.58-59.25-59.25v-250c0-4.142-3.357-7.5-7.5-7.5s-7.5 3.358-7.5 7.5v250c0 40.941 33.309 74.25 74.25 74.25h206.23c24.844 0 46.862-12.278 60.347-31.072l112.704-36.716c20.913-6.806 37.923-21.351 47.896-40.955 9.974-19.605 11.716-41.918 4.904-62.83z"/><path d="m177.768 84.775c-22.528 0-40.856 18.328-40.856 40.856s18.328 40.856 40.856 40.856 40.856-18.328 40.856-40.856-18.328-40.856-40.856-40.856zm0 66.713c-14.257 0-25.856-11.599-25.856-25.856s11.6-25.856 25.856-25.856 25.856 11.599 25.856 25.856-11.6 25.856-25.856 25.856z"/><path d="m216.063 218.761c-3.464-2.269-8.113-1.3-10.383 2.166l-72.15 110.183c-2.27 3.465-1.3 8.114 2.166 10.383 1.267.83 2.692 1.227 4.102 1.227 2.444 0 4.842-1.194 6.281-3.392l72.15-110.183c2.27-3.466 1.3-8.115-2.166-10.384z"/><path d="m112.543 231.374c0 14.621 11.895 26.517 26.516 26.517s26.517-11.896 26.517-26.517-11.896-26.516-26.517-26.516-26.516 11.895-26.516 26.516zm26.516-11.516c6.351 0 11.517 5.166 11.517 11.516s-5.166 11.517-11.517 11.517c-6.35 0-11.516-5.167-11.516-11.517s5.166-11.516 11.516-11.516z"/><path d="m189.96 328.6c0 14.621 11.895 26.517 26.516 26.517s26.517-11.896 26.517-26.517-11.896-26.516-26.517-26.516-26.516 11.895-26.516 26.516zm38.032 0c0 6.35-5.166 11.517-11.517 11.517-6.35 0-11.516-5.167-11.516-11.517s5.166-11.516 11.516-11.516c6.351 0 11.517 5.166 11.517 11.516z"/><path d="m63.751 405.658c0 4.142 3.357 7.5 7.5 7.5h213.033c4.143 0 7.5-3.358 7.5-7.5s-3.357-7.5-7.5-7.5h-213.033c-4.143 0-7.5 3.358-7.5 7.5z"/><path d="m71.251 453.445h213.033c4.143 0 7.5-3.358 7.5-7.5s-3.357-7.5-7.5-7.5h-213.033c-4.143 0-7.5 3.358-7.5 7.5s3.357 7.5 7.5 7.5z"/></g></g></svg>