<svg id="Capa_1" enable-background="new 0 0 510.725 510.725" height="512" viewBox="0 0 510.725 510.725" width="512" xmlns="http://www.w3.org/2000/svg"><g><g><path d="m194.779 375.659 27.482.453c36.019-.071 65.281 28.898 65.351 64.696l.094 47.868c.015 7.803-6.298 14.141-14.1 14.156l-245.604.483c-7.803.015-14.141-6.298-14.156-14.1l-.094-47.868c-.07-35.798 29.077-64.882 65.096-64.952l24.593-.048z" fill="#fe646f"/><path d="m328.669 235.897 116.801 15.946c2.772.379 4.699 2.985 4.212 5.74-10.844 61.41-64.682 107.11-127.414 107.234-71.123.14-129.763-58.351-129.903-129.573-.119-60.654 42.224-113.469 100.867-126.844 2.728-.622 5.424 1.178 5.936 3.928l21.615 116.056c.734 3.943 3.912 6.971 7.886 7.513z" fill="#8ac9fe"/><path d="m189.419 335.494.095 48.47c.038 19.283-19.011 34.939-42.556 34.985s-42.656-15.535-42.693-34.818l-.099-50.054 22.919-2.44 40.511.851z" fill="#ffcebf"/><path d="m161.972 416.692c-4.67 1.45-9.72 2.25-15.01 2.26-23.55.04-42.66-15.54-42.7-34.82l-.1-50.05 30.01.5.09 48.47c.03 15.43 11.55 28.56 27.71 33.64z" fill="#ffb09e"/><path d="m365.535 165.018-19.154-112.497c-.47-2.76 1.441-5.378 4.217-5.74 5.46-.711 10.961-1.074 16.47-1.085 71.123-.14 129.763 58.351 129.903 129.573.013 6.405-.448 12.8-1.377 19.132-.407 2.771-3.058 4.637-5.81 4.12l-111.986-21.03c-6.294-1.182-11.188-6.159-12.263-12.473z" fill="#fe646f"/><path d="m399.022 339.252c-21.62 16.06-48.26 25.51-76.75 25.56-71.13.14-129.77-58.35-129.91-129.57-.1-52.65 31.8-99.4 78.58-119.56-32.21 23.96-52.68 62.37-52.6 104.56.14 71.22 58.78 129.71 129.91 129.57 17.92-.03 35.11-3.78 50.77-10.56z" fill="#60b7ff"/><path d="m239.037 213.105.126 63.992c.064 32.592-26.305 59.064-58.896 59.128l-59.771.118c-32.594.064-59.076-26.302-59.14-58.896l-.1-88.199-.096-49 175-.344z" fill="#ffcebf"/><path d="m131.672 336.322-11.18.02c-32.59.07-59.07-26.3-59.14-58.89l-.1-88.2-.09-49 29.99-.06.21 138.9c.05 26.65 16.93 49.23 40.31 57.23z" fill="#ffb09e"/><path d="m105.362 68.362 90.027.227c1.774-5.752 2.494-11.977 1.898-18.433-2.118-22.954-20.939-41.21-43.945-42.651-27.484-1.721-50.286 20.09-50.233 47.189.009 4.719.708 9.264 2.006 13.565" fill="#bc7c63"/><path d="m248.164 208.442c-35.041 11.513-60.572-23.79-71.069-41.983-2.523-4.373-8.539-5.201-12.059-1.582-30.209 31.059-93.219 22.461-114.133 18.552-3.935-.735-6.664-4.344-6.321-8.332l4.653-54.219c2.627-30.605 34.302-54.286 72.281-54.039l58.903.382c37.869.246 68.969 24.2 71.067 54.739l5.078 73.911c.385 5.613-3.057 10.816-8.4 12.571z" fill="#bc7c63"/><path d="m150.236 265.323-41.316.081c.045 22.665 18.732 41.279 41.397 41.234s41.279-18.732 41.234-41.397z" fill="#f2f2f2"/><path d="m133.112 55.992c.01 4.28.56 8.43 1.58 12.38l-29.58-.11c-1.29-4.3-1.99-8.85-2-13.57-.06-27.1 22.75-48.91 50.23-47.19 4.18.26 8.23 1.08 12.06 2.38-18.79 6.42-32.34 24.65-32.29 46.11z" fill="#aa6a51"/><path d="m80.902 183.432c6.19 1.16 16.06 2.73 27.67 3.55-23.61 1.92-46.57-1.47-57.67-3.55-3.93-.74-6.66-4.35-6.32-8.33l4.65-54.22c2.63-30.61 34.3-54.29 72.28-54.04l24.06.16c-35.29 2.1-63.84 24.88-66.34 53.88l-4.65 54.22c-.34 3.98 2.39 7.59 6.32 8.33z" fill="#aa6a51"/><g fill="#fd4755"><path d="m43.752 440.672.09 48.39c.02 7.46 5.68 13.56 12.88 14.19l-28.72.06c-7.8.02-14.14-6.3-14.16-14.1l-.09-47.87c-.07-35.79 29.08-64.88 65.1-64.95l16.93-.03c-29.75 6.14-52.09 32.62-52.03 64.31z"/><path d="m496.892 179.982c-.16 4.83-.6 9.65-1.3 14.42-.4 2.77-3.06 4.64-5.81 4.12l-111.98-21.03c-6.3-1.18-11.19-6.16-12.27-12.47l-19.15-112.5c-.47-2.76 1.44-5.38 4.22-5.74 5.46-.71 10.96-1.08 16.47-1.09 2.25 0 4.49.05 6.71.16l17.73 104.17c1.08 6.31 5.97 11.29 12.27 12.47z"/></g></g><g><path d="m448.451 245.086-116.771-16.181c-.772-.107-1.383-.686-1.522-1.45l-21.392-116.108c-.616-3.321-2.587-6.291-5.409-8.148-2.806-1.846-6.289-2.482-9.548-1.739-11.803 2.667-23.109 6.862-33.743 12.509-5.128-23.964-26.056-43.377-53.384-50.816.69-4.433.833-8.945.423-13.488-2.395-26.529-24.255-47.83-50.848-49.548-15.304-.981-29.871 4.221-41.015 14.668-10.991 10.304-17.294 24.849-17.294 39.907 0 2.661.192 5.307.571 7.92-29.826 8.058-52.164 30.369-54.547 57.502l-4.76 54.21c-.691 7.868 4.633 14.905 12.383 16.369 1.314.248 2.731.504 4.233.762l-.072 85.907c0 28.282 17.755 52.483 42.699 62.085v29.457h-21.583c-18.17 0-35.566 6.702-48.982 18.871-13.337 12.097-21.641 28.561-23.382 46.358-.403 4.123 2.612 7.792 6.734 8.195.249.023.495.036.739.036 3.813 0 7.077-2.896 7.456-6.771 2.883-29.469 27.575-51.69 57.436-51.69h21.584v.228c0 23.38 22.486 42.401 50.125 42.401s50.125-19.021 50.125-42.401v-.619l21.45.39c.045.001.091.001.136.001 31.827 0 57.72 25.718 57.72 57.33v6.63c0 4.143 3.358 7.5 7.5 7.5s7.5-3.357 7.5-7.5v-6.63c0-39.858-32.585-72.29-72.65-72.33l-21.657-.394v-26.747c9.372-2.425 17.944-6.854 25.242-12.79 26.026 27.911 62.064 43.771 100.044 43.771 32.053 0 63.324-11.445 88.054-32.227 24.659-20.723 41.336-49.466 46.96-80.941.587-3.308-.211-6.765-2.191-9.483-1.984-2.725-5.037-4.55-8.364-5.006zm-335.503-190.394c0-11.089 4.458-21.375 12.553-28.964 8.087-7.581 18.663-11.359 29.789-10.643 19.286 1.246 35.138 16.691 36.875 35.928.286 3.163.197 6.302-.248 9.388-2.996-.312-6.036-.503-9.121-.529l-58.902-.498c-.275-.002-.546-.003-.821-.003-3.307 0-6.564.187-9.771.516-.224-1.716-.354-3.449-.354-5.195zm-58.793 120.945 4.76-54.21c1.984-22.592 22.75-40.889 49.714-45.77.09-.015.179-.026.269-.044 4.787-.85 9.764-1.285 14.869-1.238l58.902.498c33.857.286 61.767 21.316 63.539 47.878l4.932 73.921c.148 2.224-1.195 4.248-3.267 4.924 0 0 0 0-.001 0-29.245 9.544-51.495-20.167-62.155-38.728-2.395-4.171-6.504-6.909-11.274-7.514-.65-.082-1.297-.123-1.94-.123-4.027 0-7.85 1.597-10.71 4.525-27.914 28.586-89.272 19.625-107.411 16.199-.141-.027-.24-.167-.227-.318zm16.602 101.731.07-83.786c30.3 3.406 75.891 3.081 101.685-23.347.002 0 .124-.024.199.104 17.152 29.863 38.615 46.515 60.854 47.965v59.059c0 28.404-23.108 51.513-51.513 51.513h-59.772c-28.41-.001-51.523-23.109-51.523-51.508zm112.948 106.764c0 15.109-15.757 27.401-35.125 27.401s-35.125-12.292-35.125-27.401v-40.86c2.89.385 5.831.603 8.825.603 0 0 60.874-.028 61.425-.042zm140.287-26.388c-34.019 0-66.303-14.323-89.531-39.501 8.825-11.288 14.104-25.475 14.104-40.881v-60.379c1.321-.322 2.642-.697 3.961-1.128 8.603-2.806 14.188-11.105 13.582-20.182l-4.365-65.424c10.221-6.109 21.206-10.658 32.76-13.538l20.902 113.451c1.304 7.138 7.018 12.604 14.218 13.601l114.117 15.813c-11.466 57.045-61.403 98.168-119.748 98.168z"/><path d="m466.227 79.12c-26.021-26.057-60.399-40.406-96.802-40.406-5.805 0-11.668.374-17.427 1.112-3.329.428-6.386 2.222-8.389 4.922-2.01 2.709-2.841 6.169-2.281 9.493l18.933 112.534c1.576 9.367 8.904 16.852 18.236 18.622l111.944 21.25c.763.146 1.535.217 2.305.217 2.574 0 5.123-.797 7.241-2.302 2.741-1.948 4.596-4.969 5.09-8.288.993-6.679 1.497-13.486 1.497-20.233-.001-36.447-14.329-70.867-40.347-96.921zm24.378 112.291-109.311-20.75c-3.194-.606-5.702-3.168-6.241-6.374l-18.488-109.893c4.268-.451 8.582-.68 12.86-.68 67.353 0 122.148 54.876 122.148 122.327 0 5.119-.325 10.277-.968 15.37z"/><path d="m200.976 265.412c0-4.143-3.358-7.5-7.5-7.5h-82.631c-4.142 0-7.5 3.357-7.5 7.5 0 26.917 21.899 48.816 48.816 48.816s48.815-21.899 48.815-48.816zm-81.793 7.5h65.955c-3.42 15.05-16.908 26.316-32.977 26.316s-29.557-11.266-32.978-26.316z"/><path d="m285.512 474.364c-4.142 0-7.5 3.357-7.5 7.5v7.24c0 3.65-2.974 6.62-6.63 6.62h-245.6c-3.656 0-6.63-2.97-6.63-6.62v-20.24c0-4.143-3.358-7.5-7.5-7.5s-7.5 3.357-7.5 7.5v20.24c0 11.921 9.703 21.62 21.63 21.62h245.6c11.927 0 21.63-9.699 21.63-21.62v-7.24c0-4.142-3.358-7.5-7.5-7.5z"/><path d="m110.956 235.307c4.142 0 7.5-3.357 7.5-7.5v-9.396c0-4.143-3.358-7.5-7.5-7.5s-7.5 3.357-7.5 7.5v9.396c0 4.142 3.358 7.5 7.5 7.5z"/><path d="m191.041 235.307c4.142 0 7.5-3.357 7.5-7.5v-9.396c0-4.143-3.358-7.5-7.5-7.5s-7.5 3.357-7.5 7.5v9.396c0 4.142 3.357 7.5 7.5 7.5z"/></g></g></svg>