<svg id="Capa_1" enable-background="new 0 0 508.322 508.322" height="512" viewBox="0 0 508.322 508.322" width="512" xmlns="http://www.w3.org/2000/svg"><g><g><path d="m289.08 399.255h113.525c14.732 0 26.677-11.945 26.677-26.677v-338.401c0-14.732-11.945-26.677-26.677-26.677h-209.68c-14.732 0-26.677 11.945-26.677 26.677v273.685 90.298z" fill="#8ac9fe"/><path d="m319.081 399.25h-30l-122.83-1.09v-363.98c0-14.73 11.94-26.68 26.67-26.68h30c-14.73 0-26.67 11.95-26.67 26.68v363.98z" fill="#60b7ff"/><g fill="#f9f3f1"><path d="m297.736 308.396h89.486c6.659 0 12.064-5.395 12.064-12.064v-9.989c0-6.659-5.405-12.064-12.064-12.064h-86.236z"/><path d="m227.042 308.396h-18.733c-6.659 0-12.064-5.395-12.064-12.064v-9.989c0-6.659 5.405-12.064 12.064-12.064h28.702z"/><path d="m292.052 100.419-92.427 75.249c-6.603 5.376-2.802 16.066 5.713 16.066h184.854c8.515 0 12.316-10.69 5.713-16.066l-92.427-75.249c-3.327-2.708-8.099-2.708-11.426 0z"/></g><path d="m259.71 7.5v18.468c0 15.144 12.279 27.423 27.423 27.423h21.267c15.144 0 27.423-12.279 27.423-27.423v-18.468z" fill="#685e68"/><path d="m301.981 263.78-22.36 234.87-178.62 2.17s4.54-9.98 13.7-47.94c9.15-37.96-33.53-64.12-35.62-106.12s84.87-130.61 84.87-130.61l1.2 47.98 1.1 43.73c1.12 7.6 4.61 21.9 6.4 27.27 7.43 22.27 39.07 22.12 46.61-.11l24.28-83.1c3.82-11.72 15.71-18.83 27.84-16.62l10.48 1.9c12.6 2.29 21.34 13.84 20.12 26.58z" fill="#ffcebf"/><path d="m109.081 346.76c2.09 42 44.77 68.16 35.62 106.12-8.16 33.81-12.65 45.42-13.54 47.56 0 .01 0 .01-.01.02l-30.15.36s4.54-9.98 13.7-47.94c9.15-37.96-33.53-64.12-35.62-106.12s84.87-130.61 84.87-130.61l.81 32.35c-25.05 29.62-56.96 72.62-55.68 98.26z" fill="#ffb09e"/></g><g><path d="m402.599 0h-209.68c-18.841 0-34.17 15.333-34.17 34.181v78.979c0 4.143 3.358 7.5 7.5 7.5s7.5-3.357 7.5-7.5v-78.979c0-10.576 8.6-19.181 19.17-19.181h59.289v10.969c0 19.257 15.666 34.923 34.923 34.923h21.267c19.257 0 34.923-15.666 34.923-34.923v-10.969h59.279c10.576 0 19.18 8.604 19.18 19.181v30.979c0 4.143 3.357 7.5 7.5 7.5s7.5-3.357 7.5-7.5v-30.979c-.002-18.848-15.335-34.181-34.181-34.181zm-74.28 25.969c0 10.985-8.938 19.923-19.923 19.923h-21.266c-10.985 0-19.923-8.938-19.923-19.923v-10.969h61.112z"/><path d="m429.278 91.66c-4.143 0-7.5 3.357-7.5 7.5v273.42c0 10.57-8.604 19.17-19.18 19.17h-105.269l7.224-75.854h82.665c10.788 0 19.564-8.776 19.564-19.563v-9.989c0-9.691-7.091-17.737-16.353-19.276v-67.842c6.991-.097 13.001-4.387 15.351-10.994 2.377-6.685.358-13.898-5.144-18.379l-92.426-75.25c-6.053-4.928-14.842-4.928-20.895 0h-.001l-92.427 75.249c-5.502 4.479-7.521 11.693-5.144 18.378s8.498 11.004 15.592 11.004h6.572v67.546h-3.602c-10.788 0-19.564 8.776-19.564 19.563v9.989c0 10.787 8.776 19.563 19.564 19.563h8.731l-4.924 16.853c-2.95 8.488-10.325 11.515-16.285 11.515-.015 0-.03 0-.045 0-5.893-.016-13.196-3.047-16.021-11.511-1.693-5.075-4.903-18.327-6.014-25.457v-160.135c0-4.143-3.358-7.5-7.5-7.5s-7.5 3.357-7.5 7.5v63.097c-9.784 10.444-30.387 33.103-49.041 57.928-26.538 35.317-39.006 61.141-38.12 78.948 1.053 21.166 11.479 38.618 20.676 54.017 10.395 17.402 19.372 32.431 15.144 49.971-8.662 35.896-13.137 46.364-13.253 46.631-1.688 3.763-.021 8.187 3.738 9.896 1.007.458 2.062.675 3.101.675 2.85 0 5.574-1.634 6.831-4.396.198-.434 4.942-11.071 14.165-49.288 5.663-23.494-5.781-42.652-16.848-61.18-8.704-14.572-17.705-29.641-18.572-47.071-1.185-23.799 35.703-73.415 72.179-113.961v75.435c0 .032.004.062.005.094.002.175.012.35.027.527.007.089.015.177.026.265.008.071.01.14.02.211 1.182 8.006 4.735 22.63 6.708 28.543 4.4 13.185 16.258 21.727 30.21 21.763h.088c14.049-.001 26.028-8.563 30.532-21.834.035-.102.067-.204.097-.307l24.246-82.979c2.674-8.062 10.974-12.987 19.333-11.466l10.479 1.905c6.552 1.191 11.548 5.877 13.346 11.864.51 2.217.869 4.335.651 6.623l-4.241 44.527c-.003.024-.005.048-.007.072l-8.642 90.74c-.006.056-.011.112-.016.168l-9.463 99.357c-.394 4.123 2.631 7.784 6.755 8.177.242.023.481.035.72.035 3.821 0 7.088-2.908 7.457-6.79l8.82-92.606h106.698c18.847 0 34.18-15.328 34.18-34.17v-273.421c.002-4.142-3.355-7.5-7.498-7.5zm-94.728 107.573v67.546h-25.318l.218-2.287c.357-3.746.065-7.397-.78-10.846v-54.413zm15 67.546v-67.546h25.881v67.546zm42.233 19.564v9.989c0 2.517-2.048 4.563-4.564 4.563h-81.237l1.821-19.116h79.416c2.516 0 4.564 2.047 4.564 4.564zm-187.906-103.139c-.366-1.03.272-1.55.481-1.72l92.427-75.249h-.001c.566-.461 1.39-.461 1.956 0l92.427 75.248c.21.171.848.69.481 1.721-.366 1.029-1.188 1.029-1.459 1.029h-184.853c-.27 0-1.093 0-1.459-1.029zm4.429 117.692c-2.517 0-4.564-2.047-4.564-4.563v-9.989c0-2.517 2.047-4.563 4.564-4.563h18.7l-5.586 19.116h-13.114zm28.104-51.291c-.023.071-.045.143-.066.215l-4.955 16.959h-4.48v-67.546h25.878v31.515c-7.554 3.733-13.62 10.378-16.377 18.857zm46.794-19.78-10.479-1.905c-1.652-.3-3.302-.459-4.938-.499v-28.188h25.883v34.425c-3.152-1.82-6.668-3.142-10.466-3.833z"/></g></g></svg>