<svg id="Capa_1" enable-background="new 0 0 509.258 509.258" height="512" viewBox="0 0 509.258 509.258" width="512" xmlns="http://www.w3.org/2000/svg"><g><g><path d="m493.543 500.583h-364.299c-45.978 0-83.25-37.272-83.25-83.25v-313.108h363.843c48.601 0 88 39.399 88 88v304.064c0 2.372-1.922 4.294-4.294 4.294z" fill="#f9f3f1"/><path d="m159.248 500.586h-30c-45.98 0-83.25-37.27-83.25-83.25v-313.11h30v313.11c0 45.98 37.27 83.25 83.25 83.25z" fill="#e1d3ce"/><path d="m48.838 210.246 127.655.003v-19.801c0-1.331.601-2.582 1.617-3.442 21.9-18.559 35.798-46.244 35.798-77.177 0-56.111-45.72-101.55-101.967-101.154-54.67.388-99.502 44.654-100.5 99.263-.573 31.7 13.444 60.134 35.785 79.069 1.015.86 1.616 2.111 1.616 3.441v19.802" fill="#ffe177"/><path d="m77.228 187.006c1.01.86 1.61 2.11 1.61 3.44v19.8h-30v-19.8c0-1.33-.6-2.58-1.61-3.44-22.34-18.93-36.36-47.37-35.79-79.07 1-54.61 45.83-98.87 100.5-99.26 5.36-.04 10.63.34 15.77 1.11-48.02 7.18-85.36 48.36-86.27 98.15-.57 31.7 13.45 60.14 35.79 79.07z" fill="#ffd064"/><path d="m43.908 275.456v-33h133.318v33z" fill="#685e68"/><path d="m392.408 305.956 51.87-42.032c2.891-2.343 2.427-6.883-.878-8.593l-50.992-26.375z" fill="#fe646f"/><path d="m43.908 242.456h30v33h-30z" fill="#554e56"/><path d="m183.946 244.839h-142.538c-9.665 0-17.5-7.835-17.5-17.5v-2.383c0-9.665 7.835-17.5 17.5-17.5h142.539c9.665 0 17.5 7.835 17.5 17.5v2.383c-.001 9.665-7.836 17.5-17.501 17.5z" fill="#7a6d79"/><path d="m173.343 310.839h-128.672c-10.253 0-18.564-8.312-18.564-18.564v-.254c0-10.253 8.312-18.564 18.564-18.564h128.672c10.253 0 18.564 8.312 18.564 18.564v.254c.001 10.252-8.311 18.564-18.564 18.564z" fill="#7a6d79"/><g fill="#685e68"><path d="m151.908 315.456c-2.918 20.362-20.164 36-41 36s-38.082-15.638-41-36z"/><path d="m71.408 244.836h-30c-9.66 0-17.5-7.83-17.5-17.5v-2.38c0-9.66 7.84-17.5 17.5-17.5h30c-9.66 0-17.5 7.84-17.5 17.5v2.38c0 9.67 7.84 17.5 17.5 17.5z"/><path d="m74.668 310.836h-30c-10.25 0-18.56-8.31-18.56-18.56v-.26c0-10.25 8.31-18.56 18.56-18.56h30c-10.25 0-18.56 8.31-18.56 18.56v.26c0 10.25 8.31 18.56 18.56 18.56z"/></g><path d="m389.948 344.536v-126.04c0-4.72-3.83-8.54-8.54-8.54h-17.92c-4.72 0-8.54 3.82-8.54 8.54v126.04z" fill="#7a6d79"/><ellipse cx="177.713" cy="431.788" fill="#fe646f" rx="19.146" ry="19.13"/><ellipse cx="251.497" cy="367.4" fill="#fe646f" rx="19.146" ry="19.13"/><ellipse cx="317.808" cy="427.122" fill="#fe646f" rx="19.146" ry="19.13"/></g><g><path d="m498.559 222.307c-4.143 0-7.5 3.357-7.5 7.5v264.45h-57.43c-4.143 0-7.5 3.357-7.5 7.5s3.357 7.5 7.5 7.5h60.635c6.504 0 11.795-5.291 11.795-11.795v-267.655c0-4.142-3.358-7.5-7.5-7.5z"/><path d="m410.559 97.897h-190.398c-2.449-25.081-13.442-48.316-31.569-66.315-20.715-20.57-48.168-31.782-77.43-31.579-28.407.202-55.254 11.376-75.593 31.463-20.343 20.09-31.833 46.784-32.352 75.164-.586 32.437 13.001 62.861 37.399 84.039v10.959c-13.077.791-23.476 11.676-23.476 24.949v2.383c0 12.52 9.251 22.917 21.275 24.721v15.654c-10.232 3.521-17.607 13.236-17.607 24.648v.254c0 11.709 7.762 21.638 18.41 24.916v99.355c0 50.04 40.71 90.75 90.75 90.75h269.66c4.143 0 7.5-3.357 7.5-7.5s-3.357-7.5-7.5-7.5h-269.66c-41.769 0-75.75-33.981-75.75-75.75v-98.206h13.747c4.594 21.347 22.562 36.993 43.244 36.993s38.649-15.646 43.244-36.993h21.092c14.372 0 26.064-11.692 26.064-26.064v-.254c0-11.412-7.375-21.128-17.607-24.648v-13.707c0-.574-.07-1.131-.193-1.668h.869c13.785 0 25-11.215 25-25v-2.383c0-13.785-11.215-25-25-25h-1.41v-10.908c22.756-19.76 36.166-47.732 37.324-77.771h189.966c44.388 0 80.5 36.112 80.5 80.5v2.41c0 4.143 3.357 7.5 7.5 7.5s7.5-3.357 7.5-7.5v-2.41c.001-52.661-42.84-95.502-95.499-95.502zm-299.35 244.398c-12.593 0-23.699-9.117-27.75-21.993h55.5c-4.05 12.876-15.157 21.993-27.75 21.993zm75.401-48.058c0 6.101-4.964 11.064-11.064 11.064h-128.673c-6.101 0-11.064-4.964-11.064-11.064v-.254c0-6.101 4.964-11.064 11.064-11.064h128.672c6.101 0 11.064 4.964 11.064 11.064v.254zm-17.608-38.609v12.291h-115.586v-13.959h115.779c-.122.537-.193 1.094-.193 1.668zm25.677-29.051v2.383c0 5.514-4.486 10-10 10h-142.538c-5.514 0-10-4.486-10-10v-2.383c0-5.514 4.486-10 10-10h142.538c5.514 0 10 4.486 10 10zm-23.64-45.222c-1.753 1.424-2.771 3.563-2.771 5.82v14.401h-112.652v-14.401c0-2.258-1.018-4.396-2.77-5.82-22.533-18.314-35.156-45.452-34.632-74.453.919-50.315 42.663-91.541 93.054-91.899.228-.002.454-.003.682-.003 24.935 0 48.376 9.653 66.072 27.226 17.838 17.712 27.661 41.305 27.661 66.431.001 28.308-12.627 54.806-34.644 72.698z"/><path d="m403.054 338.21h-4.885v-25.512l51.553-41.775c3.33-2.699 5.059-6.857 4.623-11.122-.437-4.266-2.971-7.988-6.779-9.958l-49.396-25.551v-4.623c0-8.845-7.195-16.04-16.04-16.04h-17.92c-8.845 0-16.04 7.195-16.04 16.04v118.541h-4.89c-4.143 0-7.5 3.357-7.5 7.5s3.357 7.5 7.5 7.5h16.426l-31.694 50.204c-2.948-1.126-6.143-1.749-9.482-1.749-4.717 0-9.148 1.236-12.995 3.394l-28.941-25.747c1.456-3.288 2.271-6.919 2.271-10.74 0-14.684-11.953-26.63-26.646-26.63s-26.646 11.946-26.646 26.63c0 2.796.436 5.492 1.239 8.026l-36.065 32.757c-3.685-1.927-7.871-3.024-12.311-3.024-14.693 0-26.646 11.946-26.646 26.63s11.953 26.63 26.646 26.63 26.646-11.946 26.646-26.63c0-4.792-1.28-9.289-3.506-13.178l33.737-30.643c4.603 3.785 10.493 6.062 16.906 6.062 5.426 0 10.476-1.633 14.691-4.428l28.108 25.006c-1.998 3.734-3.135 7.993-3.135 12.515 0 14.684 11.953 26.63 26.646 26.63s26.646-11.946 26.646-26.63c0-5.893-1.929-11.343-5.184-15.759 0 0 37.146-58.926 37.309-59.326h25.752c4.143 0 7.5-3.357 7.5-7.5s-3.355-7.5-7.498-7.5zm-2.425-95.758 36.868 19.07-36.868 29.876zm-222.194 202.139c-6.422 0-11.646-5.217-11.646-11.63s5.225-11.63 11.646-11.63 11.646 5.217 11.646 11.63-5.224 11.63-11.646 11.63zm73.783-64.389c-6.422 0-11.646-5.217-11.646-11.63s5.225-11.63 11.646-11.63c6.422 0 11.646 5.217 11.646 11.63s-5.224 11.63-11.646 11.63zm66.312 59.723c-6.422 0-11.646-5.217-11.646-11.63s5.225-11.63 11.646-11.63 11.646 5.217 11.646 11.63-5.225 11.63-11.646 11.63zm44.639-220.256c0-.573.467-1.04 1.04-1.04h17.92c.573 0 1.04.467 1.04 1.04v118.541h-20z"/></g></g></svg>