<svg id="Capa_1" enable-background="new 0 0 510.32 510.32" height="512" viewBox="0 0 510.32 510.32" width="512" xmlns="http://www.w3.org/2000/svg"><g><g><path d="m357.465 502.818h-269.262c-14.383 0-26.043-11.66-26.043-26.043v-443.23c0-14.383 11.66-26.043 26.043-26.043h269.262c14.383 0 26.043 11.66 26.043 26.043v443.23c0 14.383-11.66 26.043-26.043 26.043z" fill="#8ac9fe"/><path d="m323.108 7.502v29.625c0 10.067-8.163 18.239-18.23 18.239h-164.085c-10.077 0-18.239-8.173-18.239-18.239v-29.625z" fill="#685e68"/><path d="m448.16 354.12c.01 11.05-8.92 20.01-19.95 20.03l-59.21.09-129.34.19-30 .05v-240.41l30-.03 129.34-.15 58.76-.07c11.03-.02 19.99 8.92 20.02 19.96l.04 22.88.11 56z" fill="#fe646f"/><path d="m239.66 134.04v240.39l-30 .05v-240.41z" fill="#fd4755"/><path d="m447.93 232.658h-238.27v-56h238.16z" fill="#f9f3f1"/><path d="m118.2 502.82h-30c-14.38 0-26.04-11.66-26.04-26.04v-443.24c0-14.38 11.66-26.04 26.04-26.04h30c-14.38 0-26.04 11.66-26.04 26.04v443.24c0 14.38 11.66 26.04 26.04 26.04z" fill="#60b7ff"/><path d="m209.66 176.66h30v56h-30z" fill="#e1d3ce"/><path d="m407.192 329.66h-59.064c-4.677 0-8.468-3.791-8.468-8.468v-29.325c0-4.677 3.791-8.468 8.468-8.468h59.064c4.677 0 8.468 3.791 8.468 8.468v29.325c0 4.677-3.791 8.468-8.468 8.468z" fill="#ffd064"/></g><g><path d="m289.66 495.32h-202.21c-10.229 0-18.55-8.317-18.55-18.54v-100.12c0-4.143-3.357-7.5-7.5-7.5s-7.5 3.357-7.5 7.5v100.12c0 18.494 15.051 33.54 33.55 33.54h202.21c4.143 0 7.5-3.357 7.5-7.5s-3.357-7.5-7.5-7.5z"/><path d="m324.451 460.106c0-4.143-3.357-7.5-7.5-7.5h-189.752c-4.143 0-7.5 3.357-7.5 7.5s3.357 7.5 7.5 7.5h189.752c4.143 0 7.5-3.357 7.5-7.5z"/><path d="m456.36 324.646c-.008-4.138-3.364-7.485-7.5-7.485-.005 0-.01 0-.015 0-4.143.008-7.493 3.373-7.485 7.515l.06 29.842c.006 6.894-5.585 12.512-12.462 12.523l-211.043.319v-127.2h223.289l.096 50.515c.008 4.137 3.364 7.485 7.5 7.485h.015c4.142-.008 7.493-3.372 7.485-7.515l-.26-136.496c-.042-15.142-12.365-27.439-27.479-27.439-.016 0-.034 0-.05 0l-38.262.044v-93.214c.001-18.494-15.045-33.54-33.539-33.54h-269.26c-18.499 0-33.55 15.046-33.55 33.54v309.12c0 4.143 3.357 7.5 7.5 7.5s7.5-3.357 7.5-7.5v-309.12c0-10.223 8.322-18.54 18.55-18.54h26.848v22.128c0 14.192 11.547 25.739 25.739 25.739h164.086c14.188 0 25.729-11.547 25.729-25.739v-22.128h26.857c10.223 0 18.54 8.317 18.54 18.54v93.231l-157.335.18v-15.291c0-4.143-3.357-7.5-7.5-7.5s-7.5 3.357-7.5 7.5v288c0 4.143 3.357 7.5 7.5 7.5s7.5-3.357 7.5-7.5v-17.301l157.335-.238v94.659c0 10.223-8.317 18.54-18.54 18.54h-32.05c-4.143 0-7.5 3.357-7.5 7.5s3.357 7.5 7.5 7.5h32.05c18.494 0 33.54-15.046 33.54-33.54v-94.682l38.733-.058c15.142-.026 27.45-12.38 27.437-27.545zm-141.507-287.518c0 5.922-4.813 10.739-10.729 10.739h-164.087c-5.922 0-10.739-4.817-10.739-10.739v-22.128h185.555zm-96.938 188.032v-41h223.182l.078 41zm210.619-83.45h.021c6.867 0 12.466 5.594 12.484 12.475l.029 14.976h-223.153v-27.209z"/><path d="m348.128 275.899c-8.805 0-15.968 7.163-15.968 15.968v29.325c0 8.805 7.163 15.968 15.968 15.968h59.064c8.805 0 15.968-7.163 15.968-15.968v-29.325c0-8.805-7.163-15.968-15.968-15.968zm60.032 15.968v29.325c0 .533-.435.968-.968.968h-59.064c-.533 0-.968-.435-.968-.968v-29.325c0-.533.435-.968.968-.968h59.064c.534 0 .968.435.968.968z"/></g></g></svg>