<svg id="Capa_1" enable-background="new 0 0 506.263 506.263" height="512" viewBox="0 0 506.263 506.263" width="512" xmlns="http://www.w3.org/2000/svg"><g><g><path d="m483.882 289.397-70 16.12-79.82 18.38-26.5 6.1-.44-205.92 26.94-6.44 104.84-25.06c9.13-2.12 18.22 3.54 20.3 12.66l37.43 163.79c2.08 9.12-3.62 18.24-12.75 20.37z" fill="#8ac9fe"/><path d="m475.562 176.051-139.15 34.191-2.35.58-26.74 6.57-1.19.29v-50.131l1.08-.27 26.85-6.589 2.24-.55 128.32-31.51z" fill="#e5e1e5"/><path d="m336.652 323.292-2.59.6-26.5 6.1-.44-205.92 26.94-6.44 2.15-.51.091 43.01-6.171 28 6.28 23z" fill="#60b7ff"/><path d="m336.412 210.242-2.35.58-26.74 6.57-.11-50.111 26.85-6.589 2.24-.55z" fill="#e1d3ce"/><path d="m430.172 451.046-96.11 22.99-26.93 6.44h-.01l.82-208.22 26.12-6.1 51.11-11.93c9.13-2.14 18.22 3.52 20.3 12.65l8.83 38.64 28.61 125.15c2.1 9.12-3.62 18.231-12.74 20.38z" fill="#6cf5c2"/><path d="m134.331 488.148h-107.375c-9.069 0-16.421-7.432-16.421-16.599v-179.368c0-5.194 2.405-10.088 6.499-13.226l110.415-87.292 6.363 296.489" fill="#a79ba7"/><path d="m337.042 265.452-.8 208.06-2.18.519-26.93 6.441h-.01l.82-208.22 26.12-6.1z" fill="#05e39c"/><path d="m296.326 488.148h-162.514c-6.747 0-12.216-5.469-12.216-12.216v-349.449c0-6.747 5.469-12.216 12.216-12.216h162.514c6.747 0 12.216 5.469 12.216 12.216v349.449c0 6.747-5.469 12.216-12.216 12.216z" fill="#f9f3f1"/><path d="m56.952 488.152h-30c-9.07 0-16.42-7.44-16.42-16.6v-179.37c0-5.19 2.41-10.09 6.5-13.23l30.62-24.21-.62.55c-4.09 3.5-6.5 8.95-6.5 14.73v199.65c0 10.2 7.35 18.48 16.42 18.48z" fill="#918291"/><path d="m163.812 488.152h-30c-6.75 0-12.22-5.47-12.22-12.22v-349.45c0-6.74 5.47-12.21 12.22-12.21h30c-6.75 0-12.22 5.47-12.22 12.21v349.45c0 6.75 5.47 12.22 12.22 12.22z" fill="#e1d3ce"/></g><g><path d="m160.913 146.065c-4.142 0-7.5 3.357-7.5 7.5v295.65c0 4.143 3.358 7.5 7.5 7.5s7.5-3.357 7.5-7.5v-295.65c0-4.142-3.358-7.5-7.5-7.5z"/><path d="m196.472 146.065c-4.142 0-7.5 3.357-7.5 7.5v295.65c0 4.143 3.358 7.5 7.5 7.5s7.5-3.357 7.5-7.5v-295.65c0-4.142-3.358-7.5-7.5-7.5z"/><path d="m232.031 146.065c-4.142 0-7.5 3.357-7.5 7.5v295.65c0 4.143 3.358 7.5 7.5 7.5s7.5-3.357 7.5-7.5v-295.65c0-4.142-3.358-7.5-7.5-7.5z"/><path d="m267.591 146.065c-4.142 0-7.5 3.357-7.5 7.5v295.65c0 4.143 3.358 7.5 7.5 7.5s7.5-3.357 7.5-7.5v-295.65c0-4.142-3.358-7.5-7.5-7.5z"/><path d="m86.238 298.97h-44.703c-4.142 0-7.5 3.357-7.5 7.5s3.358 7.5 7.5 7.5h44.703c4.142 0 7.5-3.357 7.5-7.5s-3.358-7.5-7.5-7.5z"/><path d="m86.238 370.089h-44.703c-4.142 0-7.5 3.357-7.5 7.5s3.358 7.5 7.5 7.5h44.703c4.142 0 7.5-3.357 7.5-7.5s-3.358-7.5-7.5-7.5z"/><path d="m86.238 334.529h-44.703c-4.142 0-7.5 3.357-7.5 7.5s3.358 7.5 7.5 7.5h44.703c4.142 0 7.5-3.357 7.5-7.5s-3.358-7.5-7.5-7.5z"/><path d="m86.238 405.648h-44.703c-4.142 0-7.5 3.357-7.5 7.5s3.358 7.5 7.5 7.5h44.703c4.142 0 7.5-3.357 7.5-7.5s-3.358-7.5-7.5-7.5z"/><path d="m86.238 441.207h-44.703c-4.142 0-7.5 3.357-7.5 7.5s3.358 7.5 7.5 7.5h44.703c4.142 0 7.5-3.357 7.5-7.5s-3.358-7.5-7.5-7.5z"/><path d="m505.645 267.056-37.53-163.803c-1.456-6.347-5.301-11.744-10.826-15.2-5.554-3.473-12.135-4.568-18.584-3.078l-126.238 30.102c-3.617-4.99-9.459-8.126-15.942-8.126h-74.772v-89.019c0-4.143-3.358-7.5-7.5-7.5s-7.5 3.357-7.5 7.5v89.019h-74.768c-10.874 0-19.72 8.842-19.72 19.71v69.085c-.74.253-1.453.62-2.11 1.118l-100.618 76.297c-5.972 4.529-9.537 11.708-9.537 19.202v179.368c0 13.288 10.811 24.099 24.099 24.099l272.425.001c6.869 0 13.13-3.579 16.669-9.198l119.779-28.588c13.146-3.079 21.387-16.248 18.37-29.348l-27.002-117.844 62.914-14.447c13.148-3.061 21.398-16.227 18.391-29.35zm-189.411-93.919 144.328-35.681 7.515 32.799-151.843 37.552zm125.901-73.559c2.491-.576 5.047-.153 7.199 1.193 2.124 1.328 3.601 3.401 4.16 5.835l3.718 16.225-140.977 34.853v-28.084zm-12.614 343.869-113.696 27.136c.164-9.125.295-25.611.409-55.923.016-4.143-3.33-7.513-7.472-7.528-.009 0-.019 0-.028 0-4.129 0-7.484 3.34-7.5 7.472-.082 21.936-.306 57.167-.574 63.764-.811 1.499-2.392 2.464-4.136 2.464l-164.55-.001c-2.598-.005-4.71-2.12-4.71-4.719v-206.48c0-4.143-3.358-7.5-7.5-7.5s-7.5 3.357-7.5 7.5v206.479c0 1.629.22 3.204.595 4.719h-88.76c-5.017 0-9.099-4.082-9.099-9.099v-179.368c0-2.83 1.346-5.54 3.601-7.25l93.663-71.023v21.542c0 4.143 3.358 7.5 7.5 7.5s7.5-3.357 7.5-7.5v-108.971c0-2.597 2.117-4.71 4.72-4.71h164.54c2.052 0 3.824 1.315 4.46 3.256.01.052.015.104.026.157.047.217.108.427.172.635.031.216.051.436.051.662v253.971c0 4.143 3.358 7.5 7.5 7.5s7.5-3.357 7.5-7.5v-102.724l71.632-16.675c2.483-.582 5.029-.166 7.17 1.172 2.122 1.324 3.597 3.399 4.156 5.852l37.532 163.798c1.17 5.078-2.047 10.185-7.202 11.392zm54.354-161.655-62.885 14.44-7.176-31.316c-1.451-6.367-5.298-11.778-10.834-15.234-5.557-3.471-12.141-4.552-18.529-3.055l-68.218 15.881v-39.25l155.193-38.381 19.596 85.529c1.167 5.089-2.049 10.199-7.147 11.386z"/></g></g></svg>