<svg id="Capa_1" enable-background="new 0 0 510.496 510.496" height="512" viewBox="0 0 510.496 510.496" width="512" xmlns="http://www.w3.org/2000/svg"><g><g><path d="m502.75 410.828c0 44.126-35.353 80-79.28 80.824-.522.021-324.97-.905-324.97-.905l-14.056.603c-2.232.219-4.496.323-6.781.323-39.644 0-71.634-32.76-70.377-72.686 1.186-37.685 32.436-68.016 70.139-68.14 1.508-.005 3.005.037 4.49.125 5.191.308 10.027-2.562 12.506-7.132 16.946-31.243 50.04-52.453 88.079-52.453 4.362 0 8.658.277 12.874.819 4.604.591 9.182-1.169 12.115-4.766 22.951-28.144 57.913-46.124 97.06-46.124 53.444 0 99.07 33.498 117.026 80.643 1.79 4.701 5.958 8.068 10.946 8.722 39.63 5.196 70.229 39.099 70.229 80.147z" fill="#f9f3f1"/><path d="m124.418 350.888c-2.48 4.35-7.31 7.08-12.5 6.79-1.49-.08-2.98-.12-4.49-.12-37.71.12-68.96 29-70.14 64.89-1.14 34.4 24.92 63.2 59.25 68.38l-12.09.52c-2.24.22-4.5.32-6.78.32-39.65 0-71.64-32.75-70.38-72.68 1.18-37.69 32.43-68.02 70.14-68.14 1.51-.01 3 .04 4.49.12 5.19.31 10.02-2.56 12.5-7.13 16.95-31.24 50.04-52.45 88.08-52.45 4.36 0 8.66.28 12.88.82 4.6.59 9.18-1.17 12.11-4.77 22.95-28.14 57.92-46.12 97.06-46.12 21.86 0 42.41 5.6 60.29 15.45-9.7-2.3-19.85-3.52-30.29-3.52-39.14 0-74.11 17.12-97.06 43.93-2.93 3.42-7.51 5.1-12.11 4.53-4.22-.51-8.52-.78-12.88-.78-38.04 0-71.13 20.2-88.08 49.96z" fill="#e1d3ce"/><circle cx="262" cy="205.125" fill="#ffe177" r="82.415"/><circle cx="262" cy="205.125" fill="#ffc344" r="46.166"/><path d="m276.998 286.168c-4.86.9-9.88 1.37-15 1.37-45.51 0-82.41-36.9-82.41-82.41 0-45.52 36.9-82.42 82.41-82.42 5.12 0 10.14.47 15 1.37-38.35 7.05-67.41 40.65-67.41 81.05 0 40.39 29.06 74 67.41 81.04z" fill="#ffd064"/></g><g><path d="m433.736 324.282c-2.203-.287-4.081-1.802-4.9-3.951-14.462-37.978-45.389-67.037-83.74-79.227 4.549-10.747 7.066-22.554 7.066-34.939 0-49.579-40.336-89.915-89.915-89.915s-89.915 40.336-89.915 89.915c0 28.968 13.773 54.775 35.111 71.23-1.918 2.071-3.767 4.191-5.523 6.351-1.27 1.559-3.271 2.331-5.329 2.067-4.482-.587-9.14-.884-13.843-.884-39.529 0-75.806 21.601-94.672 56.373-1.132 2.087-3.281 3.347-5.457 3.221-1.649-.1-3.326-.148-4.965-.134-20.195.064-39.362 7.913-53.97 22.102-14.616 14.193-23.012 33.123-23.644 53.302-.672 21.298 7.109 41.441 21.91 56.717 14.808 15.283 34.681 23.7 55.956 23.7 1.565 0 2.976-.041 4.312-.125 4.134-.261 7.273-3.823 7.013-7.957-.261-4.134-3.813-7.271-7.958-7.014-1.019.064-2.121.096-3.368.096-17.179 0-33.226-6.797-45.184-19.138-11.951-12.334-18.233-28.602-17.69-45.809 1.047-33.459 29.16-60.768 62.693-60.874 1.334-.003 2.673.027 3.994.106 7.982.48 15.641-3.856 19.539-11.039 16.241-29.933 47.465-48.527 81.488-48.527 4.055 0 8.058.255 11.918.76 7.264.934 14.324-1.866 18.889-7.477 2.105-2.587 4.365-5.107 6.728-7.547 12.535 6.644 26.817 10.414 41.964 10.414 31.754 0 59.715-16.546 75.718-41.468 35.204 10.304 63.702 36.521 76.854 71.058 2.787 7.317 9.293 12.485 16.973 13.486 36.318 4.766 63.706 36.025 63.706 72.713 0 39.675-32.241 72.557-71.879 73.321-4.608-.005-303.835-.149-306.865-.15-.002 0-.003 0-.004 0-4.14 0-7.498 3.355-7.5 7.496-.002 4.142 3.354 7.502 7.496 7.504 227.048.126 306.778.146 307.112.146v.003c23.24-.435 45.019-9.815 61.325-26.416 16.325-16.62 25.315-38.604 25.315-61.903.001-44.19-32.996-81.844-76.759-87.587zm-171.49-43.202c-41.308 0-74.915-33.606-74.915-74.915s33.607-74.915 74.915-74.915c41.309 0 74.915 33.606 74.915 74.915s-33.606 74.915-74.915 74.915z"/><path d="m369.689 425.038c4.143 0 7.5-3.357 7.5-7.5s-3.357-7.5-7.5-7.5h-39.44c-4.143 0-7.5 3.357-7.5 7.5s3.357 7.5 7.5 7.5z"/><path d="m296.248 425.038c4.143 0 7.5-3.357 7.5-7.5s-3.357-7.5-7.5-7.5h-141.45c-4.142 0-7.5 3.357-7.5 7.5s3.358 7.5 7.5 7.5z"/><path d="m260.996 80.25c4.143 0 7.5-3.357 7.5-7.5v-54.964c0-4.143-3.357-7.5-7.5-7.5s-7.5 3.357-7.5 7.5v54.964c0 4.143 3.358 7.5 7.5 7.5z"/><path d="m290.496 62.976c4.143 0 7.5-3.357 7.5-7.5v-26.697c0-4.143-3.357-7.5-7.5-7.5s-7.5 3.357-7.5 7.5v26.696c0 4.143 3.358 7.501 7.5 7.501z"/><path d="m231.496 62.976c4.142 0 7.5-3.357 7.5-7.5v-26.697c0-4.143-3.358-7.5-7.5-7.5s-7.5 3.357-7.5 7.5v26.696c0 4.143 3.358 7.501 7.5 7.501z"/><path d="m262.246 150.086c-30.922 0-56.079 25.157-56.079 56.079s25.157 56.079 56.079 56.079 56.079-25.157 56.079-56.079-25.157-56.079-56.079-56.079zm0 97.158c-22.651 0-41.079-18.428-41.079-41.079s18.428-41.079 41.079-41.079 41.079 18.428 41.079 41.079-18.427 41.079-41.079 41.079z"/></g></g></svg>