<svg id="Capa_1" enable-background="new 0 0 508.24 508.24" height="512" viewBox="0 0 508.24 508.24" width="512" xmlns="http://www.w3.org/2000/svg"><g><g><path d="m435.882 134.286v-78.617c0-15.666-12.797-28.356-28.595-28.356h-356.084c-15.797 0-28.595 12.691-28.595 28.356v31.749 73.51h410.893z" fill="#f9f3f1"/><path d="m81.2 27.31c-15.79 0-28.59 12.69-28.59 28.36v105.26h-30v-105.26c0-15.67 12.8-28.36 28.59-28.36z" fill="#e1d3ce"/><path d="m453.146 163.477v250.928c0 18.468-15.097 33.439-33.72 33.439h-378.204c-18.623 0-33.72-14.971-33.72-33.439v-300.418c0-17.138 14.01-31.032 31.292-31.032h66.361c23.274 0 42.846 15.717 48.516 37.034 1.581 5.946 7.063 10.049 13.264 10.049h252.492c18.622 0 33.719 14.971 33.719 33.439z" fill="#ffe177"/><path d="m456.489 480.927h-191.859c-24.439 0-44.25-19.811-44.25-44.25v-288.124c0-24.439 19.811-44.25 44.25-44.25h191.858c24.439 0 44.25 19.811 44.25 44.25v288.124c.001 24.439-19.811 44.25-44.249 44.25z" fill="#7a6d79"/><path d="m452.68 224.947h-184.918c-5.598 0-10.136-4.538-10.136-10.136v-43.519c0-5.598 4.538-10.136 10.136-10.136h184.918c5.598 0 10.136 4.538 10.136 10.136v43.519c0 5.598-4.538 10.136-10.136 10.136z" fill="#8ac9fe"/><g fill="#433f43"><path d="m296.417 302.106h-30.177c-5.131 0-9.29-4.159-9.29-9.29v-18.163c0-5.131 4.159-9.29 9.29-9.29h30.177c5.131 0 9.29 4.159 9.29 9.29v18.163c0 5.131-4.16 9.29-9.29 9.29z"/><path d="m453.726 302.106h-30.177c-5.131 0-9.29-4.159-9.29-9.29v-18.163c0-5.131 4.159-9.29 9.29-9.29h30.177c5.131 0 9.29 4.159 9.29 9.29v18.163c0 5.131-4.159 9.29-9.29 9.29z"/><path d="m375.071 302.106h-30.177c-5.131 0-9.29-4.159-9.29-9.29v-18.163c0-5.131 4.159-9.29 9.29-9.29h30.177c5.131 0 9.29 4.159 9.29 9.29v18.163c.001 5.131-4.159 9.29-9.29 9.29z"/><path d="m297.413 368.747h-30.177c-5.131 0-9.29-4.159-9.29-9.29v-18.163c0-5.131 4.159-9.29 9.29-9.29h30.177c5.131 0 9.29 4.159 9.29 9.29v18.163c0 5.13-4.159 9.29-9.29 9.29z"/></g><path d="m454.88 434.174h-30.177c-5.131 0-9.29-4.159-9.29-9.29v-79.082c0-5.131 4.159-9.29 9.29-9.29h30.177c5.131 0 9.29 4.159 9.29 9.29v79.082c0 5.13-4.159 9.29-9.29 9.29z" fill="#fe646f"/><path d="m376.645 368.747h-30.177c-5.131 0-9.29-4.159-9.29-9.29v-18.163c0-5.131 4.159-9.29 9.29-9.29h30.177c5.131 0 9.29 4.159 9.29 9.29v18.163c0 5.13-4.159 9.29-9.29 9.29z" fill="#433f43"/><path d="m296.417 435.387h-30.177c-5.131 0-9.29-4.159-9.29-9.29v-18.163c0-5.131 4.159-9.29 9.29-9.29h30.177c5.131 0 9.29 4.159 9.29 9.29v18.163c0 5.131-4.16 9.29-9.29 9.29z" fill="#433f43"/><path d="m375.648 435.387h-30.177c-5.131 0-9.29-4.159-9.29-9.29v-18.163c0-5.131 4.159-9.29 9.29-9.29h30.177c5.131 0 9.29 4.159 9.29 9.29v18.163c.001 5.131-4.159 9.29-9.29 9.29z" fill="#433f43"/><path d="m71.22 447.84h-30c-18.62 0-33.72-14.97-33.72-33.43v-300.42c0-17.14 14.01-31.03 31.29-31.03h30c-17.28 0-31.29 13.89-31.29 31.03v300.42c0 18.46 15.1 33.43 33.72 33.43z" fill="#ffd064"/><path d="m294.63 480.93h-30c-24.44 0-44.25-19.81-44.25-44.25v-288.13c0-24.44 19.81-44.25 44.25-44.25h30c-24.44 0-44.25 19.81-44.25 44.25v288.13c0 24.44 19.81 44.25 44.25 44.25z" fill="#685e68"/><path d="m297.76 224.95h-30c-5.6 0-10.13-4.54-10.13-10.14v-43.52c0-5.6 4.53-10.13 10.13-10.13h30c-5.6 0-10.13 4.53-10.13 10.13v43.52c0 5.6 4.53 10.14 10.13 10.14z" fill="#60b7ff"/></g><g><path d="m456.49 96.8h-13.11v-41.13c0-19.772-16.189-35.859-36.09-35.859h-356.09c-19.9 0-36.09 16.087-36.09 35.859v27.809c-9.527 7.27-15.11 18.38-15.11 30.511v29.63c0 4.143 3.357 7.5 7.5 7.5s7.5-3.357 7.5-7.5v-29.63c0-8.293 4.29-15.823 11.462-20.135 3.712-2.222 7.976-3.396 12.328-3.396h66.36c19.374 0 36.346 12.936 41.271 31.455 2.443 9.2 10.877 15.625 20.509 15.625h47.141c-.773 3.55-1.191 7.231-1.191 11.01v147.07c0 4.143 3.357 7.5 7.5 7.5s7.5-3.357 7.5-7.5v-147.069c0-20.264 16.486-36.75 36.75-36.75h191.86c20.264 0 36.75 16.486 36.75 36.75v288.13c0 20.264-16.486 36.75-36.75 36.75h-191.86c-20.264 0-36.75-16.486-36.75-36.75v-107.06c0-4.143-3.357-7.5-7.5-7.5s-7.5 3.357-7.5 7.5v107.06c0 1.232.059 2.45.144 3.66h-171.804c-14.458 0-26.22-11.632-26.22-25.926l.12-236.79c.002-4.143-3.354-7.502-7.496-7.504-.002 0-.003 0-.004 0-4.141 0-7.498 3.355-7.5 7.496l-.12 236.794c0 22.568 18.491 40.93 41.22 40.93h175.155c7.504 19.338 26.298 33.09 48.255 33.09h191.86c28.535 0 51.75-23.215 51.75-51.75v-288.13c0-28.535-23.215-51.75-51.75-51.75zm-236.57 25.74h-52.99c-2.84 0-5.312-1.84-6.012-4.478-6.671-25.084-29.604-42.603-55.768-42.603h-66.36c-2.936 0-5.844.349-8.68.994v-20.783c0-11.502 9.461-20.859 21.09-20.859h356.09c11.629 0 21.09 9.357 21.09 20.859v41.13h-163.75c-19.057 0-35.729 10.362-44.71 25.74z"/><path d="m452.68 153.656h-184.918c-9.725 0-17.636 7.911-17.636 17.636v43.52c0 9.725 7.911 17.636 17.636 17.636h184.918c9.725 0 17.636-7.911 17.636-17.636v-43.52c-.001-9.725-7.912-17.636-17.636-17.636zm2.635 61.156c0 1.453-1.183 2.636-2.636 2.636h-184.917c-1.453 0-2.636-1.183-2.636-2.636v-43.52c0-1.453 1.183-2.636 2.636-2.636h184.918c1.453 0 2.636 1.183 2.636 2.636v43.52z"/><path d="m249.449 292.816c0 9.258 7.532 16.79 16.79 16.79h30.178c9.258 0 16.79-7.532 16.79-16.79v-18.163c0-9.258-7.532-16.79-16.79-16.79h-30.178c-9.258 0-16.79 7.532-16.79 16.79zm15-18.163c0-.987.803-1.79 1.79-1.79h30.178c.987 0 1.79.803 1.79 1.79v18.163c0 .987-.803 1.79-1.79 1.79h-30.178c-.987 0-1.79-.803-1.79-1.79z"/><path d="m453.727 257.863h-30.178c-9.258 0-16.79 7.532-16.79 16.79v18.163c0 9.258 7.532 16.79 16.79 16.79h30.178c9.258 0 16.79-7.532 16.79-16.79v-18.163c0-9.257-7.533-16.79-16.79-16.79zm1.79 34.953c0 .987-.803 1.79-1.79 1.79h-30.178c-.987 0-1.79-.803-1.79-1.79v-18.163c0-.987.803-1.79 1.79-1.79h30.178c.987 0 1.79.803 1.79 1.79z"/><path d="m344.894 309.606h30.178c9.258 0 16.79-7.532 16.79-16.79v-18.163c0-9.258-7.532-16.79-16.79-16.79h-30.178c-9.258 0-16.79 7.532-16.79 16.79v18.163c0 9.258 7.532 16.79 16.79 16.79zm-1.79-34.953c0-.987.803-1.79 1.79-1.79h30.178c.987 0 1.79.803 1.79 1.79v18.163c0 .987-.803 1.79-1.79 1.79h-30.178c-.987 0-1.79-.803-1.79-1.79z"/><path d="m297.413 324.503h-30.178c-9.258 0-16.79 7.532-16.79 16.791v18.162c0 9.259 7.532 16.791 16.79 16.791h30.178c9.258 0 16.79-7.532 16.79-16.791v-18.162c0-9.259-7.532-16.791-16.79-16.791zm1.79 34.953c0 .987-.803 1.791-1.79 1.791h-30.178c-.987 0-1.79-.804-1.79-1.791v-18.162c0-.987.803-1.791 1.79-1.791h30.178c.987 0 1.79.804 1.79 1.791z"/><path d="m454.88 329.011h-30.178c-9.258 0-16.79 7.532-16.79 16.79v79.083c0 9.258 7.532 16.79 16.79 16.79h30.178c9.258 0 16.79-7.532 16.79-16.79v-79.083c0-9.258-7.532-16.79-16.79-16.79zm1.79 95.873c0 .987-.803 1.79-1.79 1.79h-30.178c-.987 0-1.79-.803-1.79-1.79v-79.083c0-.987.803-1.79 1.79-1.79h30.178c.987 0 1.79.803 1.79 1.79z"/><path d="m393.436 341.294c0-9.259-7.532-16.791-16.791-16.791h-30.177c-9.259 0-16.791 7.532-16.791 16.791v18.162c0 9.259 7.532 16.791 16.791 16.791h30.177c9.259 0 16.791-7.532 16.791-16.791zm-15 18.162c0 .987-.804 1.791-1.791 1.791h-30.177c-.987 0-1.791-.804-1.791-1.791v-18.162c0-.987.804-1.791 1.791-1.791h30.177c.987 0 1.791.804 1.791 1.791z"/><path d="m249.449 426.097c0 9.259 7.532 16.791 16.79 16.791h30.178c9.258 0 16.79-7.532 16.79-16.791v-18.163c0-9.258-7.532-16.79-16.79-16.79h-30.178c-9.258 0-16.79 7.532-16.79 16.79zm15-18.163c0-.987.803-1.79 1.79-1.79h30.178c.987 0 1.79.803 1.79 1.79v18.163c0 .987-.803 1.791-1.79 1.791h-30.178c-.987 0-1.79-.804-1.79-1.791z"/><path d="m345.471 442.888h30.178c9.258 0 16.79-7.532 16.79-16.791v-18.163c0-9.258-7.532-16.79-16.79-16.79h-30.178c-9.258 0-16.79 7.532-16.79 16.79v18.163c0 9.258 7.532 16.791 16.79 16.791zm-1.79-34.954c0-.987.803-1.79 1.79-1.79h30.178c.987 0 1.79.803 1.79 1.79v18.163c0 .987-.803 1.791-1.79 1.791h-30.178c-.987 0-1.79-.804-1.79-1.791z"/></g></g></svg>