<svg id="Capa_1" enable-background="new 0 0 510.24 510.24" height="512" viewBox="0 0 510.24 510.24" width="512" xmlns="http://www.w3.org/2000/svg"><g><g><path d="m308.575 196.362v-127.96c0-8.288-6.719-15.007-15.007-15.007h-210.862c-8.288 0-15.007 6.719-15.007 15.007v127.96c0 18.888 7.756 35.958 20.252 48.216 5.863 5.751 5.863 15.335 0 21.086-12.496 12.258-20.252 29.327-20.252 48.216v127.96c0 8.288 6.719 15.007 15.007 15.007h210.861c8.288 0 15.007-6.719 15.007-15.007v-127.96c0-18.888-7.756-35.958-20.252-48.216-5.863-5.751-5.863-15.335 0-21.086 12.497-12.258 20.253-29.328 20.253-48.216z" fill="#8ac9fe"/><path d="m158.855 315.12h61.147c26.574 0 48.116 21.542 48.116 48.116v70.324c0 3.837-3.111 6.948-6.948 6.948h-143.483c-3.837 0-6.948-3.111-6.948-6.948v-70.324c0-26.574 21.543-48.116 48.116-48.116z" fill="#ffe177"/><path d="m97.698 313.88v127.96c0 8.29 6.72 15.01 15.01 15.01h-30c-8.29 0-15.01-6.72-15.01-15.01v-127.96c0-18.89 7.76-35.96 20.25-48.22 5.87-5.75 5.87-15.33 0-21.08-12.49-12.26-20.25-29.33-20.25-48.22v-127.96c0-8.29 6.72-15.01 15.01-15.01h30c-8.29 0-15.01 6.72-15.01 15.01v127.96c0 18.89 7.76 35.96 20.25 48.22 5.87 5.75 5.87 15.33 0 21.08-12.49 12.26-20.25 29.33-20.25 48.22z" fill="#60b7ff"/><path d="m338.922 73.352h-301.57c-9.712 0-17.585-7.873-17.585-17.585v-30.687c0-9.712 7.873-17.585 17.585-17.585h301.57c9.712 0 17.585 7.873 17.585 17.585v30.686c0 9.712-7.873 17.586-17.585 17.586z" fill="#f9f3f1"/><path d="m140.738 363.24v70.32c0 3.84 3.11 6.95 6.95 6.95h-30c-3.84 0-6.95-3.11-6.95-6.95v-70.32c0-26.58 21.54-48.12 48.12-48.12h30c-26.58 0-48.12 21.54-48.12 48.12z" fill="#ffd064"/><path d="m37.352 436.889h301.57c9.712 0 17.585 7.873 17.585 17.585v30.686c0 9.712-7.873 17.585-17.585 17.585h-301.57c-9.712 0-17.585-7.873-17.585-17.585v-30.686c0-9.712 7.873-17.585 17.585-17.585z" fill="#f9f3f1"/><path d="m218.71 222.508h-61.147c-26.574 0-48.116-21.542-48.116-48.116v-60.324c0-3.837 3.111-6.948 6.948-6.948h143.483c3.837 0 6.948 3.111 6.948 6.948v60.324c0 26.574-21.542 48.116-48.116 48.116z" fill="#ffe177"/><path d="m67.348 73.35h-30c-9.71 0-17.58-7.87-17.58-17.58v-30.69c0-9.71 7.87-17.58 17.58-17.58h30c-9.71 0-17.58 7.87-17.58 17.58v30.69c0 9.71 7.87 17.58 17.58 17.58z" fill="#e1d3ce"/><path d="m67.348 502.74h-30c-9.71 0-17.58-7.87-17.58-17.58v-30.69c0-9.71 7.87-17.58 17.58-17.58h30c-9.71 0-17.58 7.87-17.58 17.58v30.69c0 9.71 7.87 17.58 17.58 17.58z" fill="#e1d3ce"/><path d="m187.558 222.51h-30c-26.57 0-48.11-21.54-48.11-48.12v-60.32c0-3.84 3.11-6.95 6.95-6.95h30c-3.84 0-6.95 3.11-6.95 6.95v60.32c0 26.58 21.54 48.12 48.11 48.12z" fill="#ffd064"/><circle cx="366.182" cy="375.821" fill="#ffe177" r="124.29"/><circle cx="366.182" cy="375.821" fill="#ffc344" r="73.262"/><path d="m381.178 499.21c-4.92.6-9.92.9-15 .9-68.64 0-124.29-55.65-124.29-124.29s55.65-124.29 124.29-124.29c5.08 0 10.08.3 15 .9-61.57 7.4-109.29 59.83-109.29 123.39s47.72 115.99 109.29 123.39z" fill="#ffd064"/></g><g><path d="m366.182 244.03c-25.41 0-49.158 7.236-69.306 19.744-1.068-1.188-2.164-2.353-3.303-3.47-1.382-1.354-2.144-3.194-2.144-5.183 0-1.987.762-3.827 2.147-5.185 14.508-14.23 22.498-33.254 22.498-53.564v-115.521h22.844c13.835 0 25.09-11.251 25.09-25.08v-30.691c0-13.829-11.255-25.08-25.09-25.08h-301.57c-13.829 0-25.08 11.251-25.08 25.08v30.69c0 13.829 11.251 25.08 25.08 25.08h22.852v115.517c0 20.313 7.99 39.335 22.498 53.563 1.385 1.359 2.147 3.203 2.147 5.192 0 1.988-.763 3.832-2.146 5.19-14.509 14.231-22.499 33.253-22.499 53.566v115.512h-22.841c-13.835 0-25.09 11.251-25.09 25.08v30.69c0 13.829 11.255 25.08 25.09 25.08h45.26c4.142 0 7.5-3.357 7.5-7.5s-3.358-7.5-7.5-7.5h-45.26c-5.564 0-10.09-4.521-10.09-10.08v-30.69c0-5.559 4.526-10.08 10.09-10.08h216.317c13.481 22.038 33.255 39.823 56.801 50.851h-193.859c-4.142 0-7.5 3.357-7.5 7.5s3.358 7.5 7.5 7.5h222.3c4.52 0 8.833-1.194 12.66-3.443 4.797.531 9.668.813 14.604.813 72.669 0 131.79-59.121 131.79-131.79s-59.121-131.791-131.79-131.791zm-290.982 69.848c0-16.25 6.393-31.47 18.002-42.856 4.284-4.203 6.643-9.85 6.643-15.898 0-6.05-2.359-11.696-6.644-15.9-11.608-11.387-18.001-26.607-18.001-42.857v-115.516h29.418c4.142 0 7.5-3.357 7.5-7.5s-3.358-7.5-7.5-7.5h-67.27c-5.558 0-10.08-4.521-10.08-10.08v-30.691c0-5.559 4.522-10.08 10.08-10.08h301.57c5.563 0 10.09 4.521 10.09 10.08v30.69c0 5.559-4.526 10.08-10.09 10.08h-200.3c-4.142 0-7.5 3.357-7.5 7.5s3.358 7.5 7.5 7.5h162.456v115.522c0 16.249-6.394 31.469-17.998 42.852-4.286 4.198-6.647 9.844-6.647 15.897s2.36 11.7 6.646 15.897c.484.474.956.961 1.424 1.451-14.792 11.716-27.023 26.531-35.696 43.46-8.907-5.749-19.299-8.848-30.089-8.848h-61.15c-30.669 0-55.62 24.95-55.62 55.619v66.688h-26.744zm41.745 115.512v-66.688c0-22.397 18.222-40.619 40.62-40.619h61.15c8.688 0 17.021 2.754 23.936 7.819-5.335 14.306-8.258 29.776-8.258 45.918 0 19.064 4.075 37.193 11.39 53.569h-128.838zm249.237 63.22c-64.398 0-116.79-52.392-116.79-116.79s52.391-116.79 116.79-116.79 116.79 52.392 116.79 116.79-52.392 116.79-116.79 116.79z"/><path d="m366.182 295.059c-44.532 0-80.762 36.229-80.762 80.762s36.229 80.763 80.762 80.763 80.763-36.23 80.763-80.763-36.231-80.762-80.763-80.762zm0 146.524c-36.261 0-65.762-29.501-65.762-65.763 0-36.261 29.501-65.762 65.762-65.762 36.262 0 65.763 29.501 65.763 65.762 0 36.262-29.501 65.763-65.763 65.763z"/><path d="m157.561 231.324h61.146c30.667 0 55.617-24.949 55.617-55.616v-60.323c0-7.967-6.481-14.448-14.448-14.448h-143.483c-7.967 0-14.448 6.481-14.448 14.448v60.323c0 30.667 24.949 55.616 55.616 55.616zm-40.616-115.387h142.379v59.771c0 22.396-18.221 40.616-40.617 40.616h-61.146c-22.396 0-40.616-18.221-40.616-40.616z"/></g></g></svg>