<svg id="Capa_1" enable-background="new 0 0 510.85 510.85" height="512" viewBox="0 0 510.85 510.85" width="512" xmlns="http://www.w3.org/2000/svg"><g><g><path d="m236.198 95.578-75.214-37.323c-5.23-2.595-4.906-9.123.558-11.343l74.727-30.258z" fill="#fe646f"/><path d="m478.525 503.775h-446.2c-7.9 0-12.88-8.51-9.02-15.4l120.9-215.52h.01v-.01h.01l48.06-85.69c27.66-49.29 98.62-49.29 126.27 0l47.32 84.34 121.67 216.88c3.86 6.89-1.12 15.4-9.02 15.4z" fill="#a79ba7"/><path d="m234.786 153.137v-133.571c0-6.893 4.551-12.488 10.167-12.488h20.942c5.616 0 10.167 5.595 10.167 12.488v133.57l-20.063 9.458z" fill="#a79ba7"/><path d="m270.425 151.735c-19.27 3.99-37.13 15.8-48.14 35.42l-48.07 85.7h-.01l-120.9 215.52c-3.86 6.89 1.12 15.4 9.02 15.4h-30c-7.9 0-12.88-8.51-9.02-15.4l120.9-215.52h.01l48.07-85.7c16.65-29.67 49-41.48 78.14-35.42z" fill="#918291"/><path d="m365.875 271.495-17.13-5.92c-6.73-2.32-14.13-1.24-19.97 2.92l-12.71 9.04c-8.02 5.73-18.71 5.47-26.47-.63l-8.53-6.7c-7.26-5.7-17.14-6.33-25.02-1.59l-18.64 11.21c-7.6 4.56-17.06 4.17-24.26-1.02l-22.38-16.11c-2.66-1.91-5.64-3.18-8.73-3.78-4.69-.91-9.64-.28-14.08 1.96l-23.73 11.97 48.06-85.69c3.46-6.16 7.59-11.55 12.23-16.17.58-.58 1.17-1.14 1.77-1.7 2.97-2.77 6.14-5.24 9.46-7.4 2.65-1.74 5.4-3.28 8.22-4.62.71-.33 1.42-.66 2.14-.98 9.75-4.27 20.31-6.3 30.82-6.07h.48c1.85.05 3.71.17 5.55.36.63.07 1.25.14 1.88.22.62.08 1.25.17 1.87.26.62.1 1.24.21 1.86.32.61.11 1.22.23 1.82.35.01 0 .03.01.04.01 19.26 3.99 37.12 15.8 48.13 35.42z" fill="#f9f3f1"/><path d="m270.425 151.735c-19.27 3.99-37.13 15.8-48.14 35.42l-40.25 71.76c-4.69-.91-9.64-.28-14.08 1.96l-23.73 11.97 48.06-85.69c3.46-6.16 7.59-11.55 12.23-16.17.58-.58 1.17-1.14 1.77-1.7 2.97-2.76 6.14-5.23 9.46-7.4 2.65-1.73 5.4-3.27 8.22-4.62.71-.33 1.42-.66 2.14-.98 9.76-4.26 20.31-6.29 30.82-6.07h.48c1.85.06 3.71.17 5.55.36.63.07 1.25.14 1.88.22.62.08 1.25.17 1.87.26.62.1 1.24.21 1.86.32.61.11 1.22.23 1.82.35.01 0 .03.01.04.01z" fill="#e1d3ce"/></g><path d="m494.086 484.28-168.989-301.218c-9.566-17.058-24.609-29.766-42.672-36.17v-26.892c0-4.143-3.357-7.5-7.5-7.5s-7.5 3.357-7.5 7.5v23.148c-7.961-1.193-16.041-1.194-24-.001v-124.217c0-2.167 1.763-3.93 3.93-3.93h16.141c2.167 0 3.93 1.763 3.93 3.93v67.07c0 4.143 3.357 7.5 7.5 7.5s7.5-3.357 7.5-7.5v-67.07c0-10.438-8.492-18.93-18.93-18.93h-16.141c-7.819 0-14.545 4.767-17.429 11.546l-72.618 29.404c-5.327 2.164-8.762 6.864-8.964 12.267-.199 5.345 2.826 10.228 7.896 12.743l72.186 35.821v45.111c-18.069 6.403-33.115 19.111-42.681 36.168l-168.983 301.224c-3.129 5.585-3.064 12.218.174 17.743 3.236 5.524 8.99 8.822 15.39 8.822h88.6c4.143 0 7.5-3.357 7.5-7.5s-3.357-7.5-7.5-7.5h-88.6c-1.414 0-2.141-.881-2.448-1.405-.308-.526-.722-1.593-.031-2.824l119.785-213.527 21.701-10.943c4.852-2.445 10.618-1.982 15.051 1.204l22.375 16.104c9.498 6.846 22.47 7.398 32.51 1.366l18.635-11.207c5.225-3.135 11.712-2.72 16.527 1.061l8.527 6.694c10.427 8.206 24.679 8.543 35.453.846l12.712-9.043c3.843-2.733 8.767-3.459 13.171-1.94l14.43 4.987 120.279 214.394c.692 1.235.278 2.302-.029 2.828-.308.524-1.034 1.405-2.448 1.405h-322.6c-4.143 0-7.5 3.357-7.5 7.5s3.357 7.5 7.5 7.5h322.6c6.399 0 12.153-3.298 15.39-8.822 3.236-5.525 3.301-12.158.17-17.747zm-328.575-430.468 62.914-25.475v56.697zm158.915 208.142-12.723 9.051c-5.31 3.791-12.331 3.625-17.477-.425l-8.535-6.7c-9.752-7.654-22.903-8.488-33.514-2.119l-18.637 11.209c-4.994 2.998-11.278 2.731-16.015-.682l-22.384-16.11c-8.99-6.466-20.704-7.393-30.563-2.421l-1.807.911 36.055-64.271c8.376-14.937 21.894-25.765 38.062-30.488.114-.033.227-.069.338-.107 11.91-3.408 24.479-3.408 36.398 0 .11.038.222.074.335.106 16.163 4.726 29.677 15.554 38.054 30.491l37.7 67.198c-8.585-2.46-17.931-.877-25.287 4.357z"/></g></svg>