<svg id="Capa_1" enable-background="new 0 0 504.94 504.94" height="512" viewBox="0 0 504.94 504.94" width="512" xmlns="http://www.w3.org/2000/svg"><g><g><path d="m469.53 360.46v96.54c0 22.335-18.258 40.441-40.77 40.441h-352.569c-22.523 0-40.781-18.105-40.781-40.441v-96.54l69.628-33.511 313.191-1.702z" fill="#aa6a51"/><path d="m106.19 497.44h-30c-22.52 0-40.78-18.11-40.78-40.44v-96.54h30v96.54c0 22.33 18.26 40.44 40.78 40.44z" fill="#935b44"/><path d="m300.666 369.095h143.672c22.523 0 40.781-18.105 40.781-40.441v-164.243c0-22.335-18.258-40.441-40.781-40.441h-383.736c-22.523 0-40.781 18.105-40.781 40.441v164.244c0 22.335 18.258 40.441 40.781 40.441h131.344" fill="#bc7c63"/><path d="m286.494 400.176h-80.379c-7.827 0-14.171-6.345-14.171-14.171v-36.874c0-7.827 6.345-14.171 14.171-14.171h80.379c7.827 0 14.171 6.345 14.171 14.171v36.874c0 7.826-6.344 14.171-14.171 14.171z" fill="#ffe177"/><path d="m330.644 55.191h-161.138c-4.589 0-8.309-3.72-8.309-8.309v-31.073c0-4.589 3.72-8.309 8.309-8.309h161.138c4.589 0 8.309 3.72 8.309 8.309v31.074c-.001 4.588-3.721 8.308-8.309 8.308z" fill="#87523e"/><path d="m90.6 369.09h-30c-22.52 0-40.78-18.1-40.78-40.44v-164.24c0-22.34 18.26-40.44 40.78-40.44h30c-22.52 0-40.78 18.1-40.78 40.44v164.24c0 22.34 18.26 40.44 40.78 40.44z" fill="#aa6a51"/><path d="m199.51 55.19h-30c-4.59 0-8.31-3.72-8.31-8.31v-31.07c0-4.59 3.72-8.31 8.31-8.31h30c-4.59 0-8.31 3.72-8.31 8.31v31.07c0 4.59 3.72 8.31 8.31 8.31z" fill="#7c4b37"/><path d="m236.11 400.18h-30c-7.82 0-14.17-6.35-14.17-14.18v-36.87c0-7.83 6.35-14.17 14.17-14.17h30c-7.82 0-14.17 6.34-14.17 14.17v36.87c0 7.83 6.35 14.18 14.17 14.18z" fill="#ffd064"/></g><path d="m444.34 116.47h-66.486v-70.164c0-11.2-9.161-20.313-20.421-20.313h-10.98v-10.184c-.001-8.717-7.092-15.809-15.809-15.809h-161.138c-8.717 0-15.809 7.092-15.809 15.809v10.185h-9.591c-11.26 0-20.42 9.112-20.42 20.313v70.165h-63.086c-26.622 0-48.28 21.506-48.28 47.94v35.56c0 4.142 3.358 7.5 7.5 7.5s7.5-3.358 7.5-7.5v-35.56c0-18.163 14.929-32.94 33.28-32.94h383.74c18.351 0 33.28 14.777 33.28 32.94v164.24c0 10.16-4.63 19.599-12.706 25.898-5.901 4.607-13.016 7.042-20.574 7.042h-136.175v-12.459c0-11.95-9.722-21.671-21.671-21.671h-80.379c-11.95 0-21.671 9.722-21.671 21.671v12.459h-123.844c-7.559 0-14.673-2.435-20.577-7.043-8.073-6.299-12.703-15.738-12.703-25.899v-93.68c0-4.142-3.358-7.5-7.5-7.5s-7.5 3.358-7.5 7.5v93.68c0 13.549 5.647 26.195 15.59 35.264v93.086c0 26.434 21.658 47.94 48.28 47.94h352.57c26.616 0 48.27-21.506 48.27-47.94v-18.53c0-4.142-3.357-7.5-7.5-7.5s-7.5 3.358-7.5 7.5v18.53c0 18.163-14.925 32.94-33.27 32.94h-352.57c-18.351 0-33.28-14.777-33.28-32.94v-83.709c5.564 2.176 11.527 3.299 17.69 3.299h123.844v9.415c0 11.949 9.722 21.671 21.671 21.671h80.379c11.949 0 21.671-9.722 21.671-21.671v-9.415h136.175c6.163 0 12.126-1.123 17.689-3.299v31.179c0 4.142 3.357 7.5 7.5 7.5s7.5-3.358 7.5-7.5v-40.556c9.944-9.071 15.591-21.717 15.591-35.264v-164.24c0-26.434-21.658-47.94-48.28-47.94zm-275.643-100.661c0-.446.363-.809.809-.809h161.138c.446 0 .809.363.809.809v31.074c0 .446-.362.809-.809.809h-161.138c-.446 0-.809-.363-.809-.809zm-30.012 30.497c0-2.929 2.432-5.313 5.42-5.313h9.591v5.889c0 8.717 7.092 15.809 15.809 15.809h161.138c8.717 0 15.809-7.092 15.809-15.809v-5.889h10.98c2.989 0 5.421 2.383 5.421 5.313v70.165h-224.168zm154.48 339.699c0 3.678-2.992 6.671-6.671 6.671h-80.379c-3.679 0-6.671-2.993-6.671-6.671v-36.874c0-3.679 2.993-6.671 6.671-6.671h80.379c3.679 0 6.671 2.993 6.671 6.671z"/></g></svg>