<svg id="Capa_1" enable-background="new 0 0 507.381 507.381" height="512" viewBox="0 0 507.381 507.381" width="512" xmlns="http://www.w3.org/2000/svg"><g><g><path d="m432.17 140.39-145-.52-48.39-.18v-34.44c18.35-31.98 52.29-58.56 90.64-58.56 7.32 0 14.46.89 21.35 2.56 41.21 9.97 73.35 47.91 81.4 91.14z" fill="#ffe177"/><path d="m350.56 49.224c-.13.03-.25.061-.38.091-40.62 10.045-72.42 47.924-81.03 91.375l-30.37-.111v-34.769c18.35-32.286 52.29-59.12 90.64-59.12 7.25 0 14.32.879 21.14 2.534z" fill="#ffd064"/><path d="m263.44 140.39h-182.75c14.85-35.83 49.77-65.97 90.97-65.97 8.26 0 16.33 1.53 24.07 4.13 16.31 5.49 31.11 15.79 43.05 26.7 10.59 9.69 19.07 21.66 24.66 35.14z" fill="#ffe177"/><path d="m185.92 75.9c-34.21 6.46-62.31 33.32-75.23 64.49h-30c14.85-35.83 49.77-65.97 90.97-65.97 4.83 0 9.59.52 14.26 1.48z" fill="#ffd064"/><path d="m462.59 388.69-377.9-4.37-40.19-.463v-199.167h418z" fill="#a79ba7"/><path d="m74.5 184.69v199.51l-30-.34v-199.17z" fill="#918291"/><path d="m499.88 158.99v13.2c0 11.93-9.68 21.6-21.61 21.6h-449.16c-11.93 0-21.61-9.67-21.61-21.6v-13.2c0-11.93 9.68-21.6 21.61-21.6h449.16c11.93 0 21.61 9.67 21.61 21.6z" fill="#7a6d79"/><path d="m487.69 399.28v33.41h-464v-33.41c0-24.63 19.96-44.59 44.59-44.59h374.82c24.63 0 44.59 19.96 44.59 44.59z" fill="#7a6d79"/><path d="m98.281 354.69c-24.63 0-44.59 19.96-44.59 44.59v33.41h-30v-33.41c0-24.63 19.96-44.59 44.59-44.59z" fill="#685e68"/><circle cx="142.786" cy="398.394" fill="#433f43" r="65.013"/><circle cx="376.488" cy="398.677" fill="#433f43" r="65.013"/><path d="m59.11 193.79h-30c-11.93 0-21.61-9.67-21.61-21.6v-13.2c0-11.93 9.68-21.6 21.61-21.6h30c-11.93 0-21.61 9.67-21.61 21.6v13.2c0 11.93 9.68 21.6 21.61 21.6z" fill="#685e68"/></g><g><path d="m478.271 130.03h-39.271c-12.733-53.834-58.525-93.698-108.822-93.698-19.522 0-39.25 6.43-57.051 18.595-13.735 9.387-25.81 21.742-35.321 36.042-16.301-13.378-39.249-26.91-65.382-26.91-45.333 0-80.144 32.414-95.844 65.972h-47.47c-16.051-.001-29.11 13.054-29.11 29.1v13.199c0 16.052 13.059 29.11 29.11 29.11h8.18v44.25c0 4.143 3.357 7.5 7.5 7.5s7.5-3.357 7.5-7.5v-44.25h344.4c4.143 0 7.5-3.357 7.5-7.5s-3.357-7.5-7.5-7.5h-367.58c-7.78 0-14.11-6.33-14.11-14.11v-13.199c0-7.775 6.33-14.101 14.11-14.101h449.16c7.78 0 14.11 6.325 14.11 14.101v13.199c0 7.78-6.33 14.11-14.11 14.11h-47.58c-4.143 0-7.5 3.357-7.5 7.5s3.357 7.5 7.5 7.5h24.4v149.487c-3.11-.656-6.294-1.002-9.545-1.002h-15.721c-13.278-14.67-32.458-23.902-53.757-23.902s-40.479 9.232-53.757 23.902h-125.767c-13.278-14.67-32.458-23.902-53.757-23.902s-40.479 9.232-53.757 23.902h-27.194c-3.272 0-6.464.349-9.545 1.001v-71.236c0-4.143-3.357-7.5-7.5-7.5s-7.5 3.357-7.5 7.5v77.348c-12.914 8.168-21.514 22.567-21.514 38.945v35.059c0 4.143 3.357 7.5 7.5 7.5h59.071c12.999 19.573 35.233 32.507 60.439 32.507s47.439-12.934 60.438-32.507h112.405c12.999 19.573 35.233 32.507 60.439 32.507s47.439-12.934 60.438-32.507h47.598c4.143 0 7.5-3.357 7.5-7.5v-35.059c0-16.054-8.135-30.594-21.514-38.982v-155.561h8.18c16.052 0 29.11-13.059 29.11-29.11v-13.199c.001-16.046-13.058-29.101-29.109-29.101zm-148.094-78.698c42.369 0 81.129 33.255 93.354 78.698h-154.464c-5.006-10.589-11.819-20.408-20.016-28.847 19.431-30.452 50.73-49.851 81.126-49.851zm-157.753 27.727c25.189 0 47.649 15.699 62.053 28.866 6.982 6.389 12.972 13.905 17.68 22.105h-158.757c14.792-26.764 43.132-50.971 79.024-50.971zm-141.648 344.483v-27.559c0-17.126 13.933-31.059 31.059-31.059h16.728c-5.284 10.055-8.291 21.486-8.291 33.611 0 8.784 1.572 17.207 4.447 25.006h-43.943zm112.01 32.507c-31.713 0-57.514-25.8-57.514-57.513s25.801-57.514 57.514-57.514 57.513 25.801 57.513 57.514-25.8 57.513-57.513 57.513zm68.066-32.507c2.874-7.799 4.447-16.222 4.447-25.006 0-12.125-3.007-23.556-8.291-33.611h104.837c-5.284 10.055-8.291 21.486-8.291 33.611 0 8.784 1.572 17.207 4.447 25.006zm165.216 32.507c-31.713 0-57.514-25.8-57.514-57.513s25.801-57.514 57.514-57.514 57.513 25.801 57.513 57.514-25.8 57.513-57.513 57.513zm100.536-32.507h-32.47c2.874-7.799 4.447-16.222 4.447-25.006 0-12.125-3.007-23.556-8.291-33.611h5.255c4.825 0 9.441 1.073 13.727 3.193 10.691 5.277 17.332 15.954 17.332 27.865z"/><path d="m163.819 391.036h-13.533v-13.534c0-4.143-3.357-7.5-7.5-7.5s-7.5 3.357-7.5 7.5v13.534h-13.534c-4.143 0-7.5 3.357-7.5 7.5s3.357 7.5 7.5 7.5h13.534v13.533c0 4.143 3.357 7.5 7.5 7.5s7.5-3.357 7.5-7.5v-13.533h13.533c4.143 0 7.5-3.357 7.5-7.5s-3.357-7.5-7.5-7.5z"/><path d="m397.102 391.036h-13.533v-13.534c0-4.143-3.357-7.5-7.5-7.5s-7.5 3.357-7.5 7.5v13.534h-13.534c-4.143 0-7.5 3.357-7.5 7.5s3.357 7.5 7.5 7.5h13.534v13.533c0 4.143 3.357 7.5 7.5 7.5s7.5-3.357 7.5-7.5v-13.533h13.533c4.143 0 7.5-3.357 7.5-7.5s-3.358-7.5-7.5-7.5z"/></g></g></svg>