<svg id="Capa_1" enable-background="new 0 0 511.44 511.44" height="512" viewBox="0 0 511.44 511.44" width="512" xmlns="http://www.w3.org/2000/svg"><g><g><path d="m31.222 326.93h449v-254.929c0-10.28-8.33-18.61-18.61-18.61h-411.78c-10.28 0-18.61 8.33-18.61 18.61z" fill="#8ac9fe"/><path d="m478.787 458.05h-446.13c-12.996 0-23.532-10.536-23.532-23.532v-84.105c0-12.996 10.536-23.532 23.532-23.532h446.13c12.996 0 23.532 10.536 23.532 23.532v84.105c0 12.996-10.536 23.532-23.532 23.532z" fill="#6cf5c2"/><path d="m79.832 53.39c-10.28 0-18.61 8.33-18.61 18.61v254.93h-30v-254.93c0-10.28 8.33-18.61 18.61-18.61z" fill="#60b7ff"/><path d="m31.222 102.391h449v69h-449z" fill="#f9f3f1"/><path d="m62.662 458.05h-30c-13 0-23.54-10.54-23.54-23.53v-84.11c0-12.99 10.54-23.53 23.54-23.53h30c-13 0-23.54 10.54-23.54 23.53v84.11c0 12.99 10.54 23.53 23.54 23.53z" fill="#05e39c"/><path d="m31.222 102.39h30v69h-30z" fill="#e1d3ce"/><path d="m426.754 278.177h-77.064c-4.677 0-8.468-3.791-8.468-8.468v-40.281c0-4.677 3.791-8.468 8.468-8.468h77.064c4.677 0 8.468 3.791 8.468 8.468v40.281c0 4.676-3.791 8.468-8.468 8.468z" fill="#ffd064"/></g><g><path d="m60.22 451.88h-29.19c-8.839 0-16.03-7.191-16.03-16.03v-84.97c0-8.46 6.568-15.453 14.983-15.991 9.044-.029 350.759-.039 354.237-.039 4.142 0 7.5-3.358 7.5-7.5 0-4.143-3.358-7.5-7.5-7.5-255.285.007-326.807.021-346.98.038v-141.554h436.96v49.886c0 4.143 3.358 7.5 7.5 7.5s7.5-3.357 7.5-7.5v-157.429c0-14.464-11.767-26.23-26.23-26.23h-414.5c-14.463 0-26.23 11.767-26.23 26.23v250.332c-12.912 3.799-22.24 15.735-22.24 29.757v84.97c0 17.11 13.92 31.03 31.03 31.03h29.19c4.142 0 7.5-3.357 7.5-7.5s-3.358-7.5-7.5-7.5zm-22.98-288.546v-54.456h436.96v54.456zm11.23-103.774h414.5c6.192 0 11.23 5.038 11.23 11.23v23.088h-436.96v-23.087c0-6.193 5.038-11.231 11.23-11.231z"/><path d="m489.2 321.122v-58.902c0-4.143-3.358-7.5-7.5-7.5s-7.5 3.357-7.5 7.5v57.654c-7.92-.011-23.827-.019-55.979-.024 0 0 0 0-.001 0-4.142 0-7.5 3.357-7.5 7.499s3.357 7.5 7.499 7.501c16.777.003 60.241.015 63.21.037 8.429.524 15.011 7.524 15.011 15.993v84.97c0 8.839-7.191 16.03-16.03 16.03h-386.19c-4.142 0-7.5 3.357-7.5 7.5s3.358 7.5 7.5 7.5h386.19c17.11 0 31.03-13.92 31.03-31.03v-84.97c0-14.022-9.328-25.958-22.24-29.758z"/><path d="m145.958 370.142c-2.929-2.928-7.678-2.928-10.606 0l-5.119 5.119v-7.239c0-4.143-3.358-7.5-7.5-7.5s-7.5 3.357-7.5 7.5v7.239l-5.119-5.119c-2.929-2.928-7.678-2.928-10.606 0-2.929 2.93-2.929 7.678 0 10.607l12.619 12.619-12.619 12.619c-2.929 2.93-2.929 7.678 0 10.607 1.464 1.464 3.384 2.196 5.303 2.196s3.839-.732 5.303-2.196l5.119-5.119v7.239c0 4.143 3.358 7.5 7.5 7.5s7.5-3.357 7.5-7.5v-7.239l5.119 5.119c1.464 1.464 3.384 2.196 5.303 2.196s3.839-.732 5.303-2.196c2.929-2.93 2.929-7.678 0-10.607l-12.619-12.619 12.619-12.619c2.93-2.929 2.93-7.677 0-10.607z"/><path d="m323.275 370.142c-2.929-2.928-7.678-2.928-10.606 0l-5.119 5.119v-7.239c0-4.143-3.358-7.5-7.5-7.5s-7.5 3.357-7.5 7.5v7.239l-5.119-5.119c-2.929-2.928-7.678-2.928-10.606 0-2.929 2.93-2.929 7.678 0 10.607l12.619 12.619-12.619 12.619c-2.929 2.93-2.929 7.678 0 10.607 1.464 1.464 3.384 2.196 5.303 2.196s3.839-.732 5.303-2.196l5.119-5.119v7.239c0 4.143 3.358 7.5 7.5 7.5s7.5-3.357 7.5-7.5v-7.239l5.119 5.119c1.464 1.464 3.384 2.196 5.303 2.196s3.839-.732 5.303-2.196c2.929-2.93 2.929-7.678 0-10.607l-12.619-12.619 12.619-12.619c2.929-2.929 2.929-7.677 0-10.607z"/><path d="m234.617 370.142c-2.929-2.928-7.678-2.928-10.606 0l-5.119 5.119v-7.239c0-4.143-3.358-7.5-7.5-7.5s-7.5 3.357-7.5 7.5v7.239l-5.119-5.119c-2.929-2.928-7.678-2.928-10.606 0-2.929 2.93-2.929 7.678 0 10.607l12.619 12.619-12.619 12.619c-2.929 2.93-2.929 7.678 0 10.607 1.464 1.464 3.384 2.196 5.303 2.196s3.839-.732 5.303-2.196l5.119-5.119v7.239c0 4.143 3.358 7.5 7.5 7.5s7.5-3.357 7.5-7.5v-7.239l5.119 5.119c1.464 1.464 3.384 2.196 5.303 2.196s3.839-.732 5.303-2.196c2.929-2.93 2.929-7.678 0-10.607l-12.619-12.619 12.619-12.619c2.929-2.929 2.929-7.677 0-10.607z"/><path d="m411.933 370.142c-2.929-2.928-7.678-2.928-10.606 0l-5.119 5.119v-7.239c0-4.143-3.358-7.5-7.5-7.5s-7.5 3.357-7.5 7.5v7.239l-5.119-5.119c-2.929-2.928-7.678-2.928-10.606 0-2.929 2.93-2.929 7.678 0 10.607l12.619 12.619-12.619 12.619c-2.929 2.93-2.929 7.678 0 10.607 1.464 1.464 3.384 2.196 5.303 2.196s3.839-.732 5.303-2.196l5.119-5.119v7.239c0 4.143 3.358 7.5 7.5 7.5s7.5-3.357 7.5-7.5v-7.239l5.119 5.119c1.464 1.464 3.384 2.196 5.303 2.196s3.839-.732 5.303-2.196c2.929-2.93 2.929-7.678 0-10.607l-12.619-12.619 12.619-12.619c2.929-2.929 2.929-7.677 0-10.607z"/><path d="m442.72 269.708v-40.281c0-8.805-7.164-15.968-15.968-15.968h-77.063c-8.805 0-15.968 7.163-15.968 15.968v40.281c0 8.805 7.164 15.968 15.968 15.968h77.063c8.805 0 15.968-7.163 15.968-15.968zm-94 0v-40.281c0-.533.435-.968.968-.968h77.063c.534 0 .968.435.968.968v40.281c0 .533-.435.968-.968.968h-77.063c-.533 0-.968-.434-.968-.968z"/></g></g></svg>