<svg id="Capa_1" enable-background="new 0 0 503.742 503.742" height="512" viewBox="0 0 503.742 503.742" width="512" xmlns="http://www.w3.org/2000/svg"><g><g><path d="m286.392 107.8v374.25c0 7.84-6.36 14.19-14.19 14.19h-40.62c-7.84 0-14.19-6.35-14.19-14.19v-374.28z" fill="#bc7c63"/><path d="m261.586 496.24h-30c-7.84 0-14.19-6.35-14.19-14.19v-374.28l30 .01v374.27c0 7.84 6.35 14.19 14.19 14.19z" fill="#aa6a51"/><circle cx="251.396" cy="304.365" fill="#ffe177" r="146.431"/><circle cx="251.396" cy="304.365" fill="#ffc344" r="95.155"/><path d="m193.027 84.964-134.56-.08c-3.815-.002-6.907-2.819-6.905-6.291.016-26.734 23.843-48.392 53.219-48.374l88.278.053z" fill="#a79ba7"/><path d="m310.718 85.034 134.56.08c3.815.002 6.91-2.811 6.912-6.283.016-26.734-23.785-48.42-53.162-48.438l-88.278-.053z" fill="#a79ba7"/><path d="m310.757 20.373-.045 74.629c-.004 7.081-6.314 12.816-14.095 12.812l-89.517-.053c-7.781-.005-14.084-5.747-14.08-12.828l.045-74.629c.004-7.081 6.314-12.807 14.095-12.803l89.517.053c7.782.004 14.084 5.738 14.08 12.819z" fill="#7a6d79"/><path d="m81.556 81.2c0 1.36.43 2.63 1.17 3.69l-24.26-.01c-3.82 0-6.91-2.82-6.9-6.29.01-26.72 23.82-48.37 53.17-48.37h.04l28.59.02c-28.72.69-51.79 23.24-51.81 50.96z" fill="#918291"/><path d="m229.566 107.77-22.47-.01c-7.78 0-14.08-5.75-14.08-12.83l.05-74.63c0-7.08 6.31-12.8 14.09-12.8l23.16.01c-4.32 2.26-7.25 6.61-7.25 11.61l-.05 77.41c-.01 4.73 2.61 8.89 6.55 11.24z" fill="#685e68"/><path d="m266.396 450.04c-4.93.5-9.93.76-15 .76-80.87 0-146.43-65.56-146.43-146.43 0-80.88 65.56-146.44 146.43-146.44 5.07 0 10.07.26 15 .76-73.82 7.51-131.43 69.87-131.43 145.68s57.61 138.16 131.43 145.67z" fill="#ffd064"/></g><g><path d="m148.743 304.363c0 56.604 46.051 102.655 102.654 102.655 56.605 0 102.655-46.051 102.655-102.655s-46.051-102.655-102.655-102.655-102.654 46.051-102.654 102.655zm190.309 0c0 48.333-39.322 87.655-87.655 87.655s-87.654-39.322-87.654-87.655 39.321-87.655 87.654-87.655 87.655 39.322 87.655 87.655z"/><path d="m441.683 39.046c-11.423-10.407-26.569-16.146-42.652-16.156l-80.776-.046.001-2.463c.016-11.194-9.661-20.314-21.58-20.331h-4.8c-4.143 0-7.5 3.357-7.5 7.5s3.357 7.5 7.5 7.5h4.789c3.577.005 6.595 2.437 6.591 5.316l-.04 74.623c-.004 2.887-3.017 5.321-6.586 5.321-.003 0-.006 0-.01 0l-89.504-.051c-1.898-.002-3.647-.645-4.924-1.808-.623-.568-1.669-1.779-1.666-3.519l.04-74.634c0-1.527.796-2.643 1.463-3.309 1.268-1.266 3.132-1.991 5.122-1.991h.01l50.71.03h.005c4.14 0 7.497-3.355 7.5-7.495.003-4.143-3.354-7.502-7.495-7.505l-50.705-.028c-.01 0-.019 0-.028 0-5.931 0-11.659 2.324-15.718 6.378-3.781 3.776-5.863 8.721-5.863 13.918l-.001 2.433-80.809-.019c-33.446 0-60.677 25.065-60.7 55.88 0 7.604 6.465 13.79 14.405 13.79l31.64.02h.005c4.14 0 7.497-3.354 7.5-7.495.003-4.143-3.353-7.502-7.495-7.505l-31.035-.021c.739-21.983 20.953-39.669 45.698-39.669l80.783.019-.021 39.729-61.42-.036c-.001 0-.003 0-.004 0-4.141 0-7.498 3.355-7.5 7.496-.002 4.142 3.354 7.502 7.496 7.504l61.42.036-.001 2.46c-.009 5.565 2.322 10.758 6.563 14.622 4.04 3.682 9.37 5.713 15.013 5.72l2.788.001v40.861c-64.781 18.162-112.425 77.74-112.425 148.241s47.644 130.079 112.425 148.24v29.448c0 11.96 9.73 21.69 21.69 21.69h40.62c11.96 0 21.689-9.73 21.689-21.69v-29.727c64.277-18.488 111.438-77.819 111.438-147.961s-47.161-129.475-111.438-147.962v-41.092l2.716.001h.029c11.886-.001 21.564-9.102 21.58-20.307l.001-2.422 127.059.029c3.72 0 7.247-1.349 9.911-3.778 2.858-2.586 4.498-6.231 4.498-9.996.013-15.07-6.381-29.201-18.002-39.79zm-162.792 443.006c0 3.689-3.001 6.69-6.689 6.69h-40.62c-3.689 0-6.69-3.001-6.69-6.69v-26.049c8.614 1.501 17.469 2.291 26.506 2.291 9.382 0 18.57-.847 27.494-2.463v26.221zm111.438-177.689c0 76.606-62.324 138.931-138.932 138.931-76.606 0-138.931-62.324-138.931-138.931s62.324-138.932 138.931-138.932c76.607.001 138.932 62.325 138.932 138.932zm-111.438-151.469c-8.924-1.616-18.112-2.463-27.494-2.463-9.037 0-17.892.79-26.506 2.291v-37.452l54 .031zm39.335-75.312.021-39.738 80.775.046c12.339.009 23.902 4.357 32.559 12.244 8.141 7.417 12.757 17.132 13.087 27.477z"/></g></g></svg>