<svg id="Capa_1" enable-background="new 0 0 508.6 508.6" height="512" viewBox="0 0 508.6 508.6" width="512" xmlns="http://www.w3.org/2000/svg"><g><g><path d="m468.27 376.76v66.29.68c0 10.16-8.23 18.39-18.38 18.39h-361.17-30c-6.62 0-12.43-3.5-15.67-8.75-1.72-2.8-2.72-6.11-2.72-9.64v-.68-206.29-34-58.04c0-10.15 8.23-18.38 18.39-18.38h30 11.07.01 30 86.87 37.63 154.51 41.07c5.08 0 9.68 2.06 13 5.38.42.41.82.85 1.19 1.31.38.45.73.92 1.06 1.41 1.49 2.2 2.51 4.74 2.93 7.48.09.61.15 1.23.19 1.85.01.32.02.63.02.95v198.04z" fill="#8ac9fe"/><path d="m88.72 462.12h-30c-10.15 0-18.39-8.23-18.39-18.39v-299.01c0-10.15 8.24-18.38 18.39-18.38h30c-10.15 0-18.39 8.23-18.39 18.38v299.01c0 10.16 8.24 18.39 18.39 18.39z" fill="#60b7ff"/><circle cx="254.301" cy="169.809" fill="#ffe177" r="160.479"/><path d="m474.552 499.191h-440.5c-14.665 0-26.553-11.888-26.553-26.553v-3.033c0-14.665 11.888-26.553 26.553-26.553h440.5c14.665 0 26.553 11.888 26.553 26.553v3.033c0 14.665-11.888 26.553-26.553 26.553z" fill="#685e68"/><path d="m64.05 499.19h-30c-14.66 0-26.55-11.89-26.55-26.55v-3.04c0-14.66 11.89-26.55 26.55-26.55h30c-14.66 0-26.55 11.89-26.55 26.55v3.04c0 14.661 11.89 26.55 26.55 26.55z" fill="#554e56"/><path d="m170.83 283.281c27.51 27.52 62.55 42.95 98.48 46.3-45.92 4.29-93.33-11.15-128.48-46.3-62.67-62.67-62.67-164.28 0-226.95 35.15-35.15 82.56-50.59 128.48-46.3-35.93 3.35-70.97 18.79-98.48 46.3-62.67 62.669-62.67 164.28 0 226.95z" fill="#ffd064"/></g><g><path d="m266.855 164.135c-.176-.047-3.056-.785-3.056-.785v-64.965c6.324 1.121 12.161 4.104 16.826 8.688 2.956 2.902 7.702 2.862 10.606-.093 2.903-2.955 2.861-7.703-.093-10.606-7.494-7.365-17.046-11.915-27.34-13.144v-19.399c0-4.143-3.357-7.5-7.5-7.5s-7.5 3.357-7.5 7.5v19.98c-21.532 4.342-37.797 23.403-37.797 46.194 0 22.732 16.286 41.823 37.797 46.175v65.042c-.936-.169-1.869-.374-2.798-.627-8.335-2.274-15.258-7.664-19.495-15.175-2.034-3.608-6.609-4.882-10.217-2.848-3.607 2.035-4.883 6.609-2.848 10.217 6.22 11.027 16.381 18.939 28.61 22.276 2.235.61 4.489 1.038 6.747 1.316v19.405c0 4.143 3.357 7.5 7.5 7.5s7.5-3.357 7.5-7.5v-19.976c4.866-.988 9.598-2.752 14.034-5.287 10.93-6.242 18.774-16.369 22.089-28.514s1.702-24.853-4.54-35.782c-6.24-10.927-16.366-18.772-28.525-22.092zm-40.852-34.13c0-14.47 9.619-26.732 22.797-30.739v61.468c-13.168-4.015-22.797-16.296-22.797-30.729zm59.449 88.056c-2.26 8.279-7.607 15.183-15.058 19.438-2.112 1.206-4.324 2.149-6.595 2.844v-61.469c7.886 2.391 14.455 7.612 18.558 14.795 4.256 7.45 5.355 16.113 3.095 24.392z"/><path d="m477.77 435.707v-290.987c0-14.271-11.614-25.88-25.89-25.88h-35.447c-8.023-25.308-22.042-48.498-41.354-67.811-65.496-65.494-172.063-65.494-237.559 0-19.312 19.313-33.331 42.503-41.354 67.811h-35.446c-14.275 0-25.89 11.609-25.89 25.88v58.04c0 4.143 3.357 7.5 7.5 7.5s7.5-3.357 7.5-7.5v-58.04c0-5.999 4.885-10.88 10.89-10.88h31.448c-2.536 11.685-3.847 23.726-3.847 35.969 0 44.868 17.473 87.052 49.199 118.778 32.748 32.747 75.764 49.121 118.779 49.121s86.031-16.374 118.779-49.121c31.727-31.727 49.199-73.91 49.199-118.778 0-12.243-1.311-24.283-3.847-35.969h31.448c6.005 0 10.89 4.881 10.89 10.88v290.83h-412.938v-198.79c0-4.143-3.357-7.5-7.5-7.5s-7.5 3.357-7.5 7.5v198.79h-.78c-18.776.001-34.05 15.275-34.05 34.05v3.04c0 18.775 15.274 34.05 34.05 34.05h295.75c4.143 0 7.5-3.357 7.5-7.5s-3.357-7.5-7.5-7.5h-295.75c-10.504 0-19.05-8.546-19.05-19.05v-3.04c0-10.504 8.546-19.05 19.05-19.05h440.5c10.504 0 19.05 8.546 19.05 19.05v3.04c0 10.504-8.546 19.05-19.05 19.05h-110.75c-4.143 0-7.5 3.357-7.5 7.5s3.357 7.5 7.5 7.5h110.75c18.775 0 34.05-15.274 34.05-34.05v-3.04c0-17.689-13.56-32.265-30.83-33.893zm-113.298-157.727c-59.646 59.646-156.699 59.646-216.344 0-28.895-28.893-44.807-67.309-44.807-108.171 0-13.988 1.866-27.688 5.478-40.819.15-.397.271-.808.353-1.234 7.033-24.747 20.283-47.427 38.976-66.119 29.823-29.823 68.997-44.735 108.172-44.735s78.349 14.912 108.172 44.735c18.693 18.692 31.943 41.373 38.976 66.119.082.426.203.836.353 1.233 3.612 13.131 5.478 26.831 5.478 40.819-.001 40.864-15.913 79.28-44.807 108.172z"/></g></g></svg>