<svg id="Capa_1" enable-background="new 0 0 508.68 508.68" height="512" viewBox="0 0 508.68 508.68" width="512" xmlns="http://www.w3.org/2000/svg"><g><g><path d="m471.22 31.29v274.77c0 13.14-10.65 23.79-23.79 23.79h-412.95c-13.14 0-23.79-10.65-23.79-23.79v-274.77c0-13.14 10.65-23.79 23.79-23.79h412.95c13.14 0 23.79 10.65 23.79 23.79z" fill="#8ac9fe"/><path d="m197.65 114.52v215.33h-110.03v-215.33c0-15.36 12.45-27.81 27.81-27.81h54.41c15.36 0 27.81 12.45 27.81 27.81z" fill="#ffe177"/><path d="m284.25 197.59v-47.64c0-15.36 12.45-27.81 27.81-27.81h54.42c15.35 0 27.81 12.45 27.81 27.81v47.64z" fill="#fe646f"/><path d="m349.5 501.177h-110.13c-36.833 0-66.691-29.859-66.691-66.691v-227.226c0-5.341 4.329-9.67 9.67-9.67h224.173c5.341 0 9.67 4.329 9.67 9.67v227.225c-.001 36.833-29.859 66.692-66.692 66.692z" fill="#f9f3f1"/><path d="m416.194 425.419h44.229c20.744 0 37.567-16.823 37.567-37.567v-114.26c0-20.744-16.823-37.567-37.567-37.567h-44.229v35.957h19.664c16.441 0 29.76 13.319 29.76 29.75v57.98c0 16.431-13.319 29.75-29.76 29.75h-19.664z" fill="#f9f3f1"/><path d="m64.48 329.85h-30c-13.14 0-23.79-10.65-23.79-23.79v-274.77c0-13.14 10.65-23.79 23.79-23.79h30c-13.14 0-23.79 10.65-23.79 23.79v274.77c0 13.14 10.65 23.79 23.79 23.79z" fill="#60b7ff"/><path d="m269.37 501.18h-30c-36.83 0-66.69-29.86-66.69-66.69v-227.23c0-5.34 4.33-9.67 9.67-9.67h30c-5.34 0-9.67 4.33-9.67 9.67v227.23c0 36.83 29.86 66.69 66.69 66.69z" fill="#e1d3ce"/><path d="m145.43 86.71c-15.36 0-27.81 12.45-27.81 27.81v215.33h-30v-215.33c0-15.36 12.45-27.81 27.81-27.81z" fill="#ffd064"/><path d="m342.06 122.14c-15.36 0-27.81 12.45-27.81 27.81v47.64h-30v-47.64c0-15.36 12.45-27.81 27.81-27.81z" fill="#fd4755"/></g><path d="m478.72 232.422v-201.132c0-17.253-14.037-31.29-31.29-31.29h-412.95c-17.253 0-31.29 14.037-31.29 31.29v18.55c0 4.143 3.358 7.5 7.5 7.5s7.5-3.357 7.5-7.5v-18.55c0-8.982 7.308-16.29 16.29-16.29h412.95c8.982 0 16.29 7.308 16.29 16.29v197.369c-1.09-.079-2.187-.134-3.297-.134h-36.733v-21.265c0-9.468-7.702-17.17-17.17-17.17h-4.73v-40.14c0-19.471-15.84-35.311-35.31-35.311h-54.42c-19.47 0-35.31 15.84-35.31 35.311v40.14h-71.6v-75.57c0-19.47-15.84-35.31-35.31-35.31h-54.41c-19.47 0-35.31 15.84-35.31 35.31 0 0 .026 207.54.033 207.83h-45.673c-8.982 0-16.29-7.308-16.29-16.29v-222.22c0-4.143-3.358-7.5-7.5-7.5s-7.5 3.357-7.5 7.5v222.22c0 17.253 14.037 31.29 31.29 31.29h130.7v43.49c0 4.143 3.358 7.5 7.5 7.5s7.5-3.357 7.5-7.5v-173.58c0-1.196.974-2.17 2.17-2.17h224.17c1.196 0 2.17.974 2.17 2.17v227.23c0 32.637-26.552 59.189-59.19 59.189h-110.13c-32.637 0-59.19-26.553-59.19-59.189v-19.65c0-4.143-3.358-7.5-7.5-7.5s-7.5 3.357-7.5 7.5v19.65c0 40.908 33.281 74.189 74.19 74.189h110.13c40.909 0 74.19-33.281 74.19-74.189v-1.571h36.733c24.85 0 45.067-20.217 45.067-45.066v-114.26c0-18.338-11.015-34.141-26.77-41.171zm-186.97-82.472c0-11.199 9.111-20.311 20.31-20.311h54.42c11.199 0 20.31 9.111 20.31 20.311v40.14h-95.04zm-126.57 57.31v115.09h-70.028c-.012-.29-.033-207.83-.033-207.83 0-11.199 9.111-20.31 20.31-20.31h54.41c11.199 0 20.31 9.11 20.31 20.31v75.57h-7.8c-9.467 0-17.169 7.702-17.169 17.17zm258.51 130.09h23.74c3.697 0 7.305-.658 10.689-1.886v24.249c0 12.269-9.986 22.25-22.26 22.25h-12.169zm34.429-19.032c-2.939 2.573-6.711 4.031-10.689 4.031h-23.74v-42.867h12.168c12.274 0 22.26 9.981 22.26 22.25v16.586zm32.371 69.535c0 16.579-13.488 30.066-30.067 30.066h-36.733v-20.957h12.168c20.545 0 37.26-16.71 37.26-37.25v-57.979c0-20.54-16.715-37.25-37.26-37.25h-12.168v-20.957h36.733c16.579 0 30.067 13.488 30.067 30.067z"/></g></svg>