<svg id="Capa_1" enable-background="new 0 0 511.5 511.5" height="512" viewBox="0 0 511.5 511.5" width="512" xmlns="http://www.w3.org/2000/svg"><g><g><path d="m473.739 461.122c-.021 19.06-15.401 34.504-34.357 34.483l-386.089-.298c-18.955-.021-34.314-15.486-34.293-34.547l.222-284.502c.011-19.071 15.391-34.515 34.357-34.494l386.079.308c18.955.011 34.314 15.476 34.304 34.536z" fill="#7a6d79"/><path d="m469.038 378.312-69.814-.055c-19.277-.015-34.892-15.655-34.877-34.931l.03-38.742c.015-19.277 15.655-34.892 34.932-34.877l69.814.055c19.277.015 34.892 15.655 34.877 34.931l-.03 38.742c-.015 19.278-15.655 34.893-34.932 34.877z" fill="#a79ba7"/><g fill="#ffe177"><circle cx="290.498" cy="334.348" r="29.433"/><circle cx="221.498" cy="414.348" r="29.433"/><circle cx="226.498" cy="204.348" r="29.433"/></g><path d="m67.13 495.32-13.84-.01c-18.95-.02-34.31-15.49-34.29-34.55l.22-284.5c.01-19.07 15.39-34.52 34.36-34.5l28.78.02c-18.4.63-33.13 16-33.14 34.88l-.22 287.84c-.01 13.34 7.33 24.94 18.13 30.82z" fill="#685e68"/><ellipse cx="95.76" cy="104.23" fill="#ffe177" rx="87.99" ry="88.478"/><ellipse cx="97.055" cy="102.742" fill="#ffc344" rx="52.321" ry="52.611"/><path d="m110.76 191.42c-4.89.86-9.93 1.29-15.07 1.29-48.59-.04-87.96-39.69-87.92-88.55.04-48.86 39.46-88.45 88.06-88.41 5.09 0 10.08.44 14.93 1.29-41.43 7.15-72.95 43.42-72.99 87.12-.04 43.74 31.52 80.1 72.99 87.26z" fill="#ffd064"/><path d="m423.68 378.28-24.46-.02c-19.27-.02-34.89-15.66-34.87-34.93l.03-38.75c.01-19.27 15.65-34.89 34.93-34.87l28.83.02c-18.73.6-33.74 15.97-33.75 34.86l-.03 39.2c-.02 17.39 12.69 31.82 29.32 34.49z" fill="#918291"/></g><g><path d="m474.052 455.255c-4.139-.173-7.649 3.002-7.844 7.14-.678 14.425-12.442 25.714-26.792 25.713-.009 0-.021 0-.03 0l-386.087-.3c-14.792-.016-26.814-12.146-26.798-27.044l.031-40.171h158.572c2.978 17.398 18.159 30.686 36.394 30.686 20.365 0 36.934-16.568 36.934-36.933s-16.568-36.934-36.934-36.934c-17.349 0-31.935 12.028-35.877 28.181h-159.078l.049-63.747h227.739c3.475 16.781 18.371 29.433 36.167 29.433 20.365 0 36.934-16.568 36.934-36.933s-16.568-36.934-36.934-36.934c-17.796 0-32.691 12.652-36.167 29.434h-227.727l.025-32.453h149.143c2.447 0 4.741-1.194 6.144-3.199l35.523-50.747c.059-.084.107-.172.162-.258 2.851.708 5.83 1.09 8.897 1.09 20.365 0 36.934-16.568 36.934-36.933s-16.568-36.934-36.934-36.934-36.934 16.568-36.934 36.934c0 11.878 5.643 22.458 14.383 29.219l-32.08 45.828h-145.227l.08-103.135c0-1.69.172-3.357.475-4.992 17.455 17.953 41.848 29.127 68.805 29.127 36.696 0 68.643-20.699 84.794-51.032l151.95.117h.006c4.14 0 7.497-3.354 7.5-7.494.003-4.143-3.352-7.503-7.494-7.506l-145.553-.112c3.109-9.436 4.797-19.51 4.797-29.973 0-52.935-43.065-96-96-96s-96 43.065-96 96c0 19.652 5.939 37.94 16.112 53.173-2.871 5.774-4.391 12.139-4.391 18.687l-.221 284.497c-.024 23.166 18.719 42.032 41.784 42.058l386.087.3h.047c22.373-.001 40.718-17.565 41.773-40.008.195-4.138-3.001-7.65-7.139-7.845zm-252.554-62.843c12.094 0 21.934 9.84 21.934 21.934s-9.839 21.933-21.934 21.933-21.934-9.839-21.934-21.933 9.839-21.934 21.934-21.934zm69-80c12.094 0 21.934 9.84 21.934 21.934s-9.839 21.933-21.934 21.933-21.934-9.839-21.934-21.933 9.839-21.934 21.934-21.934zm-64-130c12.094 0 21.934 9.84 21.934 21.934s-9.839 21.933-21.934 21.933-21.934-9.839-21.934-21.933 9.839-21.934 21.934-21.934zm-130.498-159.019c44.664 0 81 36.337 81 81s-36.336 81-81 81-81-36.337-81-81 36.336-81 81-81z"/><path d="m481.441 264.098.019-87.484c.006-11.214-4.333-21.762-12.218-29.702-7.897-7.953-18.401-12.336-29.575-12.342l-72.91-.061c-.002 0-.004 0-.006 0-4.139 0-7.497 3.354-7.5 7.494-.003 4.142 3.352 7.502 7.494 7.506l72.913.061c7.153.004 13.88 2.813 18.942 7.91 5.074 5.109 7.866 11.902 7.862 19.128l-.018 85.648-67.126-.053c-.012 0-.023 0-.035 0-11.313 0-21.953 4.402-29.959 12.396-8.015 8.003-12.435 18.647-12.443 29.975l-.03 38.742c-.019 23.381 18.989 42.419 42.371 42.438l67.075.052-.034 42.937c-.003 4.142 3.352 7.503 7.494 7.506h.006c4.14 0 7.497-3.354 7.5-7.494l.035-44.73c6.626-1.985 12.699-5.588 17.731-10.613 8.016-8.003 12.435-18.648 12.443-29.975l.03-38.742c.013-19.098-12.67-35.294-30.061-40.597zm15.029 79.329c-.005 7.32-2.861 14.2-8.042 19.372-5.175 5.166-12.05 8.011-19.361 8.011-.007 0-.015 0-.023 0l-69.814-.055c-15.11-.013-27.394-12.315-27.382-27.426l.03-38.742c.006-7.32 2.862-14.2 8.042-19.372 5.175-5.166 12.05-8.011 19.361-8.011h.023l69.814.055c15.11.013 27.394 12.315 27.382 27.426z"/><path d="m97.008 162.854h.048c15.968 0 30.983-6.245 42.28-17.588 11.298-11.343 17.527-26.428 17.54-42.476.013-16.049-6.193-31.144-17.473-42.504-11.292-11.372-26.314-17.642-42.301-17.654-.016 0-.031 0-.047 0-32.963 0-59.794 26.935-59.821 60.063-.026 33.145 26.788 60.132 59.774 60.159zm.047-105.222h.035c11.964.01 23.211 4.705 31.668 13.223 8.468 8.529 13.126 19.866 13.117 31.924s-4.686 23.387-13.167 31.902c-8.462 8.495-19.702 13.173-31.653 13.173-.012 0-.024 0-.036 0-24.714-.021-44.805-20.272-44.786-45.146.02-24.864 20.122-45.076 44.822-45.076z"/></g></g></svg>