<svg id="Capa_1" enable-background="new 0 0 508.659 508.659" height="512" viewBox="0 0 508.659 508.659" width="512" xmlns="http://www.w3.org/2000/svg"><g><g><path d="m288.161 92.598 10.74 32.441-2.383 140.716-15.191 13.314-162.991-.295c-8.554-.011-15.484-6.961-15.473-15.537l.295-155.376c.021-8.565 6.972-15.494 15.526-15.484z" fill="#6cf5c2"/><path d="m291.104 242.162c-13.754 1.972-28.257-1.065-40.576-9.619-25.863-17.952-32.265-53.476-14.302-79.339 12.995-18.711 35.176-27.244 56.24-23.721z" fill="#05e39c"/><path id="path9520_1_" d="m275.828 458.578c3.458-14.158-91.327-104.815-105.316-100.731-13.99 4.084-45.109 131.499-34.578 141.572 10.532 10.073 136.436-26.684 139.894-40.841z" fill="#fe646f"/><path d="m255.175 427.479c182.537-132.703 152.211-362.326 142.796-413.494-.911-4.954-6.577-7.369-10.79-4.608l-48.851 32.005c-2.227 1.459-5.087 1.538-7.392.204l-57.16-33.093c-5.852-3.388-12.661 2.608-10.023 8.834 25.607 60.423 86.485 244.255-59.872 360.91l12.805 31.856z" fill="#fe646f"/><path d="m138.977 278.808-20.64-.04c-8.56-.01-15.49-6.96-15.47-15.53l.29-155.38c.02-8.56 6.97-15.49 15.53-15.48l28.95.04c-8.07.53-14.46 7.36-14.48 15.71l-.29 158.09c-.01 5.14 2.39 9.71 6.11 12.59z" fill="#05e39c"/><g fill="#fd4755"><path d="m295.267 20.938c26.36 63.83 82.17 242.87-61.38 357.3 0 0-5.17 5.36-15.06 14.34l-14.94-14.34c146.35-116.66 85.48-300.49 59.87-360.91-2.64-6.23 4.17-12.22 10.02-8.83z"/><path d="m165.337 498.638c-15.14 2.79-26.54 3.52-29.4.78-10.53-10.07 20.59-137.49 34.58-141.57 3.38-.99 11.51 3.57 21.82 11.27-14.68 31.34-34.17 117.46-27 129.52z"/></g></g><g><path d="m221.825 286.468c4.135 0 7.492-3.349 7.5-7.485.008-4.143-3.343-7.507-7.485-7.515l-103.495-.199c-2.136-.003-4.143-.837-5.649-2.35-1.508-1.513-2.335-3.524-2.33-5.667l.29-155.376c.01-4.412 3.604-7.998 8.011-7.998h.009l22.14.03h.01c4.138 0 7.494-3.352 7.5-7.489.006-4.143-3.348-7.505-7.49-7.511l-22.141-.03c-.009 0-.018 0-.027 0-12.661 0-22.982 10.296-23.012 22.967l-.29 155.376c-.014 6.148 2.367 11.933 6.705 16.286 4.337 4.353 10.11 6.754 16.251 6.762l103.49.199z"/><path d="m405.344 12.628c-.883-4.8-4.088-8.812-8.574-10.732-4.491-1.922-9.613-1.471-13.701 1.207l-48.617 31.853-56.917-32.952c-5.51-3.191-12.154-2.529-16.925 1.686-4.767 4.209-6.243 10.711-3.762 16.564 5.918 13.964 14.563 36.749 21.593 64.831l-103.607-.137c-.003 0-.006 0-.01 0-4.137 0-7.495 3.352-7.5 7.49-.005 4.142 3.348 7.504 7.49 7.51l107.104.141c1.453 6.83 2.781 13.908 3.934 21.188-21.856-.914-43.134 9.426-55.789 27.647-9.83 14.153-13.561 31.287-10.504 48.244 3.057 16.959 12.536 31.709 26.689 41.534 10.321 7.166 22.328 11.103 34.662 11.5-1.967 7.148-4.281 14.278-6.971 21.362l-18.104-.027c-.004 0-.007 0-.011 0-4.137 0-7.494 3.351-7.5 7.489-.006 4.142 3.347 7.505 7.489 7.511l11.826.018c-13.484 29.126-33.928 57.118-63.766 82.001-2.074-1.658-4.083-3.224-6.01-4.677-17.318-13.063-24.298-14.74-29.456-13.232-5.156 1.505-10.141 6.673-17.712 27.006-4.664 12.525-9.62 29.198-13.955 46.945-4.335 17.751-7.624 34.834-9.26 48.104-2.656 21.538-.615 28.424 3.267 32.137 2.39 2.285 5.948 3.82 13.325 3.82 4.604 0 10.696-.598 18.917-1.985 13.179-2.223 30.095-6.267 47.631-11.387 17.541-5.12 33.98-10.814 46.291-16.032 19.981-8.47 24.925-13.68 26.199-18.897 1.273-5.218-.711-12.121-14.54-28.85-.775-.937-1.588-1.9-2.418-2.874 39.925-30.378 72.282-67.651 96.224-110.921 20.841-37.664 35.497-80.146 43.563-126.265 14.212-81.253 4.318-152.123-.595-178.82zm-150.542 213.753c-10.862-7.54-18.136-18.858-20.481-31.872-2.346-13.015.517-26.164 8.062-37.027 10.243-14.75 27.849-22.773 45.566-21.033 3.644 30.945 3.711 64.84-3.408 98.755-10.553.331-20.941-2.715-29.739-8.823zm-48.372 254.504c-35.36 10.324-58.075 13.517-64.918 12.7-1.111-6.799 1.06-29.634 9.799-65.419 8.74-35.784 17.341-57.049 21.461-62.57 4.102 1.552 13.174 7.512 26.089 18.203.16.145.325.282.495.411 7.262 6.034 15.713 13.536 25.17 22.583 10.092 9.653 18.382 18.241 24.94 25.534.116.136.232.271.355.397 10.517 11.733 16.491 20.054 18.162 23.94-5.333 4.361-26.193 13.898-61.553 24.221zm49.705-63.464c-6.385-6.861-13.609-14.17-21.254-21.481-6.549-6.264-13.083-12.22-19.309-17.617 31.376-26.665 54.882-58.348 69.928-94.299 5.337-12.751 9.614-26.094 12.855-39.949.003-.01.004-.02.007-.029 4.979-21.3 7.485-43.823 7.442-67.364-.057-30.61-4.37-59.796-10.289-85.517-.02-.104-.047-.206-.072-.309-7.3-31.615-17.018-57.968-24.25-75.191l55.984 32.411c4.785 2.771 10.634 2.611 15.261-.421l48.279-31.631c8.352 45.962 38.64 270.479-134.582 401.397z"/></g></g></svg>