<svg id="Capa_1" enable-background="new 0 0 511.881 511.881" height="512" viewBox="0 0 511.881 511.881" width="512" xmlns="http://www.w3.org/2000/svg"><g><g><path d="m482.314 33.934h-451.747c-11.944 0-21.626 9.623-21.626 21.495v266.146c0 8.547 5.026 15.91 12.296 19.369 2.418 1.15 3.967 3.564 3.967 6.228v122.125c0 3.577 4.232 5.496 6.95 3.152l146.439-126.296c2.306-1.988 5.256-3.083 8.308-3.083h295.414c11.944 0 21.626-9.623 21.626-21.495v-266.146c-.001-11.871-9.683-21.495-21.627-21.495z" fill="#f9f3f1"/><path d="m166.355 263.128v-47.891c0-12.08-9.85-21.87-22.004-21.87h-42.58c-12.142 0-22.004 9.79-22.004 21.87v47.891z" fill="#fe646f"/><path d="m213.146 263.128v-90.91c0-12.08 9.85-21.87 22.004-21.87h42.58c12.154 0 22.004 9.79 22.004 21.87v90.91z" fill="#ffe177"/><path d="m346.526 263.128v-114.163c0-12.08 9.85-21.87 22.004-21.87h42.58c12.142 0 22.004 9.79 22.004 21.87v114.163z" fill="#00f2a6"/><path d="m131.771 193.364c-12.14 0-22 9.79-22 21.87v47.89h-30v-47.89c0-12.08 9.86-21.87 22-21.87z" fill="#fd4755"/><path d="m398.531 127.094c-12.15 0-22 9.79-22 21.87v114.16h-30v-114.16c0-12.08 9.85-21.87 22-21.87z" fill="#05e39c"/><path d="m265.15 150.344c-12.15 0-22 9.79-22 21.87v90.91h-30v-90.91c0-12.08 9.85-21.87 22-21.87z" fill="#ffd064"/><path d="m55.2 347.174v105.39l-23.05 19.88c-2.72 2.35-6.95.43-6.95-3.15v-122.12c0-2.67-1.55-5.08-3.96-6.23-7.27-3.46-12.3-10.82-12.3-19.37v-266.15c0-11.87 9.68-21.49 21.63-21.49h30c-11.95 0-21.63 9.62-21.63 21.49v266.15c0 8.55 5.03 15.91 12.3 19.37 2.41 1.15 3.96 3.56 3.96 6.23z" fill="#e1d3ce"/></g><g><path d="m143.426 187.497h-42.741c-16.314 0-29.587 13.272-29.587 29.587v40.866h-13.602c-4.143 0-7.5 3.357-7.5 7.5s3.357 7.5 7.5 7.5h396.889c4.143 0 7.5-3.357 7.5-7.5s-3.357-7.5-7.5-7.5h-13.602v-107.797c0-16.314-13.272-29.587-29.587-29.587h-42.741c-16.314 0-29.588 13.272-29.588 29.587v107.797h-31.969v-84.313c0-16.314-13.272-29.587-29.587-29.587h-42.742c-16.314 0-29.587 13.272-29.587 29.587v84.313h-31.969v-40.866c.001-16.315-13.273-29.587-29.587-29.587zm-57.328 29.586c0-8.043 6.544-14.587 14.587-14.587h42.741c8.044 0 14.588 6.544 14.588 14.587v40.866h-71.916zm267.769-66.93c0-8.043 6.544-14.587 14.588-14.587h42.741c8.043 0 14.587 6.544 14.587 14.587v107.797h-71.916zm-133.885 23.484c0-8.043 6.544-14.587 14.587-14.587h42.742c8.043 0 14.587 6.544 14.587 14.587v84.313h-71.916z"/><path d="m482.671 26.484h-453.461c-16.106 0-29.21 13.1-29.21 29.2v205.75c0 4.143 3.357 7.5 7.5 7.5s7.5-3.357 7.5-7.5v-205.75c0-7.83 6.375-14.2 14.21-14.2h453.461c7.835 0 14.21 6.37 14.21 14.2v115.75c0 4.143 3.357 7.5 7.5 7.5s7.5-3.357 7.5-7.5v-115.75c0-16.101-13.104-29.2-29.21-29.2z"/><path d="m504.381 197.934c-4.143 0-7.5 3.357-7.5 7.5v119.04c0 7.835-6.375 14.21-14.21 14.21h-296.53c-4.865 0-9.57 1.755-13.255 4.945l-141.556 122.827v-116.132c0-5.518-3.232-10.639-8.251-13.055-4.908-2.35-8.079-7.371-8.079-12.795v-29.04c0-4.143-3.357-7.5-7.5-7.5s-7.5 3.357-7.5 7.5v29.04c0 11.068 6.406 21.32 16.33 26.192v122.998c0 4.646 2.625 8.729 6.851 10.656 1.583.723 3.248 1.076 4.896 1.076 2.748 0 5.447-.984 7.64-2.888l146.995-127.545c.953-.826 2.171-1.28 3.43-1.28h296.53c16.106 0 29.21-13.104 29.21-29.21v-119.04c-.001-4.141-3.359-7.499-7.501-7.499z"/></g></g></svg>