<svg id="Capa_1" enable-background="new 0 0 511 511" height="512" viewBox="0 0 511 511" width="512" xmlns="http://www.w3.org/2000/svg"><g><g><path d="m348.036 451.596-.075 37.634c-.017 7.898-6.43 14.287-14.32 14.27l-45.748-.083c-7.898-.017-14.287-6.43-14.27-14.328l.066-37.633 33.81-9.955z" fill="#f9f3f1"/><path d="m310.84 503.46-22.95-.04c-7.89-.02-14.28-6.43-14.27-14.33l.07-37.63 30 .06-.07 39.01c-.01 5.54 2.9 10.37 7.22 12.93z" fill="#e1d3ce"/><path d="m139.912 449.627-.075 37.634c-.017 7.898-6.43 14.287-14.32 14.27l-45.748-.083c-7.898-.017-14.287-6.43-14.27-14.328l.066-37.634 34.935-4.986z" fill="#f9f3f1"/><path d="m101.35 501.49-21.58-.04c-7.9-.02-14.29-6.43-14.27-14.33l.07-37.63 30 .06-.07 39.72c-.01 5.02 2.29 9.47 5.85 12.22z" fill="#e1d3ce"/><path d="m411.61 160.115-.49 248.004c-.04 22.956-17.775 41.721-40.27 43.461h-.06c-.42.04-.85.06-1.28.08-.7.03-1.42.05-2.14.05l-197.781-.39-117.57-.23c-24.116-.05-43.631-19.635-43.581-43.751l.48-248.014c.05-23.556 18.735-42.711 42.081-43.551.55-.02 1.12-.03 1.68-.03l315.341.61c24.125.05 43.64 19.645 43.59 43.761z" fill="#f9f3f1"/><ellipse cx="422.98" cy="87.457" fill="#6cf5c2" rx="78.584" ry="79.019"/><path d="m63.43 210.942c3.626-19.157 20.459-33.61 40.662-33.576l212.278.415c22.816.041 41.267 18.576 41.226 41.384l-.265 135.119c-.042 22.807-18.576 41.267-41.384 41.226l-212.278-.415c-20.509-.042-37.501-15.025-40.687-34.63" fill="#e1d3ce"/><ellipse cx="246.879" cy="286.508" fill="#f3eae6" rx="76.017" ry="75.272" transform="matrix(.002 -1 1 .002 -40.111 532.826)"/><ellipse cx="246.998" cy="285.508" fill="#cdbfba" rx="44.511" ry="44.011"/><path d="m64.44 451.11-12.42-.02c-24.12-.05-43.63-19.63-43.58-43.75l.48-248.01c.05-23.56 18.73-42.72 42.08-43.56.55-.02 1.12-.03 1.68-.03l13.35.02c-15.88 6.66-27.07 22.59-27.11 41.2l-.48 253.28c-.04 18.24 10.65 33.94 26 40.87z" fill="#e1d3ce"/><path d="m438 165.03c-4.88.96-9.92 1.45-15.08 1.45-43.4-.04-78.56-35.44-78.52-79.08.03-43.65 35.24-79 78.64-78.96 5.11 0 10.11.5 14.94 1.44-36.2 7.03-63.55 39.05-63.58 77.52-.04 38.51 27.34 70.6 63.6 77.63z" fill="#00e499"/><path d="m124.95 395.13-21.28-.04c-20.51-.04-37.5-15.02-40.69-34.63l.45-149.52c3.63-19.16 20.46-33.61 40.66-33.57l21.33.04c-16.2 3.46-28.89 16.48-31.99 32.95l-.45 150.8c2.72 16.88 15.51 30.37 31.97 33.97z" fill="#cdbfba"/><g fill="#faf8f8"><path d="m70.854 250.145-15.444-.03c-4.442-.009-8.035-3.616-8.027-8.058l.045-23.103c.009-4.442 3.616-8.035 8.058-8.027l15.444.03c4.442.009 8.035 3.617 8.027 8.058l-.045 23.103c-.008 4.442-3.616 8.035-8.058 8.027z"/><path d="m70.854 360.484-15.444-.03c-4.442-.009-8.035-3.617-8.027-8.058l.045-23.103c.009-4.442 3.616-8.036 8.058-8.027l15.444.03c4.442.009 8.035 3.616 8.027 8.058l-.045 23.103c-.008 4.441-3.616 8.035-8.058 8.027z"/></g></g><g><path d="m247.044 203.002c-.056 0-.106 0-.163 0-45.553 0-82.662 37.352-82.752 83.335-.09 46.041 36.959 83.57 82.589 83.659h.163c45.553 0 82.662-37.352 82.752-83.335.09-46.039-36.959-83.569-82.589-83.659zm-.164 151.995c-.043 0-.09 0-.133 0-37.358-.073-67.692-30.86-67.618-68.63.073-37.726 30.454-68.365 67.753-68.365h.133c37.358.073 67.692 30.86 67.618 68.63-.073 37.726-30.454 68.367-67.753 68.365z"/><path d="m39.982 329.26-.045 23.093c-.019 9.848 8.755 14.973 17.141 15.576 6.111 20.362 24.798 34.588 46.617 34.631l212.222.41h.086c26.866 0 48.75-21.829 48.797-48.693l.24-105.76c.01-4.142-3.341-7.508-7.483-7.517-.005 0-.011 0-.017 0-4.135 0-7.49 3.347-7.5 7.483l-.24 105.764c-.032 18.608-15.188 33.724-33.796 33.724-.02 0-.04 0-.06 0l-212.22-.41c-13.557-.026-25.367-7.955-30.711-19.762 7.566-1.028 13.429-7.507 13.444-15.354l.045-23.093c.008-4.151-1.601-8.058-4.53-10.999-3.638-3.159-7.604-4.685-11.899-4.575l.111-56.132.7.001h.031c8.556 0 15.525-6.952 15.542-15.512l.045-23.093c.015-7.635-5.511-13.999-12.777-15.311 5.565-11.299 17.197-18.839 30.322-18.839h.067l212.22.41c16.659.032 30.668 11.973 33.311 28.392.593 3.686 3.777 6.31 7.396 6.31.396 0 .797-.031 1.2-.096 4.09-.658 6.871-4.507 6.213-8.596-3.815-23.715-24.04-40.962-48.09-41.009l-212.22-.41c-.033 0-.064 0-.098 0-21.304 0-39.889 13.773-46.361 33.552-9.034-.074-17.683 5.191-17.703 15.508l-.045 23.093c-.016 8.48 6.8 15.399 15.247 15.559l-.111 56.169c-8.346.238-15.074 7.079-15.091 15.486zm31.363-.322c.158.159.158.329.158.384l-.045 23.093c-.001.299-.244.542-.543.542 0 0 0 0-.001 0l-15.436-.03c-.33-.032-.511-.213-.541-.543l.045-23.093c.001-.299.244-.542.543-.542h.001l15.437.03c.055-.001.224 0 .382.159zm-16.407-86.866.045-23.093c.107-.361.288-.542.544-.542l15.436.03c.299 0 .542.244.541.543l-.045 23.093c-.001.299-.244.542-.543.542 0 0 0 0-.001 0l-15.436-.03c-.299 0-.542-.243-.541-.543z"/><path d="m423 0c-47.972 0-87 39.028-87 87 0 7.537.965 14.852 2.774 21.83l-286.028-.55c-.036 0-.071 0-.107 0-28.16 0-51.1 22.881-51.158 51.056l-.481 247.948c-.028 13.664 5.268 26.521 14.912 36.202 9.643 9.68 22.479 15.026 36.144 15.054l3.602.007-.059 30.148c-.025 12.018 9.732 21.815 21.753 21.84l45.733.083h.047c11.995 0 21.769-9.748 21.794-21.752l.059-30.144 119.139.234-.053 30.12c-.013 5.822 2.243 11.301 6.352 15.426 4.108 4.124 9.577 6.402 15.401 6.415l45.734.083h.047c5.802 0 11.26-2.255 15.373-6.353 4.123-4.108 6.399-9.577 6.412-15.398l.06-30.116 13.877.027h.088c13.633 0 26.455-5.295 36.114-14.916 9.683-9.645 15.028-22.484 15.051-36.149l.15-73.58c.009-4.142-3.343-7.507-7.484-7.515-.006 0-.011 0-.016 0-4.135 0-7.491 3.348-7.5 7.485l-.15 73.583c-.016 9.659-3.794 18.732-10.637 25.548-6.828 6.801-15.892 10.544-25.527 10.544-.02 0-.041 0-.062 0l-315.269-.62c-9.659-.02-18.731-3.799-25.548-10.641-6.815-6.842-10.558-15.928-10.538-25.585l.48-247.949c.041-19.915 16.253-36.086 36.159-36.086h.076l291.482.561c11.3 24.074 33.311 42.158 59.859 48.076l-.055 127.581c-.002 4.142 3.354 7.501 7.497 7.503h.003c4.141 0 7.498-3.356 7.5-7.497l.056-125.597c1.308.059 2.622.093 3.944.093 47.972 0 87-39.028 87-87s-39.028-86.999-87-86.999zm-293.074 488.836c-.008 3.743-3.055 6.782-6.797 6.782-.005 0-.01 0-.015 0l-45.733-.083c-3.747-.008-6.79-3.063-6.782-6.81l.059-30.149 59.327.117zm208.464.382c-.004 1.816-.714 3.522-2 4.804-1.281 1.276-2.979 1.979-4.788 1.979-.005 0-.01 0-.015 0l-45.733-.083c-3.747-.008-6.79-3.063-6.782-6.812l.053-30.119 59.325.117zm84.61-330.218c-39.701 0-72-32.299-72-72s32.299-72 72-72 72 32.299 72 72-32.299 72-72 72z"/><path d="m465.098 52.074c-3.271-2.539-7.983-1.944-10.523 1.328l-39.613 51.057-23.989-25.589c-2.833-3.022-7.578-3.176-10.602-.342-3.021 2.833-3.175 7.58-.342 10.601l30 32c1.422 1.516 3.403 2.371 5.472 2.371.116 0 .233-.003.35-.008 2.192-.102 4.23-1.16 5.576-2.894l45-58c2.538-3.273 1.943-7.985-1.329-10.524z"/><path d="m246.881 234.5c-28.673 0-52 23.327-52 52s23.327 52 52 52 52-23.327 52-52-23.327-52-52-52zm0 89c-20.402 0-37-16.598-37-37s16.598-37 37-37 37 16.598 37 37-16.598 37-37 37z"/></g></g></svg>