<svg id="Capa_1" enable-background="new 0 0 507.618 507.618" height="512" viewBox="0 0 507.618 507.618" width="512" xmlns="http://www.w3.org/2000/svg"><g><g><path d="m401.163 373.896 55.5-29.495-78.37-145.752c-3.26-6.051-10.53-9.019-17.31-7.053l-115.58 33.456c-6.89 1.985-14.26-1.098-17.44-7.314l-5.85-11.438-10.57-20.65-80.62-157.518c-2.25-4.394-6.7-7.362-11.76-7.844l-95.06-9.038c-12.11-1.156-20.36 11.553-13.99 21.546l110.669 173.504 26.29 41.213 23.8 37.32 7.28 11.409c3.54 5.55 10.54 8.065 16.98 6.099l30.82-9.395 96.44-29.409c6.61-2.024 13.79.684 17.23 6.485z" fill="#fe646f"/><path d="m490.143 480.306c-.01.01-.03.02-.04.03-5.03 2.85-25.9-5.92-49.21-18.43-35.3-18.95-76.18-46.47-76.11-55.23.05-6.96 26.19-25.39 54.79-41.89.28-.17.57-.33.86-.5 30.87-17.75 64.33-33.1 70.8-29.3 12.52 7.35 11.51 137.91-1.09 145.32z" fill="#fe646f"/><path d="m421.863 362.896-20.7 11-61.54-103.87c-3.44-5.8-10.62-8.51-17.23-6.49l-96.44 29.41-30.82 9.39c-6.44 1.97-13.44-.54-16.98-6.09l-7.28-11.41-23.8-37.32-26.29-41.22-110.67-173.5c-6.37-9.99 1.88-22.7 13.99-21.55l2.07.2 106.81 167.45 26.29 41.21 23.8 37.32 7.28 11.41c3.54 5.55 10.54 8.06 16.98 6.1l30.82-9.4 96.44-29.41c6.61-2.02 13.79.69 17.23 6.49l61.54 103.87z" fill="#fd4755"/><path d="m221.738 220.387c-4.92 14.1-8.56 28.65-9.43 43.01h-154.62c-9.39-29.85-26.16-66.01-11.11-61.98 8.28 2.21 17.62 6.84 27.82 10.98 2.68 1.09 5.42 2.15 8.21 3.12.89.31 1.78.61 2.68.9 17.44 5.63 36.92 7.36 57.46-7.18 37.61-26.61 90.13-20.78 78.99 11.15z" fill="#f9f3f1"/><path d="m214.918 489.048c-45.77 12.67-99.36 6.62-136.44-.74-4.56-.9-8.87-1.83-12.88-2.74-1.02-.23-2.02-.48-3.02-.76-23.67-6.37-42.34-23.27-49.44-45.09-10.72-32.91-11.42-84.31 47.99-140.25h158.39c1.62 2.61 3.55 5.17 5.8 7.68 19.3 21.55 100.19 151.3-10.4 181.9z" fill="#f9f3f1"/><path d="m70.943 210.965c1.93 12.16 10.81 33.56 16.75 52.43h-30c-9.39-29.85-26.16-66.01-11.11-61.98 7.34 1.961 15.5 5.821 24.36 9.55z" fill="#e1d3ce"/><path d="m221.012 299.466h-170.413c-7.652 0-13.855-6.203-13.855-13.855v-11.015c0-7.652 6.203-13.855 13.855-13.855h170.413c7.652 0 13.855 6.203 13.855 13.855v11.015c.001 7.652-6.203 13.855-13.855 13.855z" fill="#ffe177"/><path d="m80.603 299.466h-30c-7.66 0-13.86-6.2-13.86-13.86v-11.01c0-7.65 6.2-13.86 13.86-13.86h30c-7.66 0-13.86 6.21-13.86 13.86v11.01c0 7.66 6.2 13.86 13.86 13.86z" fill="#ffc344"/><path d="m43.143 444.986c6.5 20.72 22.7 37.17 43.56 44.87-2.82-.5-5.56-1.02-8.22-1.55-4.56-.9-8.87-1.83-12.88-2.74-1.02-.23-2.02-.48-3.02-.76-23.67-6.37-42.34-23.27-49.44-45.09-10.72-32.91-11.42-84.31 47.99-140.25h30c-59.41 58.04-58.71 111.37-47.99 145.52z" fill="#e1d3ce"/><path d="m497.643 453.326c-1.67 14.54-4.18 25.03-7.5 26.98-.01.01-.03.02-.04.03-5.03 2.85-25.9-5.92-49.21-18.43-35.3-18.95-76.18-46.47-76.11-55.23.03-3.66 7.26-10.48 18.27-18.54 12.67 12.29 42.99 31.84 70.04 46.36 18.76 10.07 35.94 17.71 44.55 18.83z" fill="#fd4755"/></g><path d="m505.57 358.979c-2.357-21.524-5.919-27.745-10.542-30.462-4.623-2.717-11.792-2.803-31.742 5.606-.961.405-1.949.832-2.948 1.269l-75.441-140.304c-4.928-9.144-15.865-13.638-25.998-10.696l-115.578 33.448c-3.417.988-7.15-.525-8.68-3.518l-5.002-9.784c-1.304-3.939-3.755-7.456-7.314-10.339-17.04-13.799-55.347-9.992-83.654 8.315-2.848 1.844-5.675 3.347-8.482 4.581l-113.753-178.332c-1.913-3-.685-5.669-.068-6.677 1.462-2.391 4.085-3.65 7.025-3.374l95.062 9.04c2.495.237 4.714 1.692 5.803 3.822l67.91 131.65c1.899 3.681 6.422 5.125 10.104 3.227 3.681-1.899 5.126-6.422 3.227-10.104l-67.899-131.626c-3.439-6.726-10.067-11.175-17.728-11.902l-95.061-9.04c-8.65-.821-16.785 3.195-21.24 10.48-4.28 6.999-4.197 15.646.218 22.569l111.25 174.408c-16.679 1.933-32.43-4.282-46.861-9.982-6.962-2.75-13.539-5.347-19.818-6.876-6.828-1.668-10.646 1.268-12.313 3.165-6.413 7.302-2.062 19.613 7.583 44.551 1.447 3.743 2.915 7.556 4.316 11.325-10.526 1.315-18.703 10.3-18.703 21.177v11.01c0 9.514 6.255 17.589 14.867 20.344-50.082 53.874-48.799 103.247-38.105 136.091 8.164 25.087 30.363 44.568 57.936 50.84 25.327 5.753 57.667 11.064 90.729 11.064 20.994 0 42.279-2.141 62.245-7.67 31.859-8.815 51.809-26.238 59.296-51.783 14.882-50.775-26.261-119.875-43.941-140.768 2.819-1.758 5.193-4.148 6.933-6.979l85.381-26.037c3.303-1.009 6.911.312 8.585 3.14l58.716 99.104c-4.948 3.239-9.496 6.372-13.501 9.309-17.461 12.803-21.066 18.998-21.108 24.36-.042 5.363 3.466 11.613 20.724 24.686 10.628 8.051 25.134 17.57 40.845 26.805 15.713 9.236 31.088 17.28 43.294 22.651 12.805 5.634 20.329 7.638 25.309 7.638 2.728 0 4.693-.602 6.344-1.538 4.665-2.646 8.324-8.809 11.016-30.291 1.658-13.229 2.649-30.552 2.792-48.775.143-18.224-.579-35.562-2.03-48.818zm-243.753 81.293c-5.929 20.23-22.382 34.208-48.903 41.546-50.954 14.11-113.126 3.823-145.648-3.564-22.45-5.107-40.458-20.761-46.997-40.856-10.007-30.733-10.37-78.152 43.868-130.433h54.696c4.142 0 7.5-3.358 7.5-7.5s-3.358-7.5-7.5-7.5h-68.23c-3.507 0-6.36-2.853-6.36-6.36v-11.01c0-3.507 2.853-6.36 6.36-6.36h32.23c4.142 0 7.5-3.358 7.5-7.5s-3.358-7.5-7.5-7.5h-18.995c-1.95-5.488-4.108-11.096-6.218-16.553-3.247-8.395-7.81-20.194-9.188-26.723 4.38 1.353 9.2 3.256 14.237 5.246 17.901 7.069 41.18 16.261 66.449 8.325.211-.057 11.937-4.691 17.702-8.422 24.264-15.691 55.438-17.858 66.067-9.252 1.081.876 2.096 1.96 2.582 3.546.015.058.034.115.051.172.449 1.631.347 3.78-.789 6.758-5.13 13.452-8.254 25.576-9.501 36.903h-88.396c-4.142 0-7.5 3.358-7.5 7.5s3.358 7.5 7.5 7.5h104.18c3.507 0 6.36 2.853 6.36 6.36v11.01c0 3.507-2.853 6.36-6.36 6.36h-68.18c-4.142 0-7.5 3.358-7.5 7.5s3.358 7.5 7.5 7.5h62.716c1.283 1.766 2.671 3.503 4.18 5.188 13.232 14.77 55.717 81.618 42.087 128.119zm84.259-174.068c-5.239-8.849-15.88-12.897-25.871-9.843l-77.833 23.734v-5.501c0-11.778-9.582-21.36-21.36-21.36h-.66c1.004-7.874 3.047-16.285 6.193-25.457 5.589 4.771 13.43 6.641 20.942 4.471l115.588-33.452c3.397-.986 7.02.445 8.612 3.399l75.03 139.539c-14.395 7.068-28.444 14.869-42.138 23.212zm146.525 141.473c-.286 36.711-3.758 59.319-6.491 65.639-6.827-.901-28.011-9.529-59.659-28.131-31.65-18.604-49.492-32.915-53.599-38.441 4.192-5.461 22.255-19.493 54.191-37.601 31.938-18.109 53.252-26.405 60.09-27.197 2.634 6.36 5.754 29.019 5.468 65.731z"/></g></svg>