<svg id="Capa_1" enable-background="new 0 0 507.24 507.24" height="512" viewBox="0 0 507.24 507.24" width="512" xmlns="http://www.w3.org/2000/svg"><g><g><path d="m183.547 174.56.28-145.35c.01-12 9.77-21.72 21.8-21.71l218.05.41c12.02.03 21.75 9.79 21.73 21.79l-.19 148.93-50.62 23.99-170-6z" fill="#6cf5c2"/><path d="m375.784 199.243c3.845-22.987-5.468-47.194-25.888-61.375-28.224-19.603-66.992-12.616-86.584 15.609-9.335 13.445-12.65 29.272-10.498 44.282z" fill="#05e39c"/><path d="m234.157 7.55c-11.34.76-20.32 10.33-20.33 22.04l-.28 145.44-30-.47.28-145.35c.01-12 9.77-21.72 21.8-21.71z" fill="#05e39c"/><path d="m460.465 391.354-.055 76.69c-.018 17.52-13.234 31.716-29.521 31.697l-331.751-.274c-16.288-.02-29.485-14.235-29.467-31.755l.191-261.512c.009-17.53 13.225-31.726 29.521-31.706l331.742.284c16.288.01 29.485 14.225 29.476 31.745l-.064 86.202.06 98.895" fill="#bc7c63"/><path d="m451.455 391.922-50.164-.042c-19.276-.016-34.889-15.654-34.875-34.93l.022-29.97c.014-19.279 15.655-34.895 34.934-34.879l50.164.042c19.276.016 34.889 15.654 34.875 34.93l-.022 29.97c-.014 19.279-15.655 34.895-34.934 34.879z" fill="#aa6a51"/><path d="m119.257 499.49-20.12-.02c-16.29-.02-29.48-14.24-29.47-31.76l.19-261.51c.01-17.53 13.23-31.73 29.53-31.71l28.82.03c-15.76.65-28.34 14.66-28.35 31.86l-.19 263.03c-.01 13.87 8.16 25.67 19.59 30.08z" fill="#aa6a51"/><circle cx="110.47" cy="167.929" fill="#ffe177" r="89.687"/><circle cx="110.47" cy="167.929" fill="#ffc344" r="50.345"/><path d="m77.047 231.35c13.68 13.68 30.69 22.02 48.41 25.01-27.65 4.66-57.07-3.67-78.41-25.01-35.02-35.03-35.02-91.81 0-126.84 21.34-21.34 50.76-29.67 78.41-25.01-17.72 2.99-34.73 11.33-48.41 25.01-35.02 35.03-35.02 91.81 0 126.84z" fill="#ffd064"/><path d="m424.347 391.9-23.06-.02c-19.27-.02-34.88-15.65-34.87-34.93l.02-29.97c.02-19.28 15.66-34.9 34.94-34.88l28.77.02c-18.71.63-33.69 15.99-33.71 34.86l-.02 30.69c-.02 16.89 11.99 31 27.93 34.23z" fill="#935b44"/></g><g><path d="m121.104 491.99-21.958-.02c-12.127-.015-21.987-10.896-21.979-24.255l.152-208.455c10.688 3.861 21.917 5.81 33.152 5.81 24.887 0 49.775-9.473 68.721-28.42 15.344-15.344 24.47-34.584 27.388-54.565 0 0 231.647 1.145 234.837 3.01 7.212 4.239 11.688 12.446 11.681 21.421l-.01 21.1c-.002 4.142 3.354 7.501 7.496 7.503h.004c4.141 0 7.498-3.355 7.5-7.497l.01-21.098c.01-12.699-5.788-24.512-15.375-31.848l.184-144.965c.027-16.118-13.076-29.263-29.216-29.303l-218.058-.408c-.009 0-.015 0-.024 0-16.133 0-29.268 13.096-29.282 29.195l-.02 9.91c-.008 4.142 3.343 7.507 7.485 7.515h.016c4.135 0 7.491-3.348 7.5-7.485l.02-9.919c.006-7.841 6.411-14.216 14.273-14.216h.012l218.046.41c7.87.02 14.262 6.424 14.248 14.28l-.176 138.231c-2.173-.418-57.083-.685-57.083-.685-4.703-14.356-13.944-26.822-26.471-35.526-15.295-10.628-33.81-14.661-52.138-11.357-18.327 3.304-34.268 13.55-44.88 28.844-3.87 5.564-6.864 11.575-8.958 17.924l-40.61-.035c-.16-18.644-5.636-37.243-16.43-53.314l.076-40.638c.008-4.142-3.344-7.506-7.486-7.514-.005 0-.01 0-.015 0-4.135 0-7.492 3.349-7.5 7.486l-.043 23.252c-38.079-35.003-97.533-34.063-134.445 2.85-37.893 37.893-37.893 99.55 0 137.443 6.275 6.275 13.212 11.488 20.575 15.685l-.157 215.37c-.012 21.625 16.568 39.24 36.963 39.265l21.96.02h.007c4.139 0 7.496-3.354 7.5-7.493.005-4.143-3.35-7.504-7.492-7.508zm148.375-334.234c8.331-12.006 20.841-20.047 35.223-22.64 14.378-2.594 28.912.572 40.916 8.913 8.443 5.866 14.983 13.908 19.001 23.193l-100.381-.087c1.426-3.266 3.171-6.403 5.241-9.379zm-217.123-47.942c16.022-16.022 37.069-24.033 58.115-24.033s42.092 8.011 58.115 24.033c32.044 32.045 32.044 84.185 0 116.23-32.045 32.046-84.185 32.045-116.23 0-32.045-32.044-32.045-84.185 0-116.23z"/><path d="m468.041 288 .017-26.375c.003-4.142-3.354-7.502-7.495-7.505-.002 0-.003 0-.005 0-4.14 0-7.497 3.355-7.5 7.495l-.014 23.067c-.499-.018-51.664-.082-51.664-.082-.012 0-.023 0-.036 0-11.313 0-21.953 4.402-29.96 12.396-8.017 8.003-12.436 18.649-12.443 29.977l-.022 29.971c-.017 23.379 18.99 42.416 42.368 42.435 0 0 51.185.023 51.676.007l-.054 68.65c-.004 6.573-2.363 12.724-6.644 17.321-4.134 4.439-9.581 6.883-15.345 6.883-.008 0-.018 0-.025 0l-275.79-.22c-.002 0-.004 0-.006 0-4.139 0-7.497 3.354-7.5 7.494-.003 4.142 3.352 7.502 7.494 7.506l275.787.22h.044c9.97 0 19.315-4.141 26.318-11.662 6.872-7.38 10.66-17.159 10.666-27.533l.057-71.939c4.974-2.098 9.547-5.153 13.482-9.082 8.016-8.003 12.435-18.649 12.443-29.977l.021-29.97c.013-17.528-10.669-32.616-25.87-39.077zm10.848 69.037c-.006 7.321-2.861 14.201-8.042 19.374-5.18 5.172-12.058 7.98-19.386 8.011l-50.164-.042c-15.108-.013-27.392-12.315-27.381-27.424l.022-29.971c.005-7.321 2.861-14.201 8.041-19.373 5.176-5.167 12.051-8.011 19.362-8.011h.023l50.164.042c15.109.013 27.393 12.315 27.381 27.424z"/><path d="m168.315 167.929c0-31.896-25.949-57.845-57.845-57.845s-57.845 25.949-57.845 57.845 25.949 57.845 57.845 57.845 57.845-25.949 57.845-57.845zm-57.845 42.845c-23.625 0-42.845-19.22-42.845-42.845s19.22-42.845 42.845-42.845 42.845 19.22 42.845 42.845-19.22 42.845-42.845 42.845z"/></g></g></svg>