<svg id="Capa_1" enable-background="new 0 0 510.781 510.781" height="512" viewBox="0 0 510.781 510.781" width="512" xmlns="http://www.w3.org/2000/svg"><g><g><path d="m102.974 158.707 115.17-125.132c9.195-9.981 24.703-10.591 34.648-1.364l36.988 34.369c9.945 9.238 10.541 24.82 1.358 34.813l-107.973 117.312-81.667-1.035z" fill="#f9f3f1"/><path d="m264.62 43.201c-7.83-1.27-16.12 1.3-21.9 7.58l-115.17 125.13-1.06 42.08-24.99-.32 1.47-58.96 115.17-125.14c9.2-9.98 24.71-10.59 34.65-1.36z" fill="#e1d3ce"/><path d="m78.39 351.391 30 13 43 3 31.775-15.721v-177.895c0-8.327-6.535-15.069-14.592-15.069h-75.489c-8.058 0-14.581 6.742-14.581 15.069v177.883" fill="#f9f3f1"/><path d="m123.08 158.711c-8.05 0-14.58 6.74-14.58 15.06v177.89h-30v-177.89c0-8.32 6.53-15.06 14.58-15.06z" fill="#e1d3ce"/><path d="m58.439 408.821c0-46.743 32.679-85.206 72.392-85.206s72.392 38.463 72.392 85.206z" fill="#8ac9fe"/><path d="m145.83 325.481c-32.62 8.22-57.39 42.65-57.39 83.34v.67l-30 .18v-.85c0-46.74 32.68-85.21 72.39-85.21 5.14 0 10.16.64 15 1.87z" fill="#60b7ff"/><path d="m359.481 234.93 45.936-15.127c2.044-.673 4.284-.38 6.086.796l35.91 23.435c3.056 1.994 7.128 1.34 9.405-1.512l8.855-11.089c2.486-3.113 1.916-7.664-1.262-10.068l-45.882-34.704c-1.904-1.44-4.406-1.824-6.654-1.021l-61.166 21.839z" fill="#766e6e"/><path d="m232.925 483.202h-204.188c-11.73 0-21.239-9.509-21.239-21.239v-33.207c0-11.73 9.509-21.239 21.239-21.239h204.188c11.73 0 21.239 9.509 21.239 21.239v33.207c0 11.73-9.509 21.239-21.239 21.239z" fill="#f9f3f1"/><path d="m248.782 147.415 33.5 53.98c4.16 6.71 12.03 9.66 19.28 7.88 1.81-.43 3.57-1.18 5.23-2.21l21.53-13.5c2.06-1.29 3.76-2.93 5.08-4.8 4.05-5.7 4.54-13.52.62-19.83l-42.31-68.19z" fill="#f9f3f1"/><circle cx="428.635" cy="410.468" fill="#ffe177" r="74.647"/><circle cx="428.635" cy="410.468" fill="#ffc344" r="44"/><path d="m301.56 209.271 8.192-10.71 23.651-9.795 22.715 32.968c4.733 6.866 3.015 16.307-3.831 21.074l-6.272 4.361c-6.846 4.767-16.244 3.061-20.972-3.815l-23.477-34.078" fill="#f9f3f1"/><path d="m58.74 483.201h-30c-11.73 0-21.24-9.51-21.24-21.24v-33.2c0-11.73 9.51-21.24 21.24-21.24h30c-11.73 0-21.24 9.51-21.24 21.24v33.2c0 11.73 9.51 21.24 21.24 21.24z" fill="#e1d3ce"/><path d="m332.38 190.081c-1.15 1.32-2.5 2.5-4.06 3.48l-21.53 13.5c-1.66 1.03-3.42 1.78-5.23 2.21-7.25 1.78-15.12-1.17-19.28-7.88l-33.5-53.98 19.29-20.97 35.01 58.77c4.56 7.66 13.18 11.02 21.12 8.99 1.98-.49 3.91-1.34 5.72-2.52z" fill="#e1d3ce"/><path d="m443.64 483.601c-4.84.99-9.86 1.51-15 1.51-41.23 0-74.65-33.42-74.65-74.64 0-41.23 33.42-74.65 74.65-74.65 5.14 0 10.16.52 15 1.51-34.04 6.94-59.65 37.05-59.65 73.14 0 36.08 25.61 66.19 59.65 73.13z" fill="#ffd064"/><path d="m336.904 249.911-29.604 38.446c-1.302 1.691-1.772 3.879-1.28 5.955l9.854 41.558c.878 3.702-1.327 7.437-4.992 8.457l-15.181 4.225c-3.759 1.046-7.656-1.145-8.715-4.901l-15.273-54.153c-.624-2.214-.135-4.594 1.314-6.381l41.092-50.716z" fill="#766e6e"/></g><g><path d="m313.364 292.773 27.452-35.652c3.368-.511 6.6-1.791 9.478-3.795l6.276-4.364c2.858-1.99 5.094-4.54 6.712-7.389l44.288-14.584 35.743 23.326c2.468 1.61 5.239 2.389 7.982 2.389 4.289 0 8.507-1.902 11.381-5.501l8.855-11.089c2.477-3.101 3.568-6.977 3.074-10.914-.493-3.937-2.509-7.423-5.673-9.816l-45.882-34.704c-3.934-2.976-9.058-3.762-13.699-2.104l-59.281 21.165-7.877-11.432c3.197-7.51 2.628-16.198-1.802-23.329l-39.691-63.969c7.603-12.817 5.481-29.436-5.819-39.924l-36.991-34.372c-6.275-5.828-14.418-8.85-22.987-8.522-8.554.333-16.467 3.989-22.298 10.313l-44.25 48.32c-2.797 3.055-2.589 7.799.466 10.597s7.798 2.589 10.597-.466l44.233-48.302c3.091-3.353 7.294-5.297 11.835-5.474 4.53-.176 8.865 1.432 12.195 4.524l36.993 34.373c6.787 6.3 7.376 16.745 1.34 23.779-.034.04-.366.422-.396.455l-94.948 103.165v-26.126c0-12.213-9.914-22.15-22.101-22.15h-48.504l36.043-39.161c2.805-3.048 2.608-7.792-.439-10.598-3.049-2.806-7.792-2.608-10.598.439l-45.392 49.319h-6.599c-12.175 0-22.08 9.937-22.08 22.15v172.84c-12.046 15.075-19.025 33.877-19.951 53.82h-22.31c-15.846.001-28.739 12.894-28.739 28.741v33.21c0 15.847 12.893 28.74 28.739 28.74h204.19c15.539 0 28.423-12.636 28.719-28.167.078-4.142-3.215-7.563-7.356-7.642-4.129-.089-7.563 3.214-7.642 7.355-.141 7.418-6.296 13.453-13.721 13.453h-204.19c-7.576 0-13.739-6.164-13.739-13.74v-33.21c0-7.576 6.163-13.74 13.739-13.74h204.19c7.443 0 13.599 6.057 13.721 13.503.067 4.142 3.495 7.425 7.622 7.376 4.142-.068 7.443-3.48 7.376-7.622-.255-15.581-13.139-28.257-28.719-28.257h-22.317c-.926-19.939-7.902-38.737-19.943-53.81v-52.81c0-4.142-3.357-7.5-7.5-7.5s-7.5 3.358-7.5 7.5v38.102c-13.158-9.996-28.639-15.379-44.839-15.379-16.196 0-31.675 5.381-44.831 15.373v-158.135c0-3.942 3.176-7.15 7.08-7.15h75.489c3.915 0 7.101 3.208 7.101 7.15v86.04c0 4.142 3.357 7.5 7.5 7.5s7.5-3.358 7.5-7.5v-37.764l56.945-61.871 28.293 45.589c4.687 7.561 12.831 11.953 21.391 11.953.224 0 .449-.014.674-.02l8.615 12.504-39.387 48.612c-2.979 3.676-3.989 8.588-2.705 13.138l15.273 54.154c1.81 6.414 7.682 10.624 14.048 10.624 1.288 0 2.597-.173 3.896-.534l15.181-4.225c7.58-2.109 12.096-9.758 10.28-17.413zm-182.533 38.34c34.425 0 62.66 30.51 64.754 68.898h-129.508c2.094-38.388 30.329-68.898 64.754-68.898zm217.174-94.465-6.277 4.364c-1.66 1.157-3.668 1.598-5.653 1.234-1.983-.361-3.706-1.477-4.856-3.149l-18.846-27.355c2.372-1.452 5.412-3.357 9.334-5.865 4.297-2.748 7.5-4.847 9.915-6.479l18.321 26.591c2.391 3.469 1.52 8.252-1.938 10.659zm66.179-43.869 45.361 34.31-8.352 10.457-35.593-23.228c-3.729-2.434-8.296-3.032-12.53-1.639l-37.438 12.329c-.631-2.625-1.72-5.181-3.339-7.53l-3.412-4.953zm-125.531 4.66-30.495-49.138 32.396-35.198 37.097 59.789c2.094 3.369 2.085 7.588.017 10.954-4.054 3.177-24.194 15.986-28.493 18.273-4.123.759-8.285-1.074-10.522-4.68zm10.07 98.602 9.762 41.167-14.394 4.005-15.101-53.544 36.468-45.009 3.404 4.942c1.603 2.331 3.596 4.285 5.861 5.833l-23.366 30.345c-2.692 3.497-3.652 7.966-2.634 12.261z"/><path d="m428.635 328.32c-45.296 0-82.146 36.851-82.146 82.146s36.851 82.147 82.146 82.147 82.146-36.851 82.146-82.147-36.85-82.146-82.146-82.146zm0 149.293c-37.024 0-67.146-30.122-67.146-67.147s30.122-67.146 67.146-67.146 67.146 30.122 67.146 67.146-30.122 67.147-67.146 67.147z"/><path d="m358.135 334.96c1.046 0 2.108-.22 3.122-.685 3.765-1.727 5.417-6.179 3.69-9.944l-9.584-20.897c-1.728-3.766-6.177-5.417-9.944-3.691-3.765 1.727-5.417 6.179-3.69 9.944l9.584 20.897c1.262 2.753 3.98 4.376 6.822 4.376z"/><path d="m415.124 269.267c-3.765 1.727-5.417 6.179-3.69 9.944l9.584 20.896c1.263 2.752 3.98 4.375 6.822 4.375 1.046 0 2.108-.22 3.122-.685 3.765-1.727 5.417-6.179 3.69-9.944l-9.584-20.896c-1.727-3.764-6.176-5.416-9.944-3.69z"/><path d="m374.752 269.894c-3.765 1.727-5.417 6.179-3.69 9.944l15.051 32.816c1.263 2.752 3.98 4.375 6.822 4.375 1.046 0 2.108-.22 3.122-.685 3.765-1.727 5.417-6.179 3.69-9.944l-15.051-32.816c-1.727-3.765-6.175-5.417-9.944-3.69z"/><path d="m428.635 358.966c-28.397 0-51.5 23.103-51.5 51.5s23.103 51.5 51.5 51.5 51.5-23.103 51.5-51.5-23.103-51.5-51.5-51.5zm0 88c-20.126 0-36.5-16.374-36.5-36.5s16.374-36.5 36.5-36.5 36.5 16.374 36.5 36.5-16.374 36.5-36.5 36.5z"/></g></g></svg>